<?xml version="1.0" encoding="utf-8"?>
<!-- Generator: Adobe Illustrator 18.1.1, SVG Export Plug-In . SVG Version: 6.00 Build 0)  -->
<svg version="1.1" xmlns="http://www.w3.org/2000/svg" xmlns:xlink="http://www.w3.org/1999/xlink" x="0px" y="0px"
	 viewBox="0 0 63.3 120.3" enable-background="new 0 0 63.3 120.3" xml:space="preserve">
<g id="Background">
</g>
<g id="Objects">
	<g>
		<polygon fill="#FA6C07" points="31.6,0 0,0 0,117.8 9.3,111.5 15.6,119.8 23.5,112.4 31.6,120.3 39.8,112.4 47.6,119.8 54,111.5 
			63.3,117.8 63.3,0 		"/>
		
			<polygon opacity="0.8" fill="none" stroke="#FFF2E0" stroke-linecap="round" stroke-linejoin="round" stroke-miterlimit="10" points="
			31.6,3.9 3.5,3.9 3.5,111.3 11.8,105.5 17.4,113.1 24.4,106.4 31.6,113.5 38.9,106.4 45.8,113.1 51.5,105.5 59.7,111.3 59.7,3.9 
					"/>
		<g opacity="0.8">
			<ellipse fill="#381324" cx="31.6" cy="31.9" rx="19.2" ry="12.9"/>
			<g>
				<g>
					<ellipse fill="#FFEACC" cx="23.3" cy="30" rx="5.7" ry="4.5"/>
					<ellipse fill="#381324" cx="23.3" cy="30" rx="1.5" ry="5.3"/>
				</g>
				<g>
					<ellipse fill="#FFEACC" cx="40" cy="30" rx="5.7" ry="4.5"/>
					<ellipse fill="#381324" cx="40" cy="30" rx="1.5" ry="5.3"/>
				</g>
			</g>
			<g>
				<path fill="#381324" d="M14,28.2c0.8,1.3,12-7.1,12-7.1l-14.8-7.1C11.2,14.1,9.2,20.7,14,28.2z"/>
				<path fill="#381324" d="M52.1,14.1l-14.8,7.1c0,0,11.2,8.3,12,7.1C54,20.7,52.1,14.1,52.1,14.1z"/>
			</g>
			<path fill="#FFEACC" d="M31.6,34.3c-2.5,0-3,1.1-3,1.1l3,2.4l3-2.4C34.6,35.4,34.1,34.3,31.6,34.3z"/>
			<g>
				<path fill="#FFEACC" d="M31.6,37.9c0,0,0,0.1,0.1,0.4c0,0.1,0,0.3,0,0.5c0,0.2-0.1,0.4-0.2,0.6c-0.1,0.2-0.2,0.4-0.4,0.6
					c-0.1,0.1-0.2,0.2-0.3,0.3c-0.1,0.1-0.2,0.2-0.3,0.3c-0.1,0.1-0.2,0.2-0.4,0.3c-0.1,0.1-0.3,0.2-0.4,0.2
					c-0.3,0.1-0.6,0.3-0.9,0.3c-0.3,0.1-0.6,0.1-1,0.1c-0.3,0-0.7,0-1-0.1c-0.3-0.1-0.6-0.2-0.8-0.4c-0.2-0.1-0.4-0.4-0.6-0.5
					c-0.2-0.2-0.3-0.4-0.4-0.5c-0.1-0.2-0.1-0.3-0.2-0.4c-0.1-0.3-0.1-0.4-0.1-0.4s0.1,0.1,0.3,0.3c0.1,0.1,0.2,0.2,0.3,0.3
					c0.1,0.1,0.3,0.2,0.4,0.3c0.2,0.1,0.4,0.2,0.6,0.3c0.2,0.1,0.4,0.1,0.7,0.2c0.2,0.1,0.5,0,0.7,0c0.2,0,0.5-0.1,0.7-0.1
					c0.3,0,0.5-0.2,0.7-0.2c0.2-0.1,0.5-0.2,0.7-0.4c0.1-0.1,0.2-0.1,0.3-0.2c0.1-0.1,0.2-0.1,0.3-0.2c0.2-0.1,0.3-0.3,0.5-0.4
					c0.1-0.2,0.3-0.3,0.3-0.4c0.1-0.1,0.2-0.3,0.2-0.4C31.6,38,31.6,37.9,31.6,37.9z"/>
				<path fill="#FFEACC" d="M31.6,37.9c0,0,0.1,0.1,0.1,0.4c0,0.1,0.1,0.2,0.2,0.4c0.1,0.1,0.2,0.3,0.3,0.4c0.2,0.1,0.3,0.3,0.5,0.4
					c0.1,0.1,0.2,0.1,0.3,0.2c0.1,0.1,0.2,0.1,0.3,0.2c0.2,0.1,0.4,0.2,0.7,0.4c0.2,0.1,0.5,0.2,0.7,0.2c0.2,0.1,0.5,0.1,0.7,0.1
					c0.2,0,0.5,0,0.7,0c0.2,0,0.4-0.1,0.7-0.2c0.2-0.1,0.4-0.2,0.6-0.3c0.2-0.1,0.3-0.2,0.4-0.3c0.1-0.1,0.2-0.2,0.3-0.3
					c0.2-0.2,0.3-0.3,0.3-0.3s0,0.1-0.1,0.4c-0.1,0.1-0.1,0.3-0.2,0.4c-0.1,0.2-0.2,0.3-0.4,0.5c-0.2,0.2-0.4,0.4-0.6,0.5
					c-0.2,0.1-0.5,0.3-0.8,0.4c-0.3,0.1-0.6,0.1-1,0.1c-0.3,0-0.7,0-1-0.1c-0.3-0.1-0.6-0.2-0.9-0.3c-0.1-0.1-0.3-0.2-0.4-0.2
					c-0.1-0.1-0.3-0.2-0.4-0.3c-0.1-0.1-0.2-0.2-0.3-0.3c-0.1-0.1-0.2-0.2-0.3-0.3c-0.2-0.2-0.3-0.4-0.4-0.6
					c-0.1-0.2-0.2-0.4-0.2-0.6c0-0.2-0.1-0.4,0-0.5C31.6,38,31.6,37.9,31.6,37.9z"/>
			</g>
		</g>
		<g opacity="0.8">
			<polygon fill="#FFEACC" points="31.6,52.9 33.3,56 36.3,57.6 33.3,59.3 31.6,62.3 30,59.3 26.9,57.6 30,56 			"/>
			<polygon fill="#FFEACC" points="31.6,65.7 33.3,68.7 36.3,70.4 33.3,72.1 31.6,75.1 30,72.1 26.9,70.4 30,68.7 			"/>
			<polygon fill="#FFEACC" points="31.6,78.5 33.3,81.5 36.3,83.2 33.3,84.8 31.6,87.9 30,84.8 26.9,83.2 30,81.5 			"/>
			<polygon fill="#FFEACC" points="31.6,91.3 33.3,94.3 36.3,96 33.3,97.6 31.6,100.6 30,97.6 26.9,96 30,94.3 			"/>
		</g>
	</g>
</g>
</svg>
