<?xml version="1.0" encoding="utf-8"?>
<!-- Generator: Adobe Illustrator 18.1.1, SVG Export Plug-In . SVG Version: 6.00 Build 0)  -->
<svg version="1.1" xmlns="http://www.w3.org/2000/svg" xmlns:xlink="http://www.w3.org/1999/xlink" x="0px" y="0px"
	 viewBox="0 0 281.6 175.9" enable-background="new 0 0 281.6 175.9" xml:space="preserve">
<g id="Background">
</g>
<g id="Objects">
	<g>
		<g>
			<path id="SVGID_x5F_1_x5F__1_" fill="none" d="M140.8,168.9L140.8,168.9c43.5,0,78.9-36.3,78.9-80.8c0-44.6-35.4-80.8-78.9-80.8
				c-43.5,0-78.9,36.3-78.9,80.8C61.9,132.7,97.3,168.9,140.8,168.9z"/>
			<text>			<textPath  xlink:href="#SVGID_x5F_1_x5F__1_" startOffset="75%">
<tspan  fill="#733350" font-family="'GrandHotel-Regular'" font-size="28.1183" letter-spacing="51.2">Trick or Treat</tspan>			</textPath>
</text>
			<g>
				<g>
					<polygon fill="#733350" points="0,79.3 12.4,97.3 0,115.2 42.3,115.2 42.3,79.3 					"/>
					<polygon fill="#381324" points="31.1,104.3 42.3,115.2 42.3,104.3 					"/>
				</g>
				<polygon fill="#733350" points="281.6,57.6 269.2,75.5 281.6,93.4 239.3,93.4 239.3,57.6 				"/>
				<polygon fill="#381324" points="250.5,68.5 239.3,57.6 239.3,68.5 				"/>
				<rect x="31.1" y="68.5" fill="#914166" width="219.4" height="35.9"/>
			</g>
			<g>
				<g>
					<g>
						<g>
							<ellipse fill="#FFEACC" cx="201.9" cy="86.2" rx="7.3" ry="7.3"/>
							<g>
								<g>
									<path fill="#FFEACC" d="M198.2,92c0,0-1.5,3.2-0.9,3.7c0.5,0.5,1.7,0.4,2-0.3c0.2-0.6,0.6-2.6,0.6-2.6L198.2,92z"/>
									<path fill="#FFEACC" d="M200.4,92.9c0,0-0.6,2.6-0.2,2.9c0.4,0.4,1.2,0.1,1.3-0.4c0.1-0.5,0.1-2,0.1-2L200.4,92.9z"/>
								</g>
								<g>
									<path fill="#FFEACC" d="M205.6,92c0,0,1.5,3.2,0.9,3.7c-0.5,0.5-1.7,0.4-2-0.3c-0.2-0.6-0.6-2.6-0.6-2.6L205.6,92z"/>
									<path fill="#FFEACC" d="M203.4,92.9c0,0,0.6,2.6,0.2,2.9c-0.4,0.4-1.2,0.1-1.3-0.4s-0.1-2-0.1-2L203.4,92.9z"/>
								</g>
							</g>
							<g>
								<path fill="#381324" d="M200.2,84.5c-1-0.5-2.2,0.2-2.9,1.4c-0.6,1.3-0.3,2.7,0.6,3.1c1,0.5,2.2-0.2,2.9-1.4
									C201.4,86.3,201.1,84.9,200.2,84.5z"/>
								<path fill="#381324" d="M206.5,85.9c-0.6-1.3-1.9-1.9-2.9-1.4c-1,0.5-1.3,1.9-0.6,3.1c0.6,1.3,1.9,1.9,2.9,1.4
									C206.8,88.6,207.1,87.2,206.5,85.9z"/>
							</g>
							<path fill="#381324" d="M201.9,89.1c0,0-1.3,1.5-1.2,2c0.1,0.5,1.2,0,1.2,0s1,0.4,1.2,0C203.2,90.6,201.9,89.1,201.9,89.1z"
								/>
						</g>
						<g>
							<ellipse fill="#FFEACC" cx="236.9" cy="86.2" rx="7.3" ry="7.3"/>
							<g>
								<g>
									<path fill="#FFEACC" d="M233.1,92c0,0-1.5,3.2-0.9,3.7c0.5,0.5,1.7,0.4,2-0.3c0.2-0.6,0.6-2.6,0.6-2.6L233.1,92z"/>
									<path fill="#FFEACC" d="M235.4,92.9c0,0-0.6,2.6-0.2,2.9c0.4,0.4,1.2,0.1,1.3-0.4c0.1-0.5,0.1-2,0.1-2L235.4,92.9z"/>
								</g>
								<g>
									<path fill="#FFEACC" d="M240.6,92c0,0,1.5,3.2,0.9,3.7c-0.5,0.5-1.7,0.4-2-0.3c-0.2-0.6-0.6-2.6-0.6-2.6L240.6,92z"/>
									<path fill="#FFEACC" d="M238.3,92.9c0,0,0.6,2.6,0.2,2.9c-0.4,0.4-1.2,0.1-1.3-0.4s-0.1-2-0.1-2L238.3,92.9z"/>
								</g>
							</g>
							<g>
								<path fill="#381324" d="M235.1,84.5c-1-0.5-2.2,0.2-2.9,1.4c-0.6,1.3-0.3,2.7,0.6,3.1c1,0.5,2.2-0.2,2.9-1.4
									C236.4,86.3,236.1,84.9,235.1,84.5z"/>
								<path fill="#381324" d="M241.4,85.9c-0.6-1.3-1.9-1.9-2.9-1.4c-1,0.5-1.3,1.9-0.6,3.1c0.6,1.3,1.9,1.9,2.9,1.4
									C241.8,88.6,242,87.2,241.4,85.9z"/>
							</g>
							<path fill="#381324" d="M236.9,89.1c0,0-1.3,1.5-1.2,2c0.1,0.5,1.2,0,1.2,0s1,0.4,1.2,0C238.1,90.6,236.9,89.1,236.9,89.1z"
								/>
						</g>
					</g>
					<path fill="#FF9825" d="M217.9,97.2h3l0.4-11.3h5.1l0.3-3.9h-5.3l0.1-4.3h-4.3l0.1,4.3H212l0.3,3.9h5.1L217.9,97.2z"/>
				</g>
				<g>
					<g>
						<g>
							<ellipse fill="#FFEACC" cx="44.7" cy="86.2" rx="7.3" ry="7.3"/>
							<g>
								<g>
									<path fill="#FFEACC" d="M41,92c0,0-1.5,3.2-0.9,3.7c0.5,0.5,1.7,0.4,2-0.3c0.2-0.6,0.6-2.6,0.6-2.6L41,92z"/>
									<path fill="#FFEACC" d="M43.3,92.9c0,0-0.6,2.6-0.2,2.9c0.4,0.4,1.2,0.1,1.3-0.4c0.1-0.5,0.1-2,0.1-2L43.3,92.9z"/>
								</g>
								<g>
									<path fill="#FFEACC" d="M48.5,92c0,0,1.5,3.2,0.9,3.7c-0.5,0.5-1.7,0.4-2-0.3c-0.2-0.6-0.6-2.6-0.6-2.6L48.5,92z"/>
									<path fill="#FFEACC" d="M46.2,92.9c0,0,0.6,2.6,0.2,2.9c-0.4,0.4-1.2,0.1-1.3-0.4c-0.1-0.5-0.1-2-0.1-2L46.2,92.9z"/>
								</g>
							</g>
							<g>
								<path fill="#381324" d="M43,84.5c-1-0.5-2.2,0.2-2.9,1.4c-0.6,1.3-0.3,2.7,0.6,3.1c1,0.5,2.2-0.2,2.9-1.4
									C44.2,86.3,44,84.9,43,84.5z"/>
								<path fill="#381324" d="M49.3,85.9c-0.6-1.3-1.9-1.9-2.9-1.4c-1,0.5-1.3,1.9-0.6,3.1c0.6,1.3,1.9,1.9,2.9,1.4
									C49.6,88.6,49.9,87.2,49.3,85.9z"/>
							</g>
							<path fill="#381324" d="M44.7,89.1c0,0-1.3,1.5-1.2,2c0.1,0.5,1.2,0,1.2,0s1,0.4,1.2,0C46,90.6,44.7,89.1,44.7,89.1z"/>
						</g>
						<g>
							<ellipse fill="#FFEACC" cx="79.7" cy="86.2" rx="7.3" ry="7.3"/>
							<g>
								<g>
									<path fill="#FFEACC" d="M75.9,92c0,0-1.5,3.2-0.9,3.7c0.5,0.5,1.7,0.4,2-0.3c0.2-0.6,0.6-2.6,0.6-2.6L75.9,92z"/>
									<path fill="#FFEACC" d="M78.2,92.9c0,0-0.6,2.6-0.2,2.9c0.4,0.4,1.2,0.1,1.3-0.4c0.1-0.5,0.1-2,0.1-2L78.2,92.9z"/>
								</g>
								<g>
									<path fill="#FFEACC" d="M83.4,92c0,0,1.5,3.2,0.9,3.7c-0.5,0.5-1.7,0.4-2-0.3c-0.2-0.6-0.6-2.6-0.6-2.6L83.4,92z"/>
									<path fill="#FFEACC" d="M81.1,92.9c0,0,0.6,2.6,0.2,2.9c-0.4,0.4-1.2,0.1-1.3-0.4c-0.1-0.5-0.1-2-0.1-2L81.1,92.9z"/>
								</g>
							</g>
							<g>
								<path fill="#381324" d="M77.9,84.5c-1-0.5-2.2,0.2-2.9,1.4c-0.6,1.3-0.3,2.7,0.6,3.1c1,0.5,2.2-0.2,2.9-1.4
									C79.2,86.3,78.9,84.9,77.9,84.5z"/>
								<path fill="#381324" d="M84.3,85.9c-0.6-1.3-1.9-1.9-2.9-1.4c-1,0.5-1.3,1.9-0.6,3.1c0.6,1.3,1.9,1.9,2.9,1.4
									C84.6,88.6,84.9,87.2,84.3,85.9z"/>
							</g>
							<path fill="#381324" d="M79.7,89.1c0,0-1.3,1.5-1.2,2c0.1,0.5,1.2,0,1.2,0s1,0.4,1.2,0C80.9,90.6,79.7,89.1,79.7,89.1z"/>
						</g>
					</g>
					<path fill="#FF9825" d="M60.7,97.2h3L64.1,86h5.1l0.3-3.9h-5.3l0.1-4.3H60l0.1,4.3h-5.3l0.3,3.9h5.1L60.7,97.2z"/>
				</g>
			</g>
			<path fill-rule="evenodd" clip-rule="evenodd" fill="#381324" d="M154.1,38.8c0.8,0.2,1.6,0.5,2.4,1c2.3,1.2,3.8,3.1,5.4,5
				c0.7,0.8,1.7,2,2.6,2.5c1,0.6,2.4,0.8,3.5,1c3.4,0.6,6.5,1.2,9,3.8c0.6,0.6,1.1,1.3,1.6,2c1.3,2.2,1.8,4.6,2.2,7
				c0.2,1.1,0.5,2.5,1,3.5c0.6,1,1.7,1.9,2.5,2.6c2.6,2.3,5,4.3,5.9,7.8c0.2,0.8,0.3,1.7,0.4,2.5c0.1,2.6-0.8,4.8-1.6,7.2
				c-0.4,1.1-0.9,2.4-0.9,3.5c0,1.1,0.5,2.5,0.9,3.5c1.1,3.3,2.2,6.3,1.2,9.7c-0.2,0.8-0.5,1.6-1,2.4c-1.2,2.3-3.1,3.8-5,5.4
				c-0.8,0.7-2,1.7-2.5,2.6c-0.6,1-0.8,2.4-1,3.5c-0.6,3.4-1.2,6.5-3.8,9c-0.6,0.6-1.3,1.1-2,1.6c-2.2,1.3-4.6,1.8-7,2.2
				c-1.1,0.2-2.5,0.5-3.5,1c-1,0.6-1.9,1.7-2.6,2.5c-2.2,2.6-4.3,5-7.8,5.9c-0.8,0.2-1.7,0.3-2.5,0.3c-2.6,0.1-4.8-0.8-7.2-1.6
				c-1-0.4-2.4-0.9-3.5-0.9c-1.1,0-2.5,0.5-3.5,0.9c-3.3,1.2-6.3,2.2-9.7,1.2c-0.8-0.2-1.6-0.5-2.4-1c-2.2-1.2-3.8-3.1-5.4-5
				c-0.7-0.8-1.7-2-2.6-2.5c-1-0.6-2.4-0.8-3.5-1c-3.4-0.6-6.5-1.2-9-3.8c-0.6-0.6-1.1-1.3-1.6-2c-1.3-2.2-1.8-4.6-2.2-7
				c-0.2-1.1-0.4-2.5-1-3.5c-0.6-1-1.7-1.9-2.5-2.6c-2.6-2.2-5-4.3-5.9-7.8c-0.2-0.8-0.3-1.7-0.4-2.5c0-2.6,0.8-4.8,1.6-7.2
				c0.4-1.1,0.9-2.4,0.9-3.5c0-1.1-0.5-2.5-0.9-3.5c-1.1-3.3-2.2-6.3-1.2-9.7c0.2-0.8,0.5-1.6,1-2.4c1.2-2.3,3.1-3.8,5-5.4
				c0.8-0.7,2-1.7,2.5-2.6c0.6-1,0.8-2.4,1-3.5c0.6-3.4,1.3-6.5,3.8-9c0.6-0.6,1.3-1.1,2-1.6c2.2-1.3,4.6-1.8,7-2.2
				c1.1-0.2,2.5-0.5,3.5-1c1-0.5,1.9-1.7,2.6-2.5c2.2-2.6,4.3-5,7.8-5.9c0.8-0.2,1.7-0.3,2.5-0.4c2.6,0,4.8,0.8,7.2,1.6
				c1,0.4,2.4,0.9,3.5,0.9c1.1,0,2.5-0.5,3.5-0.9C147.6,38.9,150.6,37.9,154.1,38.8z"/>
			<path fill-rule="evenodd" clip-rule="evenodd" fill="#914166" d="M153,42.7c0.8,0.2,1.5,0.5,2.2,0.9c2.1,1.1,3.5,2.8,5,4.6
				c0.7,0.8,1.5,1.8,2.4,2.3c0.9,0.5,2.2,0.7,3.2,0.9c3.1,0.6,6,1.1,8.3,3.5c0.6,0.6,1,1.2,1.5,1.9c1.2,2,1.6,4.2,2,6.5
				c0.2,1,0.4,2.3,0.9,3.2c0.5,0.9,1.6,1.8,2.3,2.4c2.4,2.1,4.6,4,5.5,7.2c0.2,0.8,0.3,1.5,0.3,2.3c0.1,2.4-0.7,4.5-1.5,6.6
				c-0.3,1-0.8,2.2-0.8,3.3c0,1,0.5,2.3,0.8,3.3c1.1,3,2,5.8,1.1,9c-0.2,0.8-0.5,1.5-0.9,2.2c-1.1,2.1-2.8,3.5-4.6,5
				c-0.8,0.7-1.8,1.5-2.3,2.4c-0.5,0.9-0.7,2.2-0.9,3.2c-0.6,3.1-1.1,6-3.5,8.3c-0.6,0.6-1.2,1-1.9,1.5c-2,1.2-4.2,1.6-6.5,2
				c-1,0.2-2.3,0.4-3.2,0.9c-0.9,0.5-1.8,1.6-2.4,2.3c-2.1,2.4-4,4.6-7.2,5.5c-0.8,0.2-1.5,0.3-2.3,0.3c-2.4,0.1-4.4-0.7-6.6-1.5
				c-1-0.3-2.2-0.8-3.3-0.8c-1,0-2.3,0.5-3.3,0.8c-3,1.1-5.8,2-9,1.1c-0.8-0.2-1.5-0.5-2.2-0.9c-2.1-1.1-3.5-2.8-5-4.6
				c-0.7-0.8-1.5-1.8-2.4-2.3c-0.9-0.5-2.2-0.7-3.2-0.9c-3.1-0.6-6-1.1-8.3-3.5c-0.6-0.6-1-1.2-1.4-1.9c-1.2-2-1.6-4.2-2.1-6.5
				c-0.2-1-0.4-2.4-0.9-3.2c-0.5-0.9-1.6-1.8-2.3-2.4c-2.4-2.1-4.6-4-5.5-7.2c-0.2-0.8-0.3-1.5-0.3-2.3c0-2.4,0.7-4.4,1.5-6.6
				c0.3-1,0.8-2.2,0.8-3.3c0-1-0.5-2.3-0.8-3.3c-1.1-3-2-5.8-1.1-9c0.2-0.8,0.5-1.5,0.9-2.2c1.1-2.1,2.8-3.5,4.6-5
				c0.8-0.7,1.8-1.5,2.3-2.4c0.5-0.9,0.7-2.2,0.9-3.2c0.6-3.1,1.2-6,3.5-8.3c0.6-0.6,1.2-1,1.9-1.5c2-1.2,4.2-1.6,6.5-2
				c1-0.2,2.3-0.4,3.2-0.9c0.9-0.5,1.8-1.6,2.4-2.3c2.1-2.4,4-4.6,7.2-5.5c0.8-0.2,1.5-0.3,2.3-0.3c2.4,0,4.4,0.7,6.6,1.5
				c1,0.3,2.2,0.8,3.3,0.8c1,0,2.3-0.5,3.3-0.8C147.1,42.8,149.8,41.8,153,42.7z"/>
			<path fill-rule="evenodd" clip-rule="evenodd" fill="#381324" d="M152,46.5c0.7,0.2,1.4,0.5,2,0.8c1.9,1,3.2,2.6,4.6,4.2
				c0.6,0.7,1.4,1.7,2.2,2.1c0.8,0.5,2,0.7,3,0.9c2.9,0.5,5.5,1,7.6,3.2c0.5,0.5,1,1.1,1.3,1.7c1.1,1.9,1.5,3.8,1.9,5.9
				c0.2,0.9,0.4,2.2,0.9,3c0.5,0.8,1.4,1.6,2.1,2.2c2.2,1.9,4.2,3.7,5,6.6c0.2,0.7,0.3,1.4,0.3,2.1c0,2.2-0.6,4.1-1.3,6.1
				c-0.3,0.9-0.7,2-0.7,3c0,0.9,0.4,2.1,0.7,3c1,2.8,1.8,5.3,1,8.2c-0.2,0.7-0.5,1.4-0.8,2c-1,1.9-2.6,3.2-4.2,4.6
				c-0.7,0.6-1.7,1.4-2.1,2.2c-0.5,0.8-0.7,2-0.9,3c-0.5,2.9-1.1,5.5-3.2,7.6c-0.5,0.5-1.1,1-1.7,1.3c-1.9,1.1-3.9,1.5-5.9,1.9
				c-0.9,0.2-2.2,0.4-3,0.9c-0.8,0.5-1.6,1.4-2.2,2.1c-1.9,2.2-3.7,4.2-6.6,5c-0.7,0.2-1.4,0.3-2.1,0.3c-2.2,0-4.1-0.6-6.1-1.3
				c-0.9-0.3-2.1-0.7-3-0.7c-0.9,0-2.1,0.4-3,0.7c-2.8,1-5.3,1.8-8.2,1c-0.7-0.2-1.4-0.5-2-0.8c-1.9-1-3.2-2.6-4.6-4.2
				c-0.6-0.7-1.4-1.7-2.2-2.1c-0.8-0.5-2-0.7-3-0.9c-2.9-0.5-5.5-1.1-7.6-3.2c-0.5-0.5-0.9-1.1-1.3-1.7c-1.1-1.9-1.5-3.9-1.9-5.9
				c-0.2-0.9-0.4-2.2-0.8-3c-0.5-0.8-1.4-1.6-2.1-2.2c-2.2-1.9-4.2-3.7-5-6.6c-0.2-0.7-0.3-1.4-0.3-2.1c0-2.2,0.6-4.1,1.3-6.1
				c0.3-0.9,0.7-2.1,0.7-3c0-0.9-0.4-2.1-0.7-3c-1-2.8-1.8-5.3-1-8.2c0.2-0.7,0.5-1.4,0.8-2c1-1.9,2.6-3.2,4.2-4.6
				c0.7-0.6,1.7-1.4,2.1-2.2c0.5-0.8,0.7-2,0.8-3c0.5-2.9,1.1-5.5,3.2-7.6c0.5-0.5,1.1-1,1.7-1.3c1.9-1.1,3.8-1.5,5.9-1.9
				c0.9-0.2,2.2-0.4,3-0.9c0.8-0.5,1.6-1.4,2.2-2.1c1.9-2.2,3.7-4.2,6.6-5c0.7-0.2,1.4-0.3,2.1-0.3c2.2,0,4.1,0.6,6.1,1.3
				c0.9,0.3,2.1,0.7,3,0.7c0.9,0,2.1-0.4,3-0.7C146.5,46.6,149.1,45.7,152,46.5z"/>
			<g opacity="0.6">
				<path fill="none" stroke="#FFF2E0" stroke-linecap="round" stroke-linejoin="round" stroke-dasharray="0.9985,3.9942" d="
					M152.5,44.6c0.7,0.2,1.4,0.5,2.1,0.8c2,1.1,3.4,2.7,4.8,4.4c0.6,0.7,1.5,1.8,2.3,2.2c0.9,0.5,2.1,0.7,3.1,0.9
					c3,0.6,5.8,1.1,8,3.4c0.5,0.5,1,1.1,1.4,1.8c1.2,1.9,1.6,4,2,6.2c0.2,1,0.4,2.3,0.9,3.1c0.5,0.8,1.5,1.7,2.2,2.3
					c2.3,2,4.4,3.8,5.3,6.9c0.2,0.7,0.3,1.5,0.3,2.2c0,2.3-0.7,4.3-1.4,6.4c-0.3,0.9-0.8,2.1-0.8,3.1c0,1,0.5,2.2,0.8,3.1
					c1,2.9,1.9,5.5,1.1,8.6c-0.2,0.7-0.5,1.4-0.8,2.1c-1.1,2-2.7,3.4-4.4,4.8c-0.7,0.6-1.8,1.5-2.2,2.3c-0.5,0.9-0.7,2.1-0.9,3.1
					c-0.6,3-1.1,5.7-3.4,8c-0.5,0.5-1.1,1-1.8,1.4c-1.9,1.2-4,1.5-6.2,2c-1,0.2-2.3,0.4-3.1,0.9c-0.9,0.5-1.7,1.5-2.3,2.2
					c-2,2.3-3.8,4.4-6.9,5.2c-0.7,0.2-1.5,0.3-2.2,0.3c-2.3,0-4.3-0.7-6.4-1.4c-0.9-0.3-2.1-0.8-3.1-0.8c-1,0-2.2,0.5-3.1,0.8
					c-2.9,1-5.5,1.9-8.6,1.1c-0.7-0.2-1.4-0.5-2.1-0.8c-2-1.1-3.4-2.7-4.8-4.4c-0.6-0.7-1.5-1.8-2.3-2.2c-0.9-0.5-2.1-0.7-3.1-0.9
					c-3-0.6-5.8-1.1-8-3.4c-0.5-0.5-1-1.1-1.4-1.8c-1.2-1.9-1.6-4-2-6.2c-0.2-1-0.4-2.3-0.9-3.1c-0.5-0.9-1.5-1.7-2.2-2.3
					c-2.3-2-4.4-3.8-5.2-6.9c-0.2-0.7-0.3-1.5-0.3-2.2c0-2.3,0.7-4.3,1.4-6.4c0.3-0.9,0.8-2.1,0.8-3.1c0-1-0.5-2.2-0.8-3.1
					c-1-2.9-1.9-5.5-1.1-8.6c0.2-0.7,0.5-1.4,0.8-2.1c1.1-2,2.7-3.4,4.4-4.8c0.7-0.6,1.8-1.5,2.2-2.3c0.5-0.9,0.7-2.1,0.9-3.1
					c0.6-3,1.1-5.8,3.4-8c0.5-0.5,1.1-1,1.8-1.4c1.9-1.2,4-1.6,6.2-2c1-0.2,2.3-0.4,3.1-0.9c0.9-0.5,1.7-1.5,2.3-2.2
					c2-2.3,3.8-4.4,6.9-5.3c0.7-0.2,1.5-0.3,2.2-0.3c2.3,0,4.3,0.7,6.4,1.4c0.9,0.3,2.1,0.8,3.1,0.8c1,0,2.2-0.5,3.1-0.8
					C146.8,44.6,149.4,43.7,152.5,44.6z"/>
			</g>
			<path fill-rule="evenodd" clip-rule="evenodd" fill="#FF9825" d="M151.1,49.7c0.6,0.2,1.3,0.4,1.8,0.7c1.8,1,3,2.4,4.2,3.9
				c0.6,0.7,1.3,1.5,2.1,2c0.8,0.4,1.9,0.6,2.7,0.8c2.6,0.5,5.1,1,7.1,3c0.5,0.5,0.9,1,1.2,1.6c1,1.7,1.4,3.5,1.7,5.5
				c0.2,0.8,0.4,2,0.8,2.7c0.4,0.7,1.3,1.5,2,2c2,1.8,3.9,3.4,4.6,6.1c0.2,0.6,0.3,1.3,0.3,2c0,2-0.6,3.8-1.2,5.6
				c-0.3,0.8-0.7,1.9-0.7,2.8c0,0.9,0.4,1.9,0.7,2.8c0.9,2.5,1.7,4.9,1,7.6c-0.2,0.6-0.4,1.3-0.7,1.9c-1,1.8-2.4,3-3.9,4.2
				c-0.7,0.6-1.5,1.3-2,2c-0.4,0.8-0.6,1.9-0.8,2.7c-0.5,2.6-1,5.1-3,7.1c-0.5,0.5-1,0.9-1.6,1.2c-1.7,1-3.6,1.4-5.5,1.7
				c-0.8,0.2-2,0.4-2.7,0.8c-0.8,0.4-1.5,1.3-2.1,2c-1.8,2-3.4,3.9-6.1,4.6c-0.6,0.2-1.3,0.3-2,0.3c-2,0-3.8-0.6-5.6-1.2
				c-0.8-0.3-1.9-0.7-2.8-0.7c-0.9,0-1.9,0.4-2.8,0.7c-2.5,0.9-4.9,1.7-7.6,1c-0.6-0.2-1.3-0.4-1.8-0.7c-1.8-1-3-2.4-4.2-3.9
				c-0.6-0.7-1.3-1.5-2.1-2c-0.8-0.4-1.9-0.6-2.7-0.8c-2.6-0.5-5.1-1-7.1-3c-0.5-0.5-0.9-1-1.2-1.6c-1-1.7-1.4-3.6-1.7-5.5
				c-0.2-0.9-0.3-2-0.8-2.7c-0.4-0.8-1.3-1.5-2-2c-2-1.8-3.9-3.4-4.6-6.1c-0.2-0.6-0.3-1.3-0.3-2c0-2,0.6-3.8,1.2-5.6
				c0.3-0.8,0.7-1.9,0.7-2.8c0-0.9-0.4-1.9-0.7-2.8c-0.9-2.5-1.7-4.9-1-7.6c0.2-0.6,0.4-1.3,0.7-1.9c1-1.8,2.4-3,3.9-4.2
				c0.7-0.6,1.5-1.3,2-2c0.4-0.8,0.6-1.9,0.8-2.7c0.5-2.7,1-5.1,3-7.1c0.5-0.5,1-0.9,1.6-1.2c1.7-1,3.6-1.4,5.5-1.7
				c0.8-0.2,2-0.4,2.7-0.8c0.8-0.4,1.5-1.3,2.1-2c1.8-2,3.4-3.9,6.1-4.6c0.6-0.2,1.3-0.3,2-0.3c2,0,3.8,0.6,5.6,1.2
				c0.8,0.3,1.9,0.7,2.8,0.7c0.9,0,1.9-0.4,2.8-0.7C146.1,49.8,148.4,49,151.1,49.7z"/>
			<g>
				<path fill="#381324" d="M137.6,93.9c0.2-1.7,1.6-3,3.3-3c1.7,0,3.1,1.3,3.3,3h3.5l-7-11.6l-7,11.6H137.6z"/>
				<path fill="#381324" d="M161.8,85.3c5.9-3.2,8-10.5,4.8-16.4l-5,2.7c0.3,0.5,0.5,1.1,0.6,1.8c0.6,3.3-1.6,6.5-4.9,7.1
					c-2.7,0.5-5.2-0.8-6.4-3.1l-5.5,3C148.6,86.4,156,88.5,161.8,85.3z"/>
				<path fill="#381324" d="M119.7,85.3c5.9,3.2,13.2,1,16.4-4.8l-5.5-3c-1.2,2.2-3.8,3.6-6.4,3.1c-3.3-0.6-5.5-3.8-4.9-7.1
					c0.1-0.6,0.3-1.2,0.6-1.8l-5-2.7C111.7,74.8,113.9,82.1,119.7,85.3z"/>
				<path fill="#381324" d="M159.6,98.6l1.8,5.6h-6l1.7-5.1c-2.4,0.5-5.3,0.9-8.7,1.1l1.3,4h-6l1.2-3.8c-1.3,0-2.7,0.1-4.1,0.1
					c-1.4,0-2.8,0-4.1-0.1l1.2,3.8h-6l1.3-4c-3.2-0.2-6-0.6-8.3-1l1.3,3.9h-6l1.5-4.6c-6.7-1.8-8.8-4-8.8-4s3.2,10.2,13.9,15.5
					l-0.9-2.9h6l-1.4,4.3c2.5,0.8,5.4,1.4,8.7,1.5l-1.4-4.2h6l-1.4,4.2c3.3-0.1,6.2-0.7,8.8-1.6l-1.5-4.7h6l-1.1,3.3
					c10.8-5.2,14.1-15.6,14.1-15.6S166.6,96.9,159.6,98.6z"/>
			</g>
			<path id="SVGID_x5F_2_x5F__1_" fill="none" d="M140.8,147.5c-32.8,0-59.4-26.7-59.4-59.4c0-32.8,26.7-59.4,59.4-59.4
				s59.4,26.7,59.4,59.4C200.2,120.9,173.5,147.5,140.8,147.5L140.8,147.5z"/>
			<text>			<textPath  xlink:href="#SVGID_x5F_2_x5F__1_" startOffset="125.0487%">
<tspan  fill="#FA6C07" font-family="'SFSpeakeasy'" font-size="34.3185">Halloween</tspan>			</textPath>
</text>
		</g>
	</g>
</g>
</svg>
