<?xml version="1.0" encoding="utf-8"?>
<!-- Generator: Adobe Illustrator 18.1.1, SVG Export Plug-In . SVG Version: 6.00 Build 0)  -->
<svg version="1.1" xmlns="http://www.w3.org/2000/svg" xmlns:xlink="http://www.w3.org/1999/xlink" x="0px" y="0px"
	 viewBox="0 0 60.6 119.8" enable-background="new 0 0 60.6 119.8" xml:space="preserve">
<g id="Background">
</g>
<g id="Objects">
	<g>
		<g>
			<polygon fill="#FA6C07" points="60.6,119.3 60.6,0 0,0 0,119.8 29.3,99.7 			"/>
			
				<polygon opacity="0.8" fill="none" stroke="#FFF2E0" stroke-linecap="round" stroke-linejoin="round" stroke-miterlimit="10" points="
				57,112.3 57,3.4 3.6,3.4 3.6,112.7 29.4,94.4 			"/>
		</g>
		<g opacity="0.8">
			<ellipse fill="#FFEACC" cx="30.3" cy="27.3" rx="17.4" ry="17.4"/>
			<g>
				<g>
					<path fill="#FFEACC" d="M21.4,41.1c0,0-3.5,7.6-2.2,8.9c1.3,1.3,4.1,0.9,4.7-0.6c0.5-1.5,1.3-6.1,1.3-6.1L21.4,41.1z"/>
					<path fill="#FFEACC" d="M26.8,43.1c0,0-1.5,6.1-0.5,7c1,0.8,2.9,0.2,3.1-1c0.2-1.2,0.2-4.8,0.2-4.8L26.8,43.1z"/>
				</g>
				<g>
					<path fill="#FFEACC" d="M39.2,41.1c0,0,3.5,7.6,2.2,8.9c-1.3,1.3-4.1,0.9-4.7-0.6c-0.5-1.5-1.3-6.1-1.3-6.1L39.2,41.1z"/>
					<path fill="#FFEACC" d="M33.8,43.1c0,0,1.5,6.1,0.5,7c-1,0.8-2.9,0.2-3.1-1c-0.2-1.2-0.2-4.8-0.2-4.8L33.8,43.1z"/>
				</g>
			</g>
			<g>
				<path fill="#381324" d="M26.2,23c-2.3-1.1-5.4,0.4-6.8,3.4c-1.5,3-0.8,6.3,1.6,7.5c2.3,1.1,5.4-0.4,6.8-3.4
					C29.2,27.5,28.5,24.1,26.2,23z"/>
				<path fill="#381324" d="M41.3,26.5c-1.5-3-4.5-4.5-6.8-3.4c-2.3,1.1-3,4.4-1.6,7.4c1.5,3,4.5,4.5,6.8,3.4
					C42,32.8,42.7,29.5,41.3,26.5z"/>
			</g>
			<path fill="#381324" d="M30.3,34.1c0,0-3,3.6-2.8,4.7c0.3,1.1,2.8,0.1,2.8,0.1s2.5,1.1,2.8-0.1C33.3,37.7,30.3,34.1,30.3,34.1z"
				/>
		</g>
		<g opacity="0.8">
			<polygon fill="#381324" points="30.3,54.4 32,57.5 35,59.1 32,60.8 30.3,63.8 28.7,60.8 25.6,59.1 28.7,57.5 			"/>
			<polygon fill="#381324" points="30.3,67.2 32,70.2 35,71.9 32,73.5 30.3,76.6 28.7,73.5 25.6,71.9 28.7,70.2 			"/>
			<polygon fill="#381324" points="30.3,80 32,83 35,84.7 32,86.3 30.3,89.4 28.7,86.3 25.6,84.7 28.7,83 			"/>
		</g>
	</g>
</g>
</svg>
