<?xml version="1.0" encoding="utf-8"?>
<!-- Generator: Adobe Illustrator 18.1.1, SVG Export Plug-In . SVG Version: 6.00 Build 0)  -->
<svg version="1.1" xmlns="http://www.w3.org/2000/svg" xmlns:xlink="http://www.w3.org/1999/xlink" x="0px" y="0px"
	 viewBox="0 0 463.1 167.9" enable-background="new 0 0 463.1 167.9" xml:space="preserve">
<g id="Background">
</g>
<g id="Objects">
	<g>
		<g>
			<g>
				<g>
					<path fill="#381324" d="M151.6,132.1c0.6,0.1,1.7,0.5,1.9,0.4c0,0,0-0.1,0.1,0c0,0,0.1,0,0.1,0c0.2-0.1,0.9,0.2,1.4,0.3
						c0.5,0.1,1.1,0.2,1.5,0.3c0.2,0.1,0.4,0.4,0.4,0.7c-0.1,0.4-0.1,0.5-0.1,0.9c0,0.3,0.1,0.5,0.1,0.8c0.1,0.3,0.1,0.5,0,0.8
						c-0.1,0.2-0.1,0.4-0.1,0.7c0,0.3-0.1,0.5-0.2,0.7c0,0,0,0,0.1,0c0,0-0.1,0.1-0.1,0.1c-0.1,0-0.1,0-0.1,0.1c0,0,0,0,0,0
						c0,0-0.1,0-0.1,0c0,0,0,0-0.1,0c-0.1,0-0.3,0-0.4,0c-0.1,0-0.3,0.1-0.4,0.2c-0.1,0.1,0,0.2,0.1,0.4c0,0,0,0,0,0
						c0,0.1,0.1,0.3,0.1,0.3c0,0.1,0.1,0.2,0.1,0.3c0,0.2-0.1,0.4-0.2,0.5c-0.2,0.1-0.6,0.1-0.9,0c-0.3-0.1-0.6-0.2-0.9-0.2
						c-0.4,0-0.8-0.1-1.1-0.2c-0.4-0.1-0.8-0.2-1.1-0.2c0,0-0.1,0-0.2,0c-0.1,0-0.1,0-0.1,0.1c0,0.2,0,0.4,0.2,0.5
						c0.2,0.1,0.3,0.2,0.4,0.3c0,0,0,0,0,0c0,0.1,0.1,0.1,0.1,0.1c0,0,0.1,0.1,0.1,0.2c0,0,0,0-0.1,0c0.1,0.2,0.2,0.4,0.2,0.6
						c0,0.2-0.1,0.4-0.1,0.6c-0.2,0.8-0.4,1.6-0.6,2.3c-0.2,0.8-0.4,1.5-0.5,2.3c0,0.2,0,0.4,0,0.7c0,0.2,0,0.5-0.1,0.7
						c-0.1,0.3-0.2,0.6-0.2,1c-0.1,0.3-0.1,0.6-0.2,1c-0.4,2.1-0.6,3.1-1,5.2c-0.1,0.7-0.3,1.4-0.4,2.1c-0.1,0.7-0.4,1.6-0.4,2
						c0,0,0,0.1,0,0.2c0,0-0.1,0.1-0.1,0.1c0,0,0,0,0,0c-0.1,0.2-0.4,0.3-0.6,0.2c-0.3-0.1-0.6-0.1-0.8-0.2c-0.1,0-0.2-0.1-0.2-0.2
						c0-0.1-0.1-0.1-0.1-0.2c-0.1-0.2,0-0.6,0.1-0.9c0.1-0.3,0-0.6-0.1-0.8c-0.1-0.1-0.2-0.1-0.3,0c-0.1,0.1-0.2,0.3-0.3,0.5
						c0,0.2-0.1,0.4-0.1,0.6c0,0,0,0,0.1,0c0,0,0,0,0,0c0,0.1,0,0.1,0,0.2c0,0-0.1,0.1-0.1,0.1c0,0.3-0.2,0.5-0.4,0.5
						c-0.2,0-0.5,0-0.8-0.1c-0.3-0.1-0.6-0.1-0.8-0.2c-0.3,0-0.5-0.3-0.6-0.6c-0.1-0.2-0.1-0.4-0.1-0.6c0-0.2,0-0.4,0-0.6
						c0.2-1.5,0.3-3.1,0.4-4.5c0.2-1.5,0.2-3.1,0.5-4.6c0-0.1,0-0.2,0-0.4c0-0.1,0-0.3,0-0.4c0-0.2,0-0.3,0.1-0.5
						c0-0.2,0.1-0.4,0.1-0.5c0,0-0.1-0.1,0-0.2c0,0,0-0.1,0-0.1c0,0,0.1-0.1,0.1-0.1c0-0.1,0-0.1,0-0.2c0.1-0.8,0.3-1.7,0.4-2.6
						c0.1-0.9,0.1-2.1,0.4-2.6c0,0,0.1-0.1,0-0.2c0-0.1,0-0.1,0-0.2c0.1-0.2,0.1-0.5,0.2-0.8c0.1-0.3,0.1-0.6,0-0.8
						c0-0.1-0.1-0.1-0.1-0.2c0-0.1-0.1-0.1-0.2-0.2c-0.4-0.1-0.8-0.2-1.3-0.2c-0.4,0-1-0.1-1.2-0.3c0,0-0.1-0.1-0.1-0.1
						c0,0,0,0-0.1,0c0,0-0.1-0.1-0.1-0.2c0,0-0.1-0.1-0.1-0.2c0-0.2-0.1-0.4-0.2-0.6c-0.1-0.2-0.2-0.5-0.2-0.6
						c0-0.1,0.1-0.3,0.1-0.5s0.1-0.3,0.3-0.3c0.3-0.1,0.6,0,0.8,0.1c0.3,0.1,0.6,0.1,0.8,0c0.1,0,0.1-0.2,0-0.3
						c-0.1-0.1-0.2-0.2-0.4-0.3c-0.1,0-0.3-0.1-0.4-0.2c0,0,0,0,0,0c0-0.1-0.1-0.2-0.1-0.1c0,0,0,0,0,0c0,0,0,0,0-0.1
						c0-0.1-0.1,0-0.1,0c0,0,0-0.1,0,0c0,0,0,0-0.1,0c-0.3-0.3-0.5-0.7-0.4-1.1c0.1-0.3,0.1-0.7,0.2-1.1c0-0.4,0.2-0.8,0.4-1
						c0,0,0,0,0.1,0c0,0,0.1,0,0.1-0.1c0.2-0.1,1,0.1,1.5,0.2c0.5,0.1,1,0.2,1.5,0.3c0.4,0.1,0.7,0.1,1.1,0.2
						c0.4,0.1,0.8,0.1,1.1,0.1c0.1,0,0.3,0.1,0.5,0.1c0.2,0,0.3,0,0.4,0.1C150.3,131.8,150.9,132,151.6,132.1z M143.4,134.2
						C143.4,134.2,143.4,134.2,143.4,134.2C143.3,134.2,143.3,134.2,143.4,134.2C143.4,134.2,143.4,134.2,143.4,134.2z M150.1,138.8
						c-0.2-0.1-0.3,0-0.3,0.2c0,0.2-0.2,0.3-0.2,0.4c-0.1,0.1-0.1,0.4-0.1,0.5c0,0.2,0,0.3,0.1,0.5c0.1,0.1,0.1,0.1,0.2,0
						c0,0,0.1-0.1,0.1-0.1c0.3-0.4,0.5-0.8,0.4-1.3C150.1,138.9,150.1,138.9,150.1,138.8z"/>
					<path fill="#381324" d="M165.6,138.1c0.1,0,0.3,0,0.5,0.1c0.2,0.1,0.4,0.1,0.5,0.1c0.2,0,0.4,0.1,0.6,0.1
						c0.2,0,0.5,0.2,0.6,0.1c0.1,0,0.2,0,0.2,0.1c0.1,0.1,0.1,0.1,0.2,0.1c0,0,0,0,0,0.1c0.8,0.3,1.6,0.7,2.4,1.2
						c0.8,0.5,1.3,1.7,1.8,2.2c0,0,0.1,0.1,0.1,0.1c0,0.1,0.1,0.1,0.1,0.1c0.4,0.4,0.5,1.4,0.6,2.1c0.1,0.7,0.1,1.5,0,2.3
						c-0.1,1.3-0.6,2.6-1.3,3.7c-0.7,1.1-1.6,2-2.5,2.6c-0.1,0-0.1,0.1-0.1,0.2c0,0.1-0.1,0.2-0.1,0.2c-0.1,0.1,0,0.4,0.1,0.6
						c0.1,0.2,0.1,0.4,0.1,0.6c0.1,0.3,0.2,0.7,0.3,1c0.1,0.3,0.2,0.7,0.3,1c0.2,0.8,0.4,1.5,0.6,2.3c0.2,0.8,0.4,1.5,0.5,2.2
						c0.1,0.5,0.2,1,0.3,1.5c0.1,0.5,0.3,1.1,0.3,1.5c0,0.2-0.2,0.4-0.5,0.4c-0.3,0-0.6,0-0.9,0c-0.3,0-0.7,0.1-0.9,0
						c-0.1,0-0.3-0.2-0.4-0.3c-0.1-0.1-0.3-0.2-0.4-0.2c-0.1,0-0.2,0.1-0.2,0.2c0,0.1-0.1,0.2-0.2,0.2c-0.1,0-0.2,0-0.4,0
						c-0.1,0-0.2-0.1-0.3-0.2c-0.1-0.1-0.1-0.2-0.2-0.3c-0.3-0.9-0.5-2.2-0.9-2.9c-0.1-0.2-0.2-0.4-0.3-0.6
						c-0.1-0.2-0.1-0.4-0.2-0.6c-0.4-1-0.7-2.2-1.1-3.2c-0.4-1.1-0.7-2.3-1.2-3.2c0-0.1-0.2-0.1-0.3-0.1c-0.1,0-0.2,0.2-0.2,0.4
						c0,0.1,0,0.3-0.1,0.4c-0.3,0.8-0.5,1.7-0.7,2.6c-0.2,0.9-0.4,1.8-0.6,2.6c0,0.2-0.1,0.3-0.2,0.5c-0.1,0.1-0.2,0.3-0.3,0.4
						c0,0.1,0,0.3-0.1,0.5c0,0.2-0.1,0.3-0.1,0.5c0,0.1-0.1,0.3-0.1,0.4c0,0.2-0.1,0.3-0.1,0.4c0,0,0,0-0.1,0c0,0,0,0,0,0
						c0,0,0,0,0,0c0,0.1,0,0.1,0,0.1c-0.1,0-0.1,0-0.1,0c-0.1,0.1-0.2,0.1-0.3,0.1c-0.1,0-0.2,0-0.3-0.1c-0.1,0-0.1-0.1-0.2-0.1
						c-0.1,0-0.1-0.1-0.2-0.2c0-0.1,0-0.3,0-0.5c0-0.2,0-0.4,0-0.6c-0.1-0.1-0.2-0.2-0.3-0.1c-0.1,0.1-0.1,0.2-0.1,0.3
						c0,0.1-0.1,0.2-0.1,0.3c-0.1,0.1-0.1,0.3-0.2,0.4c-0.1,0.1-0.2,0.2-0.3,0.2c0,0,0,0,0,0.1c-0.2,0-0.4,0-0.6-0.1
						c-0.2-0.1-0.4-0.3-0.6-0.3c-0.1,0-0.4-0.1-0.6-0.3c-0.2-0.2-0.2-0.5-0.2-0.7c0.1-0.3,0.1-0.5,0.1-0.8c0.1-0.7,0.3-1.4,0.4-2
						c0-0.2,0.1-0.5,0.1-0.7c0.1-0.2,0.1-0.5,0.1-0.7c0.1-0.9,0.4-1.9,0.6-2.9c0.2-0.9,0.4-1.9,0.6-2.7c0.1-0.3,0.1-0.7,0-1
						c-0.1-0.3,0-0.7,0.1-1c0.1-0.2,0.1-0.4,0.1-0.6c0-0.2,0.1-0.5,0.1-0.6c0,0,0-0.1,0-0.1c0,0,0,0,0-0.1c-0.1-0.3,0.2-0.9,0.3-1.4
						c0.1-0.5,0.2-1.1,0.3-1.5c0.1-0.3,0.4-0.6,0.6-0.7c0.1-0.1,0.3-0.1,0.4,0c0.1,0,0.3,0,0.4,0c0.1,0,0.2-0.2,0.2-0.3
						c0-0.2-0.1-0.3-0.2-0.3c-0.1,0-0.1,0-0.2-0.1c0,0-0.1,0-0.2,0c0,0,0,0,0,0c0,0,0-0.1-0.1,0c0,0-0.1,0-0.2,0c0,0,0,0,0,0
						c-0.1,0-0.3,0-0.3-0.1c0,0,0-0.1-0.1,0c0,0,0,0-0.1,0c0,0-0.1,0-0.1,0c0,0-0.1-0.1-0.1-0.1c-0.1,0-0.2,0-0.4-0.1
						c-0.1-0.1-0.2-0.2-0.3-0.3c-0.1-0.1-0.1-0.3,0-0.4c0.1-0.1,0.1-0.3,0.1-0.4c0-0.1,0.2-0.2,0.3-0.3c0.1,0,0.2-0.1,0.3-0.1
						c0,0,0.1,0,0.2,0c0,0,0.1-0.1,0.1-0.1c0,0,0-0.2,0-0.2c-0.1-0.1-0.2-0.2-0.3-0.3c-0.1-0.1-0.2-0.3-0.1-0.5
						c0-0.2,0.1-0.4,0.1-0.6c0-0.2,0-0.5,0-0.6c0-0.2,0.1-0.6,0.1-0.8c0.1-0.2,0.1-0.6,0.2-0.8c0,0,0.1-0.1,0.1-0.1
						c0-0.1,0.1-0.1,0.1-0.1c0,0,0.1-0.1,0.2-0.1c0.1,0,0.2,0,0.2,0c0.2-0.1,0.8,0.1,1.2,0.2c0.4,0.1,0.8,0.1,1.2,0.2
						c0.3,0,0.6,0.1,0.9,0.2c0.3,0.1,0.8,0,0.9,0.1c0,0,0.1,0.1,0.2,0.1c0.1,0,0.1,0,0.2,0C165.3,138,165.6,138.1,165.6,138.1z
						 M164.5,144.3C164.5,144.4,164.5,144.3,164.5,144.3c0,0-0.1,0-0.1,0c0,0,0,0,0,0c0,0,0,0,0,0c0,0,0,0,0,0
						c-0.2,0.1-0.3,0.2-0.3,0.5c0,0.2-0.1,0.5-0.1,0.7c0,0.1,0.1,0.1,0.1,0.2c0,0,0,0,0,0c0,0,0,0,0,0c0.1-0.1,0.1-0.1,0.2-0.2
						c0-0.1,0-0.1,0-0.1c0.1,0,0-0.1,0.1-0.1c0-0.1,0.1-0.2,0.1-0.3c0-0.1,0-0.2,0-0.3c0,0,0.1-0.1,0.1-0.1c0,0,0-0.1,0-0.1
						C164.6,144.4,164.5,144.3,164.5,144.3z M166.2,144.4c-0.2-0.1-0.4,0-0.4,0.2c0,0.1,0,0.2-0.1,0.3c0,0.1-0.1,0.2-0.1,0.3
						c-0.1,0.3-0.2,0.6-0.3,0.9c-0.1,0.3-0.2,0.7-0.3,1c-0.1,0.4-0.2,0.8-0.3,1.2c-0.1,0.4-0.2,0.8-0.3,1.2c0,0.1,0,0.3,0.1,0.3
						c0.1,0.1,0.2,0.2,0.2,0.2c0.1,0,0.4,0,0.5,0c0.2,0,0.4-0.1,0.5-0.1c0.4-0.2,0.7-0.4,1.1-0.7c0.3-0.3,0.6-0.6,0.8-1
						c0.2-0.4,0.3-0.8,0.4-1.3c0-0.5-0.1-1-0.3-1.4c0-0.1-0.1-0.2-0.2-0.3c-0.1-0.1-0.2-0.1-0.2-0.2c-0.1-0.1-0.2-0.2-0.3-0.3
						c-0.1-0.1-0.2-0.1-0.3-0.2C166.5,144.5,166.3,144.5,166.2,144.4z"/>
					<path fill="#381324" d="M182.1,140.1c0.2,0.1,0.3,0.3,0.4,0.5c0,0.1,0.1,0.2,0.1,0.3c0,0.1-0.1,0.2-0.1,0.3
						c-0.2,0.6-0.2,1.3-0.3,1.9c-0.1,0.6-0.2,1.3-0.3,1.9c0,0.2,0,0.3,0,0.4c0,0.1,0.1,0.3,0.1,0.5c0,0.1,0,0.2,0,0.4
						c0,0.1,0,0.1,0,0.2c0,0.1,0,0.1,0,0.2c0,0,0-0.1,0-0.1c-0.1,0.4-0.1,0.8-0.2,1.2c-0.1,0.4-0.1,0.8-0.2,1.2c0,0,0,0,0,0
						c-0.4,2.4-0.7,4.8-1,7.3c-0.3,2.5-0.3,5.2-0.7,7.5c0,0.1-0.1,0.2-0.2,0.3c-0.1,0.1-0.2,0.1-0.3,0.2c-0.1,0-0.3,0.1-0.4,0
						c-0.1,0-0.3-0.1-0.4-0.1c-0.3,0.1-0.7,0.3-1,0.1c-0.2-0.1-0.3-0.2-0.4-0.4c-0.1-0.2-0.1-0.4-0.1-0.6c0-0.2-0.1-0.5-0.2-0.5
						c-0.1,0-0.2,0.1-0.2,0.2c0,0.1-0.1,0.2-0.1,0.3c0,0.1-0.1,0.2-0.1,0.3c0,0.1-0.1,0.2-0.2,0.2c-0.1,0-0.1,0.1-0.2,0.1
						c-0.1,0-0.2,0-0.2,0c0,0-0.1,0-0.1-0.1c0-0.1-0.1-0.1-0.1-0.2c-0.1-0.2,0-0.5,0-0.8c0-0.3,0.1-0.5,0.1-0.8
						c0-0.7,0.1-1.5,0.1-2.3c0.1-0.8,0.2-1.7,0.1-2.3c0-0.1,0-0.1-0.1-0.2c0-0.1,0-0.1,0-0.2c0.1-0.3,0-0.8,0-1.3
						c0-0.4,0.1-0.9,0.1-1.3c0-0.7,0.1-1.3,0.1-2.1c0.1-0.7,0.1-1.4,0.2-2c0.1-0.6,0.1-1.1,0.2-1.7c0-0.6,0.1-1.1,0.2-1.7
						c0.1-0.5,0.1-1.1,0.2-1.6c0.1-0.5,0.1-1.1,0.2-1.6c0,0,0,0,0-0.1c0,0,0,0,0,0c0,0,0,0,0-0.1c0-0.1,0.1-0.3,0.1-0.5
						c0-0.2,0.1-0.3,0.1-0.5c0.1-0.4,0.1-0.8,0.1-1.2c0.1-0.4,0.1-0.8,0.2-1.2c0-0.2,0.1-0.3,0.2-0.4c0.1-0.1,0.3-0.2,0.4-0.2
						c0,0,0.1,0,0.1,0c0.1,0,0.3,0.1,0.4,0.1c0.1,0,0.3,0,0.4,0.2c0.1,0.1,0.1,0.2,0.2,0.3c0,0,0,0,0,0c0,0,0,0.1,0,0.1
						c0,0,0.1,0.1,0.1,0.1c0,0,0.1-0.1,0.1,0c0,0,0,0,0.1-0.1c0,0,0,0,0,0c0.1,0,0.1,0,0.2-0.1c0-0.1,0.1-0.1,0.2-0.1
						c0.1,0,0.2,0.1,0.3,0.1c0,0.1,0.1,0.1,0.1,0.2c0,0.1,0.1,0.1,0.1,0.2c0,0.1-0.1,0.3,0,0.5c0,0.1,0.1,0.2,0.2,0.1
						c0.1-0.1,0.1-0.3,0.1-0.4c0-0.2,0.1-0.4,0.2-0.6c0-0.2,0.1-0.3,0.3-0.3c0.2,0,0.3,0,0.5,0c0.2,0,0.3,0.1,0.5,0.1
						C182,140.1,182.1,140.1,182.1,140.1z"/>
					<path fill="#381324" d="M195.7,141.4c0.2,0,0.4,0.1,0.6,0.1c0.2,0,0.4,0.2,0.5,0.4c0,0.1,0,0.1,0,0.1c0,0.2,0,0.5,0,0.7
						c0,0.2,0,0.4,0,0.6c0,0.1-0.1,0.2-0.1,0.3c-0.1,0.1-0.1,0.3-0.1,0.4c0,0.1,0,0.2-0.1,0.2c-0.1,0.1,0,0.2,0,0.3
						c0,0.1,0,0.2,0,0.3c0,0.1,0,0.2,0,0.3c0,0-0.1,0.1,0,0.2c0,0.1,0.1,0.2,0.1,0.4c0,0.1,0.1,0.3,0.1,0.4c0,0.1-0.1,0.4,0,0.6
						c0,0.2-0.1,0.3-0.2,0.5c-0.1,0.1-0.3,0.3-0.5,0.2c-0.2,0-0.4,0-0.5,0c-0.2,0-0.6,0.1-0.8,0.2c-0.3,0.1-0.5,0.3-0.7,0.4
						c-0.5,0.4-1,0.8-1.5,1.3c-0.4,0.5-0.8,1-1.2,1.6c-0.1,0.2-0.2,0.3-0.4,0.4c-0.1,0.1-0.3,0.2-0.4,0.4c0,0,0,0-0.1,0
						c-0.3,0.4-0.5,0.8-0.7,1.2c-0.2,0.4-0.3,1-0.4,1.3c0,0.1-0.1,0.2-0.1,0.3c0,0.1-0.1,0.3-0.1,0.4c-0.1,0.3,0,0.8,0,1.3
						c0,0.5,0.2,0.9,0.3,1.3c0,0.1,0,0.3,0.1,0.4c0.1,0.1,0.1,0.2,0.1,0.3c0.2,0.4,0.6,0.9,1,1.3c0.4,0.4,0.9,0.7,1.4,0.8
						c0.2,0.1,0.4,0.1,0.7,0.2c0.2,0.1,0.5,0,0.6,0c0.2,0,0.5,0,0.7,0c0.2,0,0.5,0,0.7,0.1c0.1,0.1,0.2,0.3,0.2,0.5
						c0,0.1,0,0.1,0,0.2c0,0,0,0.1,0,0.2c0,0,0,0,0.1-0.1c0,0.1,0,0.2,0,0.3c0,0.1,0.1,0.2,0.1,0.3c0.1,0.1,0.1,0.2,0.1,0.2
						c0,0,0,0,0,0c0,0,0,0,0,0c0,0,0,0.1,0,0.1c0,0,0,0.1,0,0.1c0,0,0,0.1,0,0.1c0,0-0.1,0-0.1,0c0,0,0,0.1,0,0.1c0,0,0,0.1,0,0.1
						c0,0,0-0.1,0-0.1c0,0-0.1,0.3-0.1,0.4c0,0.1-0.1,0.2-0.2,0.3c-0.1,0.1-0.3,0.2-0.4,0.2c-0.2,0-0.3,0.1-0.3,0.3c0,0,0,0,0-0.1
						c0,0,0,0-0.1,0.1c0,0,0.1,0.1,0,0.1c0,0,0,0.1,0.1,0.1c0,0,0.1,0.1,0.1,0.1c0,0.1,0.2,0.1,0.2,0.1c0,0,0,0.1,0.1,0.2
						c0.1,0.1,0.1,0.2,0.1,0.3c0,0.1,0,0.2,0,0.3c0,0.2-0.2,0.4-0.3,0.5c-0.2,0.1-0.4,0.1-0.5,0.2c-0.1,0-0.3,0.1-0.5,0
						c-0.2,0-0.3,0-0.5,0c-1.1,0.1-2.5-0.3-3.8-0.8c-1.2-0.5-2.5-1.5-3.2-2.6c-0.2-0.3-0.3-0.6-0.6-0.9c-0.2-0.3-0.4-0.6-0.5-0.9
						c-0.1-0.3-0.2-0.5-0.3-0.8c-0.1-0.3-0.2-0.6-0.2-0.8c-0.2-0.9-0.5-1.9-0.5-2.9c0-0.2,0-0.3,0-0.4c0-0.4,0-0.8,0-1.1
						c0-0.3,0.1-0.7,0.1-1c0-0.4,0.1-0.7,0.2-1.1c0.1-0.3,0.2-0.7,0.2-1c0.3-1.1,1.2-2.7,1.1-3.1c0,0,0-0.1,0-0.1c0,0,0-0.1,0.1-0.1
						c0.3-0.6,0.4-0.9,0.7-1.4c0.3-0.4,0.6-0.9,0.9-1.3c0.3-0.4,0.6-0.9,0.9-1.1c0.1-0.1,0.3-0.3,0.3-0.3c0.1-0.2,0.3-0.3,0.5-0.5
						c0.2-0.1,0.4-0.3,0.5-0.5c0,0,0,0,0,0c0.1,0,0.1-0.1,0.2-0.1c0.1-0.1,0.2-0.1,0.2-0.2c0,0,0,0,0,0c0,0,0.1-0.1,0.1-0.1
						c0,0,0.1-0.1,0.1-0.1c0,0,0,0,0,0c0.6-0.4,1.3-0.7,2-1c0.7-0.3,1.9-0.2,2.3-0.4c0,0,0.1,0,0.1,0c0.1,0,0.4,0,0.6,0
						C195.3,141.3,195.5,141.3,195.7,141.4z"/>
					<path fill="#381324" d="M209.6,140.7c0,0.2,0.1,0.3,0.1,0.5c0,0.1,0,0.3,0,0.4c0,0.1,0,0.3,0,0.3c0,0,0.1,0.1,0.1,0.1
						c0.1,0,0.1,0,0.2,0c0.1-0.1,0.1-0.2,0.1-0.3c0-0.1,0.1-0.2,0.2-0.3c0.1-0.1,0.2-0.1,0.4-0.1c0.1,0,0.3,0,0.4,0.2
						c0.1,0.1,0.1,0.1,0.2,0.2c0.1,0,0.1,0.1,0.2,0.2c0.1,0.1,0.2,0.3,0.3,0.4c0.1,0.1,0.2,0.3,0.3,0.4c0.1,0.1,0.2,0.2,0.3,0.3
						c0.1,0.1,0.2,0.3,0.2,0.4c0,0,0.1,0.2,0.1,0.3c0,0-0.1,0.1-0.1,0.2c0,0.1-0.1,0.2-0.1,0.2c-0.7,1.3-1.4,2.7-2,4
						c-0.6,1.3-1.4,2.7-2,4.1c0,0.1-0.1,0.2-0.1,0.3c0,0.1-0.1,0.2,0,0.3c0,0.2,0.2,0.5,0.3,0.7c0.1,0.2,0.2,0.5,0.3,0.7
						c0.2,0.3,0.3,0.6,0.5,1c0.2,0.4,0.3,0.7,0.5,1.1c0.1,0.3,0.3,0.6,0.6,0.9c0.2,0.3,0.4,0.6,0.5,0.9c0.2,0.6,0.5,1.1,0.8,1.7
						c0.3,0.6,0.5,1.3,0.8,1.7c0,0.1,0.1,0.1,0.1,0.2c0,0.1,0,0.1,0.1,0.2c0.2,0.4,0.4,0.8,0.6,1.2c0.2,0.4,0.4,0.8,0.5,1.2
						c0,0.1,0,0.3,0.1,0.4c0,0.1,0,0.2-0.1,0.3c-0.1,0.2-0.3,0.4-0.6,0.6c-0.3,0.1-0.5,0.3-0.7,0.4c-0.1,0.1-0.2,0.1-0.3,0.1
						c-0.1,0-0.2-0.1-0.3-0.1c-0.1,0-0.2-0.1-0.2-0.2c-0.1-0.1-0.1-0.2-0.2-0.3c-0.1-0.1-0.1-0.2-0.2-0.3c-0.1-0.1-0.2-0.1-0.3-0.1
						c-0.1,0-0.1,0.2-0.1,0.3c0,0,0,0,0,0c0,0.2,0,0.4,0,0.6c0,0.2-0.1,0.3-0.2,0.4c0,0-0.1,0.1-0.2,0.1c-0.1,0-0.1,0.1-0.2,0.1
						c-0.1,0.1-0.2,0.1-0.3,0.2c-0.1,0.1-0.2,0.1-0.3,0.2c-0.1,0.1-0.2,0.1-0.3,0.1c-0.1,0-0.2-0.1-0.4-0.2
						c-0.1-0.1-0.2-0.1-0.3-0.3c0-0.1-0.1-0.2-0.2-0.4c-1.6-3.2-2.8-7.7-4.6-10.7c-0.1-0.2-0.3-0.3-0.4-0.3c-0.1,0-0.3,0.2-0.3,0.3
						c0,0.1,0,0.3,0,0.3c-0.1,0.2,0,0.6,0,0.8c0,0.3,0,0.6,0,0.8c0,1-0.1,2-0.1,3c0,1-0.1,2.2,0,3c0,0.1,0,0.2,0,0.2
						c0,0.1,0,0.1,0,0.3c0,0,0,0,0,0c0,0,0,0,0,0c-0.1,0.4-0.1,0.8,0,1.1c0.1,0.4,0,0.7-0.1,1.1c0,0,0,0,0,0
						c-0.1,0.2-0.2,0.2-0.3,0.3c-0.2,0-0.3,0-0.4,0c-0.2-0.1-0.3-0.2-0.4-0.5c-0.1-0.2-0.1-0.5-0.1-0.6c0-0.1-0.1-0.2-0.2-0.1
						c-0.1,0.1-0.2,0.4-0.3,0.6c0,0.2-0.1,0.4-0.3,0.5c-0.3,0.1-0.6,0-0.9,0c-0.2,0-0.4,0-0.6,0c-0.2,0-0.4-0.2-0.5-0.3
						c0,0-0.1-0.1-0.2-0.1c0-0.1-0.1-0.2-0.1-0.3c-0.1-0.1-0.1-0.4,0-0.6c0-0.2,0-0.4-0.1-0.6c0-0.1,0-0.3,0-0.5c0-0.2,0-0.5,0-0.8
						c0-0.3,0-0.6,0-0.8c0-0.3,0-0.6,0-0.9c0-0.3,0-0.6,0-0.9c0-0.2,0-0.6,0-0.9c0-0.2-0.1-0.4,0-0.5c0-0.2,0-0.3,0-0.5
						c0-0.1,0-0.2,0-0.3c0-0.1,0-0.2,0-0.3c0-0.6,0-1.3,0-1.8c0-0.6,0.1-1.2,0-1.8c0-0.1,0-0.2,0-0.3c0-0.1,0-0.2,0-0.3
						c0-0.3,0-0.7,0-1.2c0-0.4-0.1-1,0-1.2c0,0,0,0,0-0.1c0,0,0-0.1,0-0.1c0-0.3,0-0.8,0-1.2c0-0.4,0.1-0.8,0-1.2
						c0-0.7-0.1-1.4-0.1-2.1c0.1-0.6,0.1-1.3,0.1-2c0-0.5,0.1-1,0.1-1.5c0-0.5,0.1-1,0.1-1.5c0-0.4,0-0.9,0.1-1.3
						c0.1-0.4,0.3-0.8,0.6-0.9c0.1,0,0.2,0,0.4,0c0.1,0,0.3,0.2,0.4,0.4c0.1,0.2,0.1,0.4,0,0.6c0,0.2,0,0.5,0.1,0.7
						c0,0.1,0.1,0.1,0.1,0.1c0,0,0.1,0,0.1,0c0.1,0,0.1-0.3,0.1-0.6c0-0.2,0-0.4,0.1-0.6c0.1-0.3,0.3-0.4,0.6-0.4c0.2,0,0.5,0,0.7,0
						c0.1,0,0.1,0,0.2,0c0.1,0,0.2,0,0.2,0c0,0,0.1-0.1,0.2-0.1c0.1,0,0.1-0.1,0.1-0.1c0.1-0.1,0.4-0.1,0.6-0.1c0.2,0,0.4,0,0.6,0.1
						c0.1,0,0.1,0.1,0.1,0.2c0,0.1,0.1,0.2,0.1,0.2c0.1,0.1,0,0.3,0,0.4c0,0.1,0,0.3-0.1,0.4c-0.1,0.4,0.1,0.9,0.1,1.1
						c0,0,0,0.1,0,0.2c0,0.1,0,0.1,0,0.2c0,0.1,0,0.2,0,0.3c0,0.1,0,0.2,0,0.3c0,0,0,0,0,0c-0.1,0.7-0.2,1.5-0.2,2.2
						c-0.1,0.7-0.2,1.5-0.2,2.2c0,0.1,0,0.3,0,0.4c0,0.1,0,0.3,0,0.4c0,0.1,0.2,0.2,0.3,0.2c0.1,0,0.3-0.4,0.4-0.7
						c0.1-0.3,0.2-0.5,0.3-0.7c0.5-0.8,0.9-1.9,1.3-2.9c0.4-1,1-2,1.4-2.9c0.1-0.2,0.2-0.5,0.3-0.7c0.1-0.2,0.2-0.5,0.3-0.7
						c0,0,0.1-0.1,0.2-0.2c0-0.1,0.1-0.1,0.2,0c0.1,0,0.2,0.1,0.4,0.1C209.4,140.4,209.5,140.5,209.6,140.7z"/>
					<path fill="#381324" d="M222.6,151.1c0.5,0.1,1.1,0.3,1.5,0.6c0.4,0.3,0.8,0.7,1.1,1.3c0.3,0.5,0.6,1,0.8,1.6
						c0.4,1,0.5,2,0.5,3c0,1-0.2,2-0.4,2.8c-0.1,0.5-0.3,1-0.5,1.4c-0.2,0.4-0.4,0.9-0.7,1.3c-0.1,0.2-0.3,0.4-0.5,0.6
						c-0.1,0.2-0.3,0.4-0.5,0.6c-0.1,0.1-0.1,0.1-0.2,0.2c-0.1,0.1-0.1,0.1-0.2,0.2c0,0,0,0,0,0c0,0,0,0,0,0c0,0,0,0,0,0
						c-0.1,0.1-0.2,0.2-0.3,0.2c-0.1,0-0.2,0.1-0.3,0.2c0,0,0,0,0,0c0,0,0,0,0,0c0,0,0,0,0,0c0,0,0,0,0,0c0,0,0,0,0,0c0,0,0,0,0,0
						c0,0,0,0,0,0c-0.3,0.2-0.6,0.3-1,0.4c-0.3,0.1-0.7,0.1-1.1,0.1c-0.4,0-0.7-0.1-1.1-0.3c-0.4-0.2-0.7-0.4-1-0.7
						c-0.3-0.3-0.6-0.7-0.9-1.1c-0.2-0.5-0.4-0.9-0.6-1.4c-0.3-0.9-0.4-1.8-0.4-2.8c0-1,0.1-1.8,0.3-2.7c0.1-0.3,0.2-0.6,0.2-0.9
						c0.1-0.3,0.2-0.6,0.3-0.8c0-0.1,0-0.3,0-0.4c0-0.2,0-0.3,0.1-0.4c0.3-0.5,0.6-1,1-1.4c0.4-0.4,0.8-0.7,1.3-0.9
						c0.1,0,0.2,0,0.2,0.1c0.1,0.1,0.2,0.2,0.2,0.2c0,0,0.1,0,0.1,0c0,0,0.1,0,0.1,0c0.1,0,0.1-0.2,0.1-0.3c0-0.1,0-0.2,0-0.3
						c0-0.1,0-0.2,0-0.3c0-0.1,0.2-0.2,0.3-0.2c0.1,0,0.2-0.1,0.3-0.1C221.8,151.1,222.2,151.1,222.6,151.1
						C222.6,151.1,222.6,151.1,222.6,151.1z M223,155.5c-0.2-0.2-0.4-0.4-0.6-0.6c-0.1,0-0.2-0.1-0.2-0.1c-0.1-0.1-0.2-0.1-0.2,0
						c0,0,0,0.1,0,0.2c0,0.1,0,0.1,0.1,0.2c0,0,0,0,0,0c0,0,0,0,0,0c0,0,0,0.1,0,0.1c0,0.1,0,0.2,0,0.2c0,0.1-0.1,0.1-0.1,0.1
						c-0.2,0.1-0.5,0.2-0.7,0.4c-0.2,0.2-0.4,0.4-0.6,0.6c0,0-0.1,0.1-0.1,0.2c0,0.1-0.1,0.1-0.1,0.2c-0.1,0.1-0.1,0.3-0.2,0.4
						c-0.1,0.1-0.1,0.3-0.2,0.4c0,0-0.1,0.1-0.1,0.1c0,0,0,0.1,0,0.1c0,0,0,0,0,0c0,0,0,0,0,0c0,0,0,0,0,0c0,0,0,0.1,0,0.1
						c0,0,0,0.1,0,0.1c0,0.2-0.1,0.4-0.1,0.6c0,0.2,0,0.4-0.1,0.7c0,0.1,0,0.1,0,0.2c0,0.1,0,0.1,0,0.1c0,0.1,0,0.1,0,0.2
						c0,0.1,0,0.1,0,0.1c0,0,0,0,0,0c0,0.1,0,0.3,0,0.4c0,0.2,0.1,0.3,0.1,0.4c0,0,0,0,0,0c0,0.2,0.1,0.4,0.2,0.6
						c0.1,0.2,0.3,0.4,0.4,0.5c0.2,0.2,0.4,0.3,0.7,0.3c0.3,0,0.5,0,0.7-0.1c0.3-0.1,0.6-0.4,0.7-0.7c0.2-0.4,0.3-0.7,0.5-1.1
						c0.2-0.6,0.3-1.3,0.4-2c0.1-0.7,0.1-1.4-0.1-2.2C223.2,156,223.1,155.7,223,155.5z M221.4,152.7c0,0-0.1,0.1-0.2,0.1
						c-0.1,0-0.1,0.1-0.1,0.1c0,0.1,0,0.1,0,0.2c0,0,0.1,0,0.1,0c0,0,0.1,0,0.1,0c0,0,0.1-0.1,0.2-0.1c0.1,0,0.1-0.1,0.1-0.2
						C221.6,152.8,221.5,152.7,221.4,152.7z"/>
					<path fill="#381324" d="M231.8,150.3c0.1,0,0.2,0,0.3,0c0.1,0,0.2,0,0.3,0c0.1,0,0.2,0,0.4,0c0.1,0,0.3,0,0.4,0
						c0,0,0.1,0,0.1,0c0,0,0.1,0,0.1,0c0,0,0,0,0,0c0.5,0.1,1,0.2,1.5,0.5c0.5,0.2,1,0.9,1.3,1.2c0,0,0.1,0,0.1,0.1
						c0,0,0.1,0.1,0.1,0.1c0.3,0.2,0.5,0.8,0.6,1.3c0.1,0.4,0.2,0.9,0.3,1.4c0.1,0.9-0.1,1.7-0.3,2.5c-0.3,0.8-0.7,1.4-1.2,1.9
						c0,0-0.1,0.1-0.1,0.1c0,0.1,0,0.1,0,0.2c0,0.1,0.1,0.3,0.1,0.4c0.1,0.1,0.1,0.2,0.2,0.4c0.1,0.2,0.2,0.4,0.3,0.6
						c0.1,0.2,0.2,0.4,0.3,0.6c0.2,0.5,0.4,0.9,0.6,1.4c0.2,0.5,0.4,0.9,0.5,1.4c0.1,0.3,0.2,0.6,0.3,0.9c0.1,0.3,0.3,0.6,0.3,0.9
						c0,0.1-0.1,0.3-0.2,0.3c-0.2,0-0.3,0.1-0.5,0.1c-0.2,0-0.4,0.1-0.5,0.1c-0.1,0-0.2-0.1-0.3-0.1c-0.1-0.1-0.2-0.1-0.3-0.1
						c-0.1,0-0.1,0.1-0.1,0.2c0,0.1,0,0.2-0.1,0.2c0,0-0.1,0-0.2,0c-0.1,0-0.1,0-0.2-0.1c-0.1-0.1-0.1-0.1-0.1-0.2
						c-0.3-0.6-0.5-1.3-0.9-1.7c-0.1-0.1-0.2-0.2-0.2-0.3c-0.1-0.1-0.1-0.2-0.2-0.4c-0.3-0.6-0.7-1.3-1-1.9
						c-0.3-0.6-0.7-1.4-1.1-1.9c0,0-0.1-0.1-0.2,0c-0.1,0-0.1,0.1-0.1,0.3c0,0.1,0,0.2,0,0.3c-0.1,0.5-0.1,1.1-0.1,1.7
						c0,0.6,0,1.2-0.1,1.7c0,0.1,0,0.2-0.1,0.3c0,0.1-0.1,0.2-0.1,0.3c0,0.1,0,0.2,0,0.3c0,0.1,0,0.2,0,0.3c0,0.1,0,0.2,0,0.3
						c0,0.1,0,0.2,0,0.3c0,0,0,0,0,0c0,0,0,0,0,0c0,0,0,0,0,0c0,0,0,0.1,0,0c0,0-0.1,0-0.1,0c0,0.1-0.1,0.1-0.1,0.1
						c-0.1,0-0.1,0-0.2,0c0,0-0.1,0-0.1,0c-0.1,0-0.1,0-0.1-0.1c0-0.1-0.1-0.2-0.1-0.3c0-0.1,0-0.3-0.1-0.3c0-0.1-0.1-0.1-0.2,0
						c0,0.1,0,0.1-0.1,0.2c0,0.1,0,0.1,0,0.2c0,0.1,0,0.2,0,0.3c0,0.1-0.1,0.2-0.1,0.2c0,0,0,0,0,0c-0.1,0-0.2,0-0.4,0
						c-0.1,0-0.3-0.1-0.4-0.1c-0.1,0-0.2,0-0.4-0.1c-0.1-0.1-0.2-0.3-0.2-0.5c0-0.2,0-0.3,0-0.5c0-0.5,0-0.9,0-1.3
						c0-0.1,0-0.3,0-0.5c0-0.2,0-0.3,0-0.5c0-0.6,0-1.3,0-1.9c0-0.6,0-1.2,0-1.8c0-0.2,0-0.4-0.1-0.6c-0.1-0.2-0.1-0.4-0.1-0.6
						c0-0.1,0-0.3,0-0.4c0-0.1,0-0.3,0-0.4c0,0,0,0,0,0c0,0,0,0,0,0c-0.1-0.2,0-0.6,0-1c0-0.3,0-0.7,0-1c0-0.2,0.2-0.4,0.3-0.5
						c0.1,0,0.2-0.1,0.2-0.1c0.1,0,0.2,0,0.3-0.1c0.1,0,0.1-0.1,0.1-0.2c0-0.1-0.1-0.2-0.2-0.2c0,0-0.1,0-0.1,0c0,0-0.1,0-0.1,0
						c0,0,0,0,0,0c0,0,0,0,0,0c0,0-0.1,0-0.1,0c0,0,0,0,0,0c-0.1,0-0.2,0-0.2,0c0,0,0,0,0,0c0,0,0,0,0,0c0,0-0.1,0-0.1,0
						c0,0,0,0-0.1,0c0,0-0.1,0-0.2,0c-0.1,0-0.1-0.1-0.2-0.2c0-0.1-0.1-0.2-0.1-0.3c0-0.1,0-0.2,0-0.3c0-0.1,0.1-0.2,0.1-0.2
						c0.1,0,0.1-0.1,0.2-0.1c0,0,0.1,0,0.1,0c0,0,0.1-0.1,0.1-0.1c0,0,0-0.1,0-0.1c-0.1,0-0.2-0.1-0.2-0.2c-0.1-0.1-0.1-0.2-0.1-0.3
						c0-0.1,0-0.3,0-0.4c0-0.2-0.1-0.3-0.1-0.4c0-0.2,0-0.4,0-0.5c0-0.2,0-0.4,0-0.5c0,0,0,0,0-0.1c0,0,0,0,0,0c0,0,0-0.1,0.1-0.1
						c0.1,0,0.1,0,0.1,0c0.1-0.1,0.5,0,0.7-0.1c0.2,0,0.5,0,0.7,0c0.2,0,0.4,0,0.5,0c0.2,0,0.5-0.1,0.6,0c0,0,0.1,0,0.1,0
						c0,0,0.1,0,0.1,0C231.6,150.3,231.8,150.3,231.8,150.3z M231.9,154.4C231.9,154.4,231.9,154.4,231.9,154.4
						C231.9,154.4,231.9,154.4,231.9,154.4C231.8,154.4,231.8,154.4,231.9,154.4c-0.1,0-0.1,0-0.1,0c0,0,0,0,0,0
						c-0.1,0.1-0.1,0.2-0.1,0.3c0,0.1,0,0.3,0,0.4c0,0,0,0.1,0.1,0.1c0,0,0,0,0,0c0,0,0,0,0,0c0-0.1,0-0.1,0.1-0.2c0,0,0-0.1,0-0.1
						c0,0,0-0.1,0-0.1c0,0,0-0.1,0.1-0.2c0-0.1,0-0.1,0-0.2c0,0,0-0.1,0-0.1C232,154.5,232,154.5,231.9,154.4
						C232,154.4,231.9,154.4,231.9,154.4z M233,154.2c-0.1,0-0.2,0.1-0.2,0.2c0,0.1,0,0.2,0,0.2c0,0.1,0,0.2,0,0.2
						c0,0.2-0.1,0.4-0.1,0.6c0,0.2,0,0.4-0.1,0.7c0,0.3,0,0.5-0.1,0.8c0,0.2,0,0.5-0.1,0.8c0,0.1,0,0.2,0.1,0.2
						c0.1,0,0.1,0.1,0.2,0.1c0.1,0,0.2-0.1,0.3-0.1c0.1,0,0.2-0.1,0.3-0.1c0.2-0.1,0.4-0.4,0.5-0.6c0.2-0.2,0.3-0.4,0.4-0.7
						c0.1-0.3,0.1-0.6,0.1-0.9c0-0.3-0.2-0.6-0.4-0.9c0-0.1-0.1-0.1-0.1-0.1c-0.1,0-0.1-0.1-0.2-0.1c-0.1-0.1-0.1-0.1-0.2-0.1
						c-0.1,0-0.2-0.1-0.2-0.1C233.1,154.2,233,154.2,233,154.2z"/>
					<path fill="#381324" d="M247.8,139.4c0.7,0,1.9,0.1,2.1-0.1c0,0,0-0.1,0.1,0c0,0,0.1,0,0.1,0c0.2-0.1,1,0,1.5,0
						c0.5,0,1.2-0.1,1.6,0c0.3,0.1,0.5,0.3,0.6,0.7c0,0.4,0,0.6,0,0.9c0.1,0.3,0.2,0.5,0.3,0.8c0.1,0.2,0.2,0.5,0.1,0.8
						c0,0.2,0,0.5,0,0.8c0,0.3,0,0.5,0,0.7c0,0,0,0,0.1,0c0,0.1-0.1,0.1-0.1,0.1c-0.1,0-0.1,0.1-0.1,0.1c0,0,0,0,0,0
						c-0.1,0-0.1,0-0.1,0c0,0,0,0-0.1,0c-0.2,0-0.3,0.1-0.4,0.1c-0.1,0-0.3,0.2-0.3,0.3c0,0.1,0,0.2,0.2,0.4c0,0,0,0,0,0
						c0.1,0.1,0.1,0.2,0.2,0.3c0.1,0.1,0.1,0.2,0.1,0.3c0,0.2,0,0.4-0.1,0.6c-0.2,0.2-0.6,0.3-0.9,0.2c-0.4,0-0.7,0-1,0
						c-0.4,0-0.8,0-1.2,0c-0.4,0-0.9-0.1-1.2,0c0,0-0.1,0-0.2,0.1c-0.1,0-0.1,0.1-0.1,0.2c0,0.2,0.1,0.4,0.3,0.4
						c0.2,0,0.3,0.1,0.5,0.3c0,0,0,0,0,0c0,0.1,0.1,0.1,0.1,0.1c0.1,0,0.1,0.1,0.1,0.2c0,0,0,0-0.1,0c0.2,0.2,0.3,0.4,0.3,0.6
						c0,0.2,0,0.5,0,0.7c0,0.8-0.1,1.7-0.1,2.5c0,0.8-0.1,1.7-0.1,2.4c0,0.2,0.1,0.4,0.1,0.7c0.1,0.2,0.1,0.5,0.1,0.7
						c0,0.3-0.1,0.7-0.1,1c0,0.3,0,0.7,0,1c0,2.2,0,3.3-0.1,5.4c0,0.7,0,1.5,0,2.2c0,0.7-0.2,1.7,0,2.2c0,0,0,0.1,0,0.2
						c0,0.1-0.1,0.1,0,0.2c0,0,0,0,0,0c-0.1,0.2-0.3,0.4-0.6,0.4c-0.3,0-0.7,0.1-0.9,0c-0.1,0-0.2-0.1-0.2-0.2
						c0-0.1-0.1-0.1-0.2-0.2c-0.1-0.2-0.1-0.6-0.1-0.9c0-0.3-0.1-0.6-0.3-0.8c-0.1-0.1-0.2-0.1-0.3,0c-0.1,0.2-0.2,0.3-0.2,0.5
						c0,0.2,0,0.4,0,0.6c0,0,0,0,0.1,0c0,0,0,0,0,0c0,0.1,0,0.1,0,0.2c0,0.1-0.1,0.1,0,0.2c0,0.3-0.1,0.5-0.3,0.6
						c-0.2,0.1-0.6,0.1-0.9,0.1c-0.3,0-0.6,0-0.9,0c-0.3,0-0.6-0.2-0.7-0.5c-0.1-0.2-0.1-0.4-0.2-0.6c0-0.2-0.1-0.4-0.1-0.6
						c-0.1-1.6-0.3-3.2-0.4-4.7c-0.1-1.5-0.4-3.2-0.4-4.7c0-0.1,0-0.2,0-0.4c0-0.1,0-0.3,0-0.4c0-0.2,0-0.3,0-0.5
						c0-0.2,0.1-0.5,0-0.5c0,0-0.1-0.1-0.1-0.2c0-0.1-0.1-0.1-0.1-0.1c0,0,0.1-0.1,0-0.2c0-0.1,0-0.1,0-0.2
						c-0.1-0.8-0.1-1.8-0.1-2.7c0-0.9-0.3-2.1-0.1-2.7c0,0,0-0.1,0-0.2c0-0.1,0-0.1,0-0.2c0-0.2,0-0.6,0-0.9c0-0.3,0-0.7-0.2-0.8
						c-0.1-0.1-0.1-0.1-0.2-0.2c0-0.1-0.1-0.1-0.2-0.1c-0.4-0.1-0.9,0-1.3,0.1c-0.4,0.1-1,0.1-1.3,0c-0.1,0-0.1-0.1-0.1,0
						c0,0,0,0-0.1,0c0,0-0.1-0.1-0.1-0.1s-0.1-0.1-0.1-0.1c-0.1-0.2-0.2-0.4-0.3-0.6c-0.2-0.2-0.3-0.4-0.3-0.6c0-0.1,0-0.3,0-0.5
						c0-0.2,0-0.3,0.2-0.4c0.3-0.1,0.6-0.2,0.9-0.1c0.3,0,0.6-0.1,0.8-0.2c0.1-0.1,0.1-0.2,0-0.3c-0.1-0.1-0.3-0.2-0.4-0.2
						c-0.1,0-0.3,0-0.4-0.1c0,0,0,0,0,0c-0.1-0.1-0.1-0.1-0.2-0.1c0,0,0,0,0,0c0,0,0,0-0.1-0.1c0-0.1-0.1,0-0.1,0c0,0,0-0.1,0,0
						c0,0,0,0-0.1,0c-0.3-0.2-0.7-0.6-0.7-1c0-0.4,0-0.8-0.1-1.2c-0.1-0.4,0-0.8,0.2-1.1c0,0,0,0,0.1,0c0,0,0.1-0.1,0.1-0.1
						c0.2-0.2,1.1-0.2,1.6-0.2c0.5,0,1.1,0,1.6-0.1c0.4,0,0.8,0,1.2,0c0.4,0,0.8-0.1,1.2-0.1c0.1,0,0.3,0,0.5,0c0.2,0,0.3,0,0.5,0
						C246.4,139.5,247.1,139.5,247.8,139.4z M239.8,143.5C239.7,143.5,239.7,143.5,239.8,143.5C239.7,143.5,239.7,143.5,239.8,143.5
						C239.7,143.5,239.7,143.5,239.8,143.5z M247.6,146.6c-0.2,0-0.3,0-0.3,0.2c0,0.2-0.1,0.4-0.1,0.5c0,0.1,0,0.4,0,0.5
						c0,0.2,0.1,0.4,0.2,0.5c0.1,0.1,0.1,0.1,0.2,0c0,0,0.1-0.1,0.1-0.1c0.3-0.4,0.3-0.9,0.1-1.4
						C247.7,146.7,247.6,146.6,247.6,146.6z"/>
					<path fill="#381324" d="M261.9,141c0.1,0,0.3-0.1,0.5-0.1c0.2,0,0.4,0,0.5,0c0.2,0,0.4,0,0.6,0c0.2,0,0.5,0,0.6,0
						c0.1,0,0.2-0.1,0.2,0c0.1,0.1,0.2,0.1,0.2,0c0,0,0,0,0,0.1c0.9,0,1.8,0.2,2.7,0.5c0.9,0.3,1.8,1.3,2.4,1.7c0,0,0.1,0.1,0.1,0.1
						c0,0.1,0.1,0.1,0.1,0.1c0.5,0.3,0.9,1.3,1.2,2c0.3,0.7,0.6,1.5,0.7,2.3c0.3,1.4,0.2,2.8-0.2,4.2c-0.4,1.3-1,2.5-1.7,3.4
						c-0.1,0.1-0.1,0.1-0.1,0.2s0,0.2,0,0.3c0,0.2,0.1,0.4,0.3,0.6c0.1,0.2,0.2,0.4,0.3,0.6c0.2,0.3,0.4,0.7,0.6,1
						c0.2,0.3,0.4,0.7,0.6,1c0.4,0.7,0.8,1.5,1.3,2.2c0.4,0.7,0.8,1.5,1.2,2.2c0.2,0.5,0.5,0.9,0.7,1.4c0.3,0.5,0.6,1,0.7,1.4
						c0.1,0.2-0.1,0.5-0.4,0.6c-0.3,0.1-0.6,0.2-0.9,0.3c-0.3,0.1-0.7,0.3-0.9,0.3c-0.1,0-0.3-0.1-0.5-0.2c-0.1-0.1-0.3-0.1-0.5,0
						c-0.1,0-0.1,0.2-0.1,0.3c0,0.1,0,0.3-0.1,0.3c-0.1,0-0.2,0-0.4,0.1c-0.1,0-0.2,0-0.4-0.1c-0.1-0.1-0.2-0.1-0.3-0.2
						c-0.6-0.9-1.1-2.1-1.8-2.7c-0.1-0.1-0.3-0.3-0.5-0.5c-0.1-0.2-0.3-0.4-0.4-0.6c-0.7-0.9-1.3-2-2-3c-0.7-1-1.4-2.2-2.1-2.9
						c-0.1-0.1-0.2-0.1-0.3,0c-0.1,0.1-0.1,0.3-0.1,0.4c0,0.2,0,0.3,0,0.4c-0.1,0.9,0,1.9,0.1,2.8c0,0.9,0.1,1.9,0.2,2.8
						c0,0.2,0,0.4-0.1,0.5c0,0.2-0.1,0.4-0.1,0.5c0,0.1,0.1,0.3,0.1,0.5c0,0.2,0,0.4,0,0.5c0,0.1,0,0.3,0,0.5c0,0.2,0,0.3,0,0.5
						c0,0,0,0-0.1,0c0,0,0,0,0,0c0,0,0,0,0,0c0.1,0.1,0.1,0.1,0,0.1c-0.1,0-0.1,0-0.1,0c0,0.1-0.1,0.2-0.2,0.1c-0.1,0-0.2,0-0.3,0
						c-0.1,0-0.2,0-0.2,0c-0.1,0-0.2,0-0.2-0.2c-0.1-0.1-0.1-0.3-0.2-0.5c0-0.2-0.1-0.4-0.2-0.6c-0.1-0.1-0.3-0.2-0.3-0.1
						c-0.1,0.1-0.1,0.2-0.1,0.4c0,0.1,0,0.2,0,0.4c0,0.2,0,0.3,0,0.5c0,0.2-0.1,0.3-0.2,0.3c0,0,0,0,0,0.1c-0.2,0.1-0.4,0.1-0.7,0.1
						c-0.2,0-0.5-0.2-0.7-0.2c-0.2,0-0.4,0-0.7-0.2c-0.2-0.2-0.3-0.4-0.4-0.7c0-0.3-0.1-0.6-0.1-0.8c-0.1-0.8-0.1-1.5-0.2-2.1
						c0-0.2-0.1-0.5-0.1-0.8c0-0.3-0.1-0.5-0.1-0.7c-0.2-1-0.2-2.1-0.3-3.1c-0.1-1-0.2-2-0.2-3c0-0.3-0.1-0.7-0.3-1
						c-0.2-0.3-0.2-0.7-0.2-1c0-0.2,0-0.4,0-0.6c0-0.2,0-0.6,0-0.6c0,0-0.1,0,0-0.1c0,0,0,0,0-0.1c-0.1-0.3-0.1-1-0.1-1.6
						c0-0.5-0.1-1.1-0.1-1.6c0-0.4,0.2-0.8,0.4-0.9c0.1-0.1,0.3-0.1,0.4-0.2c0.1,0,0.3-0.1,0.4-0.1c0.1-0.1,0.1-0.2,0.1-0.4
						c-0.1-0.2-0.2-0.3-0.3-0.3c-0.1,0-0.1,0-0.2,0c0,0-0.1,0-0.2,0c0,0,0,0,0,0c0-0.1,0-0.1-0.1,0c0,0-0.1,0-0.2,0c0,0,0,0,0,0
						c-0.1,0-0.3,0-0.3,0c0,0-0.1-0.1-0.1,0c0,0-0.1,0-0.1,0c0,0-0.1,0.1-0.1,0.1c0,0-0.1,0-0.1,0c-0.1,0-0.3,0-0.4,0
						c-0.1,0-0.2-0.2-0.3-0.3c-0.1-0.1-0.2-0.3-0.1-0.4c0-0.2,0-0.3,0-0.4c0-0.1,0.1-0.3,0.2-0.3c0.1,0,0.2-0.2,0.3-0.2
						c0,0,0.1,0,0.2-0.1c0-0.1,0.1-0.1,0.1-0.2c0-0.1,0-0.2-0.1-0.2c-0.1-0.1-0.3-0.1-0.4-0.2c-0.1-0.1-0.3-0.3-0.3-0.5
						c0-0.2-0.1-0.4-0.1-0.6c0-0.3-0.2-0.5-0.2-0.6c-0.1-0.2-0.1-0.6-0.1-0.9c0-0.3-0.1-0.7,0-0.8c0,0,0.1-0.1,0-0.2
						c0-0.1,0.1-0.1,0.1-0.1c0,0,0.1-0.2,0.2-0.2c0.1,0,0.1-0.1,0.2-0.1c0.2-0.1,0.8-0.1,1.2-0.2c0.4,0,0.8-0.1,1.2-0.2
						c0.3,0,0.6-0.1,0.9-0.1c0.3,0,0.8-0.2,1-0.1c0,0,0.1,0,0.2,0c0.1,0,0.1,0,0.2,0C261.5,141,261.8,141,261.9,141z M262.6,147.7
						C262.6,147.7,262.5,147.7,262.6,147.7c-0.1,0-0.1,0.1-0.1,0c0,0,0,0,0,0c0,0,0,0,0,0c0,0,0,0,0,0c-0.2,0.1-0.2,0.3-0.2,0.6
						c0.1,0.2,0.1,0.5,0.1,0.7c0,0.1,0.1,0.1,0.2,0.2c0,0,0,0,0,0c0,0,0,0,0.1,0c0-0.1,0.1-0.2,0.1-0.3c-0.1,0-0.1-0.1,0-0.1
						c0,0,0-0.1,0-0.2c0-0.1,0-0.2,0.1-0.3c0-0.1-0.1-0.2-0.1-0.3c0,0,0.1-0.1,0.1-0.1c0,0,0-0.1,0-0.1
						C262.7,147.7,262.6,147.6,262.6,147.7z M264.3,147.3c-0.2,0-0.4,0.2-0.4,0.3c0,0.1,0,0.2,0,0.4c0,0.1,0,0.3,0,0.4
						c0,0.3,0,0.7,0,1c0,0.4,0,0.7,0,1.1c0,0.4,0,0.9,0,1.3c0,0.4,0,0.8,0,1.3c0,0.2,0,0.3,0.2,0.3c0.1,0.1,0.2,0.1,0.3,0.1
						c0.1,0,0.4-0.1,0.5-0.2c0.2-0.1,0.3-0.2,0.5-0.3c0.3-0.3,0.6-0.6,0.8-1c0.3-0.4,0.4-0.8,0.5-1.2c0.1-0.5,0.1-1,0-1.5
						c-0.1-0.5-0.4-1-0.7-1.4c-0.1-0.1-0.2-0.2-0.3-0.2c-0.1,0-0.2-0.1-0.3-0.2c-0.1-0.1-0.3-0.1-0.4-0.2c-0.1,0-0.3-0.1-0.4-0.1
						C264.6,147.3,264.4,147.3,264.3,147.3z"/>
					<path fill="#381324" d="M284.5,137.9C284.5,137.9,284.5,137.9,284.5,137.9c0.2,0,0.3,0,0.5,0.1c0.1,0.1,0.3,0.2,0.4,0.4
						c0,0.1,0.1,0.1,0.1,0.2c0,0,0,0.1,0.1,0.2c0,0,0,0,0,0c0,0,0,0,0,0.1c0,0.2,0.1,0.5,0.1,0.7c0,0.2,0.1,0.5,0.1,0.7c0,0,0,0,0,0
						c0.1,0.2,0.1,0.4,0,0.5c0,0.2-0.1,0.3-0.1,0.5c-0.1,0.4-0.7,0.8-0.7,0.9c0,0,0,0.1,0,0.1c0,0,0,0.1,0,0.1
						c0,0.1,0.1,0.2,0.2,0.2c0.1,0,0.3,0.2,0.5,0.2c0,0,0.1,0,0.1,0.1c0.1,0.1,0.1,0.1,0.2,0.2c0.1,0.2,0.2,0.5,0.2,0.8
						c0,0.3,0.1,0.6,0,0.8c0,0-0.1,0.1-0.1,0.1c0,0.1-0.1,0.1-0.1,0.1c-0.1,0-0.2,0.1-0.3,0.1c-0.1,0-0.3,0-0.4,0
						c-0.7,0-1.5,0.2-2.2,0.3c-0.7,0.1-1.6,0.1-2.2,0.2c-0.1,0-0.3,0.1-0.5,0.1c-0.2,0-0.4,0.1-0.4,0.3c0,0.1,0,0.2,0,0.2
						c0,0,0,0.1,0,0.2c0,0,0,0,0,0c0,0.1,0,0.2,0,0.3c0,0.1,0.1,0.2,0.1,0.3c0,0-0.1,0.1,0,0.1c0,0,0.1,0.1,0.1,0.1
						c0,0,0.2,0.1,0.2,0.1c0.1,0,0.1-0.2,0.1-0.4c0-0.1,0-0.3,0.1-0.4c0-0.1,0.1-0.2,0.2-0.3c0.1-0.1,0.2-0.1,0.4-0.1
						c0,0,0.1,0,0.1,0.1c0,0,0,0,0-0.1c0.2,0.1,0.5,0.3,0.5,0.5c0,0.1,0,0.3,0,0.4c0,0.1,0,0.2,0,0.3c0,0.1,0,0.3,0,0.4
						c0,0.1,0,0.3,0,0.4c0,0.2,0,0.4,0,0.7c0,0.3,0,0.5,0,0.7c0,0.1,0,0.2,0.1,0.3c0.1,0.3,0.2,0.5,0.3,0.5c0.1,0,0.4-0.1,0.5-0.1
						c0.2,0,0.4-0.1,0.5-0.1c0.1,0,0.2,0,0.4,0c0.1,0,0.3-0.1,0.4-0.1c0.2,0,0.4,0,0.7-0.1c0.2,0,0.5-0.1,0.7-0.1c0.1,0,0.1,0,0.2,0
						c0.1,0,0.1,0.1,0.2,0.1c0,0,0.1,0.1,0.1,0.2c0.1,0.1,0,0.2,0,0.2c0,0,0,0.1,0,0.1c0,0.1,0,0.1,0,0.2c0,0.1,0,0.1,0,0.2
						c0,0,0,0.1,0,0.1c0,0.1-0.1,0.3-0.1,0.6c0,0.1,0.1,0.1,0.1,0.1c0,0,0,0,0,0c0,0,0,0,0,0.1c0-0.1,0,0,0.1,0
						c0.1,0.3,0.3,0.6,0.3,0.9c0.1,0.5,0.1,1-0.1,1.3c-0.1,0.1-0.3,0.2-0.5,0.2c-0.2,0-0.4,0.1-0.5,0.2c-0.1,0.1-0.4,0.2-0.5,0.4
						c-0.1,0.2-0.3,0.3-0.6,0.3c-0.3,0-0.6,0.1-0.9,0.1c-0.3,0.1-0.6,0.1-0.9,0.1c-0.1,0-0.2,0-0.3,0.1c-0.1,0.1-0.2,0.2-0.2,0.3
						c-0.1,0.3,0,0.9,0,1.3c0,0.4,0.1,0.9,0.1,1.3c0,0.2,0,0.4,0,0.6c0,0.2,0.1,0.4,0.2,0.5c0.1,0,0.2,0.1,0.3,0.1
						c0.1,0,0.2,0,0.3,0c0.1,0,0.1,0,0.1,0c0,0,0.1,0,0.1-0.1c0,0,0,0,0,0c0.3,0,0.6,0,0.9-0.1c0.3-0.1,0.7-0.1,0.9-0.1
						c0.1,0,0.2-0.1,0.3-0.1c0.1,0,0.2,0,0.3-0.1c0.3-0.1,0.7-0.1,1.1-0.1c0.3-0.1,0.7-0.1,1.1-0.1c0,0,0,0,0,0.1c0,0,0,0,0,0
						c0,0,0,0,0,0c0,0,0,0,0,0c0.1,0,0.2,0.1,0.2,0.2c0.1,0.1,0.2,0.2,0.2,0.2c0.1,0.2,0.1,0.7,0.1,1c0,0.3,0.1,0.7,0.1,1
						c0,0.1-0.1,0.3-0.1,0.4c-0.1,0.1-0.1,0.3,0,0.5c0.1,0.1,0.2,0.2,0.2,0.4c0.1,0.1,0.1,0.3,0.2,0.4c0,0,0,0-0.1,0
						c0,0.2,0,0.5,0,0.7c0,0.2,0,0.5-0.1,0.7c0,0.1-0.1,0.1-0.1,0.2c0,0.1-0.1,0.1-0.2,0.1c-0.1,0-0.2,0.1-0.3,0.1
						c-0.1,0-0.2,0.1-0.3,0.1c-0.3,0.1-0.7,0.1-1.1,0.1c-0.3,0-0.7,0.1-1.1,0.2c-0.2,0-0.4,0-0.6,0c-0.2,0-0.4,0.1-0.6,0.1
						c-0.2,0-0.4,0-0.7,0c-0.2,0-0.5-0.2-0.6-0.3c-0.1-0.1-0.2,0-0.3,0c-0.1,0.2-0.2,0.3-0.4,0.4c-0.2,0.1-0.4,0.1-0.5,0.2
						c0,0,0,0,0,0c-0.5,0.1-1,0.2-1.5,0.2c-0.5,0-1.1,0.2-1.5,0.2c-0.3,0-0.6-0.1-0.8-0.4c0,0,0,0,0,0c0-0.1,0-0.2-0.1-0.3
						c-0.1-0.2-0.1-0.5-0.1-0.7c0-0.3-0.1-0.5-0.1-0.7c-0.1-0.4-0.1-0.9-0.2-1.5c-0.1-0.5-0.2-1.1-0.2-1.5c0-0.5-0.1-0.9-0.2-1.4
						c-0.1-0.5-0.1-0.9-0.2-1.4c0-0.4-0.1-0.8-0.1-1.3c0-0.4-0.1-0.9-0.2-1.3c0-0.1,0-0.3,0-0.4c0-0.2-0.1-0.3-0.1-0.5
						c0-0.8-0.2-1.8-0.3-2.7c-0.1-0.9-0.1-1.9-0.2-2.7c0-0.3,0-0.4,0.2-0.6c0.2-0.1,0.3-0.3,0.3-0.5c0.1-0.2,0-0.5,0-0.8
						c0-0.3-0.1-0.5-0.1-0.8c0-0.1,0-0.2,0-0.3c0-0.1-0.1-0.2-0.2-0.3c-0.2-0.1-0.4-0.1-0.6,0c-0.2,0.1-0.5,0.1-0.6,0c0,0,0,0,0,0
						c0,0,0,0,0,0c0,0.1,0,0.1-0.1,0c0,0-0.1,0-0.1,0c0,0,0-0.1-0.1-0.1c0,0,0,0,0,0c0,0-0.1,0-0.1-0.1c0,0,0-0.1,0-0.1c0,0,0,0,0,0
						c-0.1-0.1-0.1-0.3-0.1-0.4c0-0.1,0-0.3-0.1-0.4c0-0.1,0-0.2,0-0.3c0-0.1,0-0.2,0-0.4c0,0,0,0,0,0c0-0.1,0-0.1,0-0.1
						c0,0-0.1,0,0,0c0,0,0,0,0,0c0-0.1,0.1-0.2,0.2-0.3c0.1,0,0.2-0.2,0.2-0.3c0,0,0-0.1,0-0.1c0,0,0-0.1,0-0.1
						c-0.1-0.1-0.3-0.1-0.4-0.2c-0.2-0.1-0.3-0.2-0.3-0.4c-0.1-0.4-0.2-0.8-0.2-1.2c0-0.4-0.1-0.9-0.1-1.2c0-0.2,0.2-0.3,0.4-0.4
						c0.2-0.1,0.3-0.2,0.5-0.2c0.2,0,0.4-0.1,0.6-0.1c0.2,0,0.4-0.1,0.6-0.1c0.2-0.1,0.4-0.2,0.6-0.4c0.2-0.2,0.4-0.2,0.6-0.2
						c0.1,0,0.2,0,0.2,0c0,0,0.1,0,0.2,0c0,0,0,0,0,0c0,0,0,0,0,0c0,0,0,0,0,0c0,0.1,0,0.1,0,0c0,0,0,0,0,0c0,0,0.1,0,0.1,0
						c0.1,0,0.1,0,0.2,0c0.2-0.1,0.6-0.1,0.8-0.1c0.3,0,0.6-0.1,0.9-0.2c0.7-0.1,1.6-0.2,2.5-0.4C282.8,138.1,283.6,138,284.5,137.9
						z"/>
					<path fill="#381324" d="M302.1,139.9c0.5,1.3,0.9,2.6,1.4,3.8c0.2,0.5,0.4,1.1,0.6,1.6c0.2,0.5,0.4,1.1,0.6,1.6
						c0,0,0,0.1,0,0.1c0.1,0.3,0.3,0.6,0.4,1c0.1,0.3,0.3,0.7,0.3,1c0,0,0,0.1,0.1,0.2c0,0.1,0.1,0.1,0.1,0.2c0.1,1.2,1,2.9,1.4,4.3
						c0.4,1.4,1,2.8,1.3,4.3c0,0.2,0.1,0.3,0.1,0.5c0,0.1,0.1,0.4,0.1,0.5c0,0,0.1,0.1,0,0.1c0,0,0,0.1,0.1,0.1
						c0.1,0.1,0.1,0.2,0,0.2c0,0.1,0,0.2,0,0.2c0,0,0,0.1,0,0.2c0,0.1-0.1,0.1-0.1,0.2c-0.2,0.1-0.3,0.1-0.5,0
						c-0.2-0.1-0.3-0.3-0.4-0.4c-0.1-0.1-0.3,0-0.3,0.1c0,0.1-0.1,0.3-0.1,0.4c-0.1,0.1-0.3,0.3-0.3,0.3c0,0,0,0,0,0
						c-0.1,0-0.1,0-0.1,0c-0.3,0.1-0.5,0.1-0.9,0.1c-0.3,0-0.6,0.1-0.7,0.4c0,0,0,0-0.1,0c0,0-0.1,0-0.1,0c0,0,0,0,0,0.1
						c0,0,0,0,0,0c0,0,0-0.1,0-0.1c0,0-0.1,0.1-0.1,0.1c0,0-0.1,0-0.1,0.1c0,0-0.2,0-0.4,0c-0.1,0-0.3,0-0.4-0.1
						c-0.1-0.1-0.1-0.2-0.2-0.2c-0.1-0.1-0.2-0.1-0.2-0.2c-0.3-0.4-0.4-1-0.6-1.5c-0.2-0.5-0.3-1-0.5-1.4c-0.1-0.2-0.2-0.2-0.3-0.2
						c-0.1,0-0.3-0.1-0.4-0.1c-0.2,0-0.6,0.1-0.9,0.2c-0.3,0-0.7,0.1-0.8,0.3c-0.1,0.1-0.1,0.2-0.2,0.2c-0.1,0-0.2,0.1-0.3,0.2
						c-0.3,0.2-0.9,0.2-1.4,0.3c-0.5,0.1-1.2,0.1-1.4,0.3c-0.1,0-0.1,0.2-0.2,0.2c-0.1,0.1-0.1,0.2-0.1,0.3c0,0.4-0.1,0.9-0.2,1.3
						c-0.1,0.4-0.1,0.9-0.2,1.3c0,0.1-0.1,0.2-0.2,0.3c-0.1,0.1-0.1,0.2-0.2,0.3c0,0-0.1,0-0.1-0.1c0,0,0,0-0.1,0c0,0,0.1,0,0.1,0.1
						c0,0-0.1,0-0.1,0c0,0,0,0,0,0c0,0,0,0,0,0c0,0-0.2,0.1-0.3,0.1c-0.1,0-0.2,0-0.3,0c-0.1,0-0.2,0-0.3-0.1c-0.1,0-0.2,0-0.3,0.1
						c0,0.1-0.1,0.2-0.2,0.2c-0.1,0-0.2,0-0.3,0c-0.1,0-0.3-0.1-0.5-0.2c-0.1-0.1-0.3-0.1-0.4,0c-0.1,0.1-0.3,0.3-0.5,0.4
						c-0.2,0.1-0.4,0.1-0.7,0c-0.1,0-0.2-0.1-0.3-0.2c-0.1-0.1-0.1-0.2-0.2-0.3c0-0.2,0-0.3,0-0.5c0-0.2,0-0.3,0-0.5c0,0,0,0,0,0
						c0-0.5,0.1-1,0.2-1.5c0.1-0.5,0.1-1.1,0.2-1.6c0,0,0,0,0,0c0,0,0,0,0,0c0.2-1.2,0.4-2.5,0.5-3.6c0.1-1.2,0.3-2.4,0.5-3.6
						c0.2-1.4,0.5-2.9,0.7-4.4c0.3-1.4,0.6-2.9,0.8-4.3c0.2-0.9,0.3-1.9,0.5-2.9c0.2-1,0.3-2,0.6-2.8c0-0.1,0.1-0.1,0.1-0.1
						c0,0,0.1-0.1,0.1-0.1c0.1,0,0.2,0,0.3-0.1c0,0,0,0,0,0c0.1,0,0.1,0,0.2,0c0.1,0.1,0.1,0.1,0.2,0.1c0.2,0,0.3-0.1,0.4-0.2
						c0.1-0.1,0.2-0.4,0.3-0.4c0.1,0,0.4,0,0.5-0.1c0.1-0.1,0.4,0,0.5-0.1c0,0,0,0,0.1,0c0,0,0.1,0,0.1,0c0.1,0,0.2,0,0.4,0.1
						c0.1,0.1,0.2,0.1,0.3-0.1c0.1-0.1,0.1-0.2,0.1-0.3c0.1-0.1,0.2-0.1,0.4-0.1c0.1,0,0.3-0.1,0.4-0.1c0.1,0,0.3,0.1,0.5,0.2
						c0.2,0.1,0.3,0.3,0.4,0.4C301.1,137.3,301.6,138.6,302.1,139.9z M298.9,148.1c0-0.1-0.1-0.1-0.2-0.1c0,0-0.1,0.2-0.2,0.3
						c-0.2,0.5-0.2,1.2-0.4,1.8c-0.1,0.6-0.2,1.2-0.4,1.8c0,0.2-0.1,0.4-0.1,0.6c-0.1,0.2-0.1,0.5,0,0.7c0,0,0.1,0.1,0.1,0.1
						c0.1,0,0.1,0,0.2,0c0.3,0,0.7-0.1,1.1-0.2c0.4-0.1,0.8-0.1,1.1-0.2c0.2-0.1,0.3-0.2,0.3-0.4c0-0.2,0-0.3-0.1-0.5
						c-0.1-0.2-0.1-0.3-0.2-0.5c-0.1-0.2-0.1-0.3-0.2-0.4c0-0.1-0.1-0.1-0.1-0.2c0-0.1-0.1-0.1-0.1-0.2c0,0,0,0,0,0c0,0,0,0,0,0
						c0,0,0,0,0,0c0,0,0-0.1,0,0c0-0.1,0-0.1,0-0.1c-0.1-0.2-0.1-0.3-0.2-0.4c0-0.1-0.1-0.2-0.1-0.3c0,0-0.1-0.1-0.1-0.2
						c0,0,0,0,0-0.1c0,0,0,0,0,0c0-0.1-0.1-0.2-0.1-0.3c-0.1-0.1-0.2-0.3-0.2-0.3c0,0,0-0.1,0-0.1c0,0,0-0.1,0-0.2
						c0,0-0.1-0.1-0.1-0.2C299,148.3,299,148.2,298.9,148.1z M301.2,154c-0.1,0-0.1,0-0.2,0c-0.1,0-0.3,0-0.4,0.1
						c-0.1,0.1-0.3,0.2-0.3,0.2c0,0,0,0-0.1,0c0,0,0,0.1,0,0.1c0,0,0,0,0,0.1c0,0,0,0,0.1,0.1c0,0,0,0,0,0c0,0,0,0,0.1,0.1
						c0.1,0.1,0.3,0.1,0.5,0.1c0.2,0,0.3-0.1,0.5-0.1c0.1,0,0.1-0.1,0.1-0.3C301.3,154,301.3,154,301.2,154z"/>
					<path fill="#381324" d="M313.5,132.1c0.7-0.2,1.9-0.3,2.1-0.5c0,0,0-0.1,0.1,0c0,0,0.1,0,0.1,0c0.2-0.2,1-0.2,1.5-0.3
						c0.5-0.1,1.1-0.3,1.6-0.3c0.3,0,0.6,0.2,0.7,0.5c0.1,0.3,0.1,0.5,0.2,0.9c0.1,0.2,0.3,0.4,0.4,0.6c0.2,0.2,0.3,0.4,0.3,0.7
						c0,0.2,0.1,0.4,0.2,0.7c0.1,0.3,0.1,0.5,0.1,0.7c0,0,0,0,0.1,0c0,0.1,0,0.1-0.1,0.1c-0.1,0-0.1,0.1-0.1,0.1c0,0,0,0,0,0
						c-0.1,0-0.1,0-0.1,0.1c0,0,0,0-0.1,0.1c-0.2,0.1-0.3,0.1-0.4,0.2c-0.1,0.1-0.2,0.2-0.3,0.3c0,0.1,0.1,0.2,0.2,0.3c0,0,0,0,0,0
						c0.1,0.1,0.2,0.2,0.3,0.2c0.1,0.1,0.1,0.2,0.2,0.3c0.1,0.2,0.1,0.4,0,0.6c-0.2,0.2-0.5,0.3-0.9,0.4c-0.4,0-0.7,0.1-1,0.2
						c-0.4,0.1-0.8,0.2-1.2,0.3c-0.4,0.1-0.9,0.1-1.2,0.3c0,0-0.1,0.1-0.2,0.1c-0.1,0-0.1,0.1-0.1,0.2c0,0.2,0.2,0.3,0.4,0.3
						c0.2,0,0.4,0.1,0.5,0.2c0,0,0,0,0,0c0,0,0.1,0.1,0.2,0.1c0.1,0,0.1,0.1,0.2,0.1c0,0,0,0-0.1,0c0.2,0.1,0.4,0.3,0.4,0.5
						c0.1,0.2,0.1,0.4,0.1,0.6c0.1,0.8,0.2,1.6,0.3,2.3c0.1,0.8,0.2,1.6,0.3,2.3c0,0.2,0.1,0.4,0.2,0.6c0.1,0.2,0.2,0.4,0.2,0.6
						c0,0.3,0.1,0.7,0.1,1c0,0.3,0.1,0.6,0.1,1c0.4,2,0.5,3,0.9,5.1c0.1,0.7,0.2,1.4,0.4,2c0.2,0.7,0.1,1.6,0.3,2c0,0,0.1,0.1,0,0.2
						c0,0.1,0,0.1,0,0.2c0,0,0,0,0,0c-0.1,0.3-0.2,0.4-0.5,0.5c-0.3,0.1-0.6,0.2-0.9,0.2c-0.1,0-0.2-0.1-0.3-0.1
						c0,0-0.1-0.1-0.2-0.2c-0.1-0.2-0.2-0.5-0.3-0.8c0-0.3-0.2-0.6-0.4-0.7c-0.1-0.1-0.2,0-0.3,0.1c-0.1,0.2-0.1,0.4-0.1,0.5
						c0,0.2,0.1,0.4,0.1,0.6c0,0,0,0,0.1-0.1c0,0,0,0,0,0c0,0,0.1,0.1,0,0.2c0,0.1,0,0.1,0,0.2c0.1,0.2,0,0.5-0.2,0.6
						c-0.2,0.1-0.6,0.2-0.9,0.3c-0.3,0-0.7,0.1-0.9,0.2c-0.3,0.1-0.6,0-0.8-0.3c-0.1-0.1-0.2-0.3-0.3-0.5c-0.1-0.2-0.1-0.4-0.2-0.5
						c-0.4-1.4-0.8-2.9-1.2-4.3c-0.4-1.4-0.9-2.9-1.2-4.3c0-0.1,0-0.2-0.1-0.3c0-0.1-0.1-0.2-0.1-0.4c0-0.1-0.1-0.3-0.1-0.5
						c-0.1-0.2,0-0.4-0.1-0.5c0,0-0.1-0.1-0.1-0.1c0-0.1-0.1-0.1-0.1-0.1c0,0,0-0.1,0-0.2c0,0,0-0.1-0.1-0.1
						c-0.2-0.7-0.4-1.6-0.6-2.5c-0.2-0.8-0.6-1.9-0.6-2.5c0,0,0-0.1,0-0.2c0,0,0-0.1,0-0.2c0-0.2-0.1-0.5-0.2-0.8
						c0-0.3-0.2-0.6-0.3-0.7c-0.1,0-0.2-0.1-0.2-0.1c0,0-0.1-0.1-0.2-0.1c-0.4,0-0.9,0.2-1.3,0.3c-0.4,0.1-1,0.3-1.3,0.2
						c-0.1,0-0.1,0-0.1,0c0,0,0,0-0.1,0c0,0-0.1-0.1-0.2-0.1c-0.1,0-0.1-0.1-0.2-0.1c-0.1-0.1-0.2-0.3-0.5-0.5
						c-0.2-0.1-0.4-0.3-0.5-0.5c0-0.1,0-0.3-0.1-0.4c-0.1-0.2,0-0.3,0.1-0.4c0.2-0.2,0.5-0.3,0.9-0.3c0.3,0,0.6-0.2,0.8-0.4
						c0.1-0.1,0-0.2-0.1-0.3c-0.1-0.1-0.3-0.1-0.5-0.1c-0.1,0-0.3,0-0.4,0c0,0,0,0,0,0c-0.1-0.1-0.1-0.1-0.2,0c0,0,0,0,0,0
						c0,0-0.1,0-0.1-0.1c0,0-0.1,0-0.1,0c0,0,0-0.1,0,0c0,0,0,0-0.1,0c-0.4-0.2-0.8-0.4-0.8-0.8c-0.1-0.3-0.1-0.7-0.3-1.1
						c-0.1-0.4-0.1-0.7,0.1-1.1c0,0,0,0,0.1-0.1c0,0,0.1-0.1,0.1-0.1c0.2-0.2,1-0.4,1.6-0.5c0.5-0.1,1.1-0.3,1.6-0.4
						c0.4-0.1,0.8-0.2,1.2-0.3c0.4-0.1,0.8-0.3,1.2-0.3c0.1,0,0.3,0,0.5-0.1c0.2-0.1,0.3-0.1,0.5-0.1
						C312.1,132.4,312.8,132.3,313.5,132.1z M306.1,137.5C306,137.4,306,137.4,306.1,137.5C306,137.5,306,137.5,306.1,137.5
						C306,137.5,306.1,137.5,306.1,137.5z M314.5,138.8c-0.2,0-0.3,0.1-0.3,0.3c0,0.2,0,0.4-0.1,0.5c0,0.1,0.1,0.3,0.1,0.5
						c0,0.2,0.1,0.3,0.3,0.4c0.1,0,0.1,0,0.2,0c0,0,0.1-0.1,0.1-0.2c0.2-0.5,0.1-0.9-0.1-1.4C314.6,138.9,314.6,138.8,314.5,138.8z"
						/>
				</g>
			</g>
			<g>
				<g>
					<path fill="#381324" d="M225,65.6c0,0-30.7-6.7-15-49.5c0,0-51.6-16.6-105.4,13.3c0,0,34.4-9,34.9,29.6
						c0,0,37.7-12.1,42.4,27.9c0,0,18.7-15.3,28.3,7.2c0,0,2.8-2.1,14.8-11.7V65.6z"/>
					<path fill="#381324" d="M238,65.6c0,0,30.7-6.7,15-49.5c0,0,51.6-16.6,105.4,13.3c0,0-34.4-9-34.9,29.6
						c0,0-37.7-12.1-42.4,27.9c0,0-18.7-15.3-28.3,7.2c0,0-2.8-2.1-14.8-11.7V65.6z"/>
				</g>
				<ellipse fill="#381324" cx="231.5" cy="80.1" rx="9.7" ry="22.2"/>
				<ellipse fill="#381324" cx="231.5" cy="58.9" rx="10.6" ry="10.1"/>
				<g>
					<path fill="#381324" d="M229.6,49.7c0,0-6.4-7.8-12.8-4.5c0,0,6.7,6.8,6.9,17.7L229.6,49.7z"/>
					<path fill="#381324" d="M233.5,49.7c0,0,6.4-7.8,12.8-4.5c0,0-6.7,6.8-6.9,17.7L233.5,49.7z"/>
				</g>
				<g>
					<g>
						<g>
							<path fill="#914166" d="M143.3,54.8c0,0,0.1-0.3,0.3-0.8c0.2-0.5,0.6-1.3,1.1-2.2c1-1.9,2.5-4.5,4.7-7.4
								c1.1-1.5,2.4-3,3.7-4.5c1.4-1.5,2.9-3.1,4.7-4.6c1.7-1.5,3.5-3,5.5-4.4c1-0.7,2-1.4,3-2c1-0.7,2.1-1.3,3.1-1.9
								c2.1-1.2,4.3-2.3,6.5-3.3c1.1-0.5,2.2-0.9,3.3-1.4c1.1-0.4,2.2-0.8,3.3-1.2c2.2-0.7,4.3-1.3,6.3-1.8c1-0.3,2-0.5,3-0.6
								c1-0.2,1.9-0.4,2.8-0.5c1.8-0.2,3.4-0.5,4.9-0.6c1.5-0.1,2.7-0.2,3.8-0.3c2.1-0.1,3.3-0.1,3.3-0.1s-1.2,0.2-3.3,0.5
								c-1,0.1-2.3,0.4-3.7,0.6c-1.4,0.2-3,0.6-4.8,1c-0.9,0.2-1.8,0.4-2.7,0.7c-0.9,0.2-1.9,0.5-2.9,0.8c-2,0.5-4,1.2-6.1,2
								c-1,0.4-2.1,0.8-3.2,1.2c-1,0.5-2.1,0.9-3.2,1.4c-2.1,1-4.2,2.1-6.3,3.3c-1,0.6-2.1,1.2-3,1.8c-1,0.6-2,1.3-2.9,2
								c-1,0.7-1.9,1.4-2.8,2c-0.9,0.7-1.8,1.4-2.6,2.1c-1.7,1.4-3.3,2.9-4.7,4.3c-1.4,1.5-2.8,2.9-3.9,4.2
								c-2.3,2.7-4.1,5.1-5.3,6.9C143.9,53.8,143.3,54.8,143.3,54.8z"/>
						</g>
						<g>
							<path fill="#914166" d="M122.8,25.3c0,0,0.3-0.1,0.9-0.4c0.6-0.3,1.4-0.6,2.5-1.1c1.1-0.4,2.4-0.9,3.9-1.5
								c1.5-0.5,3.3-1.2,5.2-1.7c1.9-0.6,4-1.2,6.2-1.8c2.2-0.6,4.6-1.1,7-1.6c2.5-0.5,5-1,7.6-1.3c1.3-0.2,2.6-0.4,3.9-0.6
								c1.3-0.1,2.7-0.3,4-0.4c2.7-0.3,5.3-0.4,8-0.6c2.6-0.2,5.2-0.1,7.7-0.1c2.5-0.1,4.9,0.2,7.2,0.3c1.1,0.1,2.3,0.1,3.3,0.2
								c1.1,0.1,2.1,0.3,3.1,0.4c2,0.2,3.8,0.4,5.4,0.7c1.6,0.3,3,0.6,4.1,0.8c2.3,0.5,3.6,0.7,3.6,0.7s-1.3-0.1-3.6-0.4
								c-1.2-0.1-2.6-0.3-4.2-0.4c-1.6-0.1-3.4-0.2-5.4-0.3c-1-0.1-2-0.1-3.1-0.2c-1.1,0-2.2,0-3.3-0.1c-2.3,0-4.7-0.1-7.1,0
								c-2.5,0.1-5,0.1-7.6,0.3c-2.6,0.2-5.2,0.3-7.9,0.6c-1.3,0.1-2.6,0.3-3.9,0.4c-1.3,0.2-2.6,0.4-3.9,0.5
								c-2.6,0.3-5.1,0.8-7.6,1.2c-2.4,0.4-4.8,0.9-7,1.3c-2.2,0.5-4.3,0.9-6.3,1.4c-3.9,0.9-7.1,1.8-9.3,2.5
								c-1.1,0.3-2,0.6-2.6,0.8C123.2,25.1,122.8,25.3,122.8,25.3z"/>
						</g>
						<g>
							<path fill="#914166" d="M183.9,82.2c0,0-0.4-1.1-0.9-3.1c-0.3-1-0.5-2.2-0.8-3.7c-0.3-1.4-0.6-3-0.9-4.8
								c-0.3-1.8-0.5-3.7-0.7-5.7c-0.1-2-0.3-4.2-0.2-6.5c0-2.2,0.1-4.6,0.4-6.9c0.3-2.3,0.6-4.7,1.2-7.1c0.5-2.4,1.3-4.6,2.2-6.9
								c0.9-2.2,2-4.3,3.2-6.2c0.3-0.5,0.6-0.9,0.9-1.4c0.3-0.5,0.7-0.9,1-1.3c0.3-0.4,0.7-0.9,1-1.3c0.4-0.4,0.7-0.8,1.1-1.1
								c0.4-0.4,0.7-0.8,1.1-1.1c0.4-0.3,0.8-0.7,1.1-1c0.4-0.3,0.7-0.6,1.1-0.9c0.4-0.3,0.8-0.5,1.1-0.8c1.4-1.1,2.9-1.8,4.2-2.6
								c1.3-0.6,2.5-1.1,3.5-1.5c2-0.7,3.1-1,3.1-1s-1.1,0.5-3,1.4c-0.9,0.5-2,1.1-3.2,1.8c-1.2,0.8-2.5,1.7-3.9,2.8
								c-0.3,0.3-0.7,0.6-1,0.8c-0.3,0.3-0.7,0.6-1,1c-0.3,0.3-0.7,0.7-1,1c-0.3,0.3-0.6,0.7-1,1.1c-0.3,0.4-0.7,0.8-1,1.1
								c-0.3,0.4-0.6,0.8-0.9,1.3c-0.3,0.4-0.6,0.9-0.9,1.3c-0.3,0.5-0.6,0.9-0.8,1.4c-1.2,1.8-2,3.9-2.9,6c-0.8,2.1-1.5,4.3-2,6.6
								c-0.6,2.2-0.9,4.6-1.2,6.8c-0.2,2.3-0.5,4.5-0.5,6.7c-0.1,2.2-0.1,4.3,0,6.3c0.1,2,0.2,3.9,0.3,5.7c0.3,3.5,0.6,6.5,0.9,8.5
								C183.7,81,183.9,82.2,183.9,82.2z"/>
						</g>
					</g>
					<g>
						<g>
							<path fill="#914166" d="M319.7,54.8c0,0-0.6-1.1-1.7-2.8c-1.1-1.8-2.9-4.2-5.3-6.9c-1.2-1.4-2.5-2.8-3.9-4.2
								c-1.5-1.4-3-2.9-4.7-4.3c-0.8-0.7-1.7-1.4-2.6-2.1c-0.9-0.7-1.8-1.4-2.8-2c-1-0.7-1.9-1.3-2.9-2c-1-0.6-2-1.2-3-1.8
								c-2-1.2-4.2-2.3-6.3-3.3c-1.1-0.5-2.1-0.9-3.2-1.4c-1.1-0.4-2.1-0.8-3.2-1.2c-2.1-0.7-4.1-1.4-6.1-2c-1-0.3-1.9-0.5-2.9-0.8
								c-0.9-0.2-1.8-0.5-2.7-0.7c-1.8-0.3-3.4-0.7-4.8-1c-1.4-0.2-2.7-0.5-3.7-0.6c-2.1-0.3-3.3-0.5-3.3-0.5s1.2,0,3.3,0.1
								c1.1,0,2.3,0.1,3.8,0.3c1.5,0.1,3.1,0.3,4.9,0.6c0.9,0.1,1.8,0.3,2.8,0.5c1,0.2,2,0.4,3,0.6c2,0.5,4.1,1.1,6.3,1.8
								c1.1,0.4,2.2,0.8,3.3,1.2c1.1,0.4,2.2,0.9,3.3,1.4c2.2,1,4.4,2.1,6.5,3.3c1.1,0.6,2.1,1.2,3.1,1.9c1,0.6,2,1.3,3,2
								c2,1.4,3.8,2.9,5.5,4.4c1.7,1.5,3.2,3.1,4.7,4.6c1.4,1.6,2.7,3.1,3.7,4.5c2.2,2.9,3.7,5.5,4.7,7.4c0.5,0.9,0.8,1.7,1.1,2.2
								C319.6,54.5,319.7,54.8,319.7,54.8z"/>
						</g>
						<g>
							<path fill="#914166" d="M340.2,25.3c0,0-0.3-0.1-0.9-0.3c-0.6-0.2-1.5-0.4-2.6-0.8c-2.2-0.7-5.4-1.5-9.3-2.5
								c-1.9-0.5-4-0.9-6.3-1.4c-2.2-0.5-4.6-0.9-7-1.3c-2.4-0.4-5-0.8-7.6-1.2c-1.3-0.2-2.6-0.4-3.9-0.5c-1.3-0.1-2.6-0.3-3.9-0.4
								c-2.6-0.3-5.3-0.5-7.9-0.6c-2.6-0.2-5.2-0.2-7.6-0.3c-2.5-0.1-4.9,0-7.1,0c-1.1,0-2.2,0-3.3,0.1c-1.1,0.1-2.1,0.1-3.1,0.2
								c-2,0.1-3.8,0.2-5.4,0.3c-1.6,0.2-3,0.3-4.2,0.4c-2.3,0.2-3.6,0.4-3.6,0.4s1.3-0.3,3.6-0.7c1.1-0.2,2.5-0.5,4.1-0.8
								c1.6-0.3,3.4-0.5,5.4-0.7c1-0.1,2-0.2,3.1-0.4c1.1-0.1,2.2-0.1,3.3-0.2c2.3-0.1,4.7-0.3,7.2-0.3c2.5,0,5.1-0.1,7.7,0.1
								c2.6,0.1,5.3,0.3,8,0.6c1.3,0.1,2.7,0.3,4,0.4c1.3,0.2,2.6,0.4,3.9,0.6c2.6,0.3,5.1,0.9,7.6,1.3c2.5,0.5,4.8,1.1,7,1.6
								c2.2,0.6,4.3,1.1,6.2,1.8c1.9,0.6,3.7,1.2,5.2,1.7c1.5,0.5,2.9,1.1,3.9,1.5c1.1,0.4,1.9,0.8,2.5,1.1
								C339.9,25.1,340.2,25.3,340.2,25.3z"/>
						</g>
						<g>
							<path fill="#914166" d="M279.2,82.2c0,0,0.2-1.2,0.5-3.2c0.3-2,0.7-5,0.9-8.5c0.1-1.8,0.2-3.7,0.3-5.7c0-2,0.1-4.1,0-6.3
								c-0.1-2.2-0.3-4.5-0.5-6.7c-0.3-2.3-0.7-4.6-1.2-6.8c-0.5-2.3-1.2-4.5-2-6.6c-0.9-2.1-1.8-4.2-2.9-6
								c-0.3-0.5-0.6-0.9-0.8-1.4c-0.3-0.4-0.6-0.9-0.9-1.3c-0.3-0.4-0.6-0.9-0.9-1.3c-0.3-0.4-0.7-0.8-1-1.1
								c-0.3-0.4-0.6-0.8-1-1.1c-0.3-0.3-0.7-0.7-1-1c-0.3-0.3-0.7-0.7-1-1c-0.4-0.3-0.7-0.6-1-0.8c-1.3-1.2-2.7-2-3.9-2.8
								c-1.2-0.7-2.3-1.3-3.2-1.8c-1.9-0.8-3-1.4-3-1.4s1.1,0.3,3.1,1c1,0.4,2.1,0.9,3.5,1.5c1.3,0.7,2.8,1.5,4.2,2.6
								c0.4,0.3,0.7,0.5,1.1,0.8c0.4,0.3,0.7,0.6,1.1,0.9c0.4,0.3,0.7,0.6,1.1,1c0.4,0.3,0.7,0.7,1.1,1.1c0.4,0.4,0.7,0.8,1.1,1.1
								c0.4,0.4,0.7,0.8,1,1.3c0.3,0.4,0.7,0.9,1,1.3c0.3,0.5,0.6,0.9,0.9,1.4c1.3,1.9,2.3,4,3.2,6.2c0.8,2.2,1.6,4.5,2.2,6.9
								c0.6,2.3,0.9,4.7,1.2,7.1c0.2,2.4,0.4,4.7,0.4,6.9c0,2.2-0.1,4.4-0.2,6.5c-0.2,2-0.4,4-0.7,5.7c-0.2,1.8-0.6,3.4-0.9,4.8
								c-0.3,1.4-0.6,2.6-0.8,3.7C279.6,81.1,279.2,82.2,279.2,82.2z"/>
						</g>
					</g>
				</g>
				<g>
					<path fill="#914166" d="M224.3,55.3l6.1,2.9c0,0-3.1,1.4-4.5,1C224.5,58.8,224.3,55.3,224.3,55.3z"/>
					<path fill="#914166" d="M238.8,55.3l-6.1,2.9c0,0,3.1,1.4,4.5,1C238.6,58.8,238.8,55.3,238.8,55.3z"/>
				</g>
			</g>
			<g>
				<g>
					<path fill="#733350" d="M412.9,78.4c17.4-9.4,34-19.6,50.2-31c-13.6-2.2-26.8-4.9-40.1-8.3c2.4-13,4.5-25.9,5.7-39
						c-13.8,9.7-27.9,18.4-42.7,26.4C394.9,43.7,403.9,61.1,412.9,78.4z"/>
					<path fill="#381324" d="M403.8,32.9c-7.3-2.4-10.8-3.7-17.8-6.5c2.6,5.1,3.9,7.6,6.6,12.6C397,36.7,399.3,35.5,403.8,32.9z"/>
					<path fill="#733350" d="M50.2,78.4C32.7,69,16.2,58.8,0,47.4c13.6-2.2,26.8-4.9,40.1-8.3c-2.4-13-4.5-25.9-5.7-39
						c13.8,9.7,27.9,18.4,42.7,26.4C68.1,43.7,59.2,61.1,50.2,78.4z"/>
					<path fill="#914166" d="M59.3,32.9c-9.6,17-19.2,34-28.8,50.9c126.8,69.2,275.3,69.2,402.1,0c-9.6-17-19.2-34-28.8-50.9
						C294.8,92.1,168.3,92.1,59.3,32.9z"/>
					<path fill="#381324" d="M59.3,32.9c7.3-2.4,10.8-3.7,17.8-6.5c-2.6,5.1-3.9,7.6-6.6,12.6C66,36.7,63.8,35.5,59.3,32.9z"/>
				</g>
				<g>
					<path fill="#FF9825" d="M218.3,87.3c1.4,0.2,2.9,0.8,4.2,1.8c1.2,0.9,2.3,2.1,3.2,3.5s1.7,2.9,2.4,4.5c1.1,2.7,1.8,5.4,1.9,8.2
						c0.1,2.8-0.2,5.5-0.7,7.9c-0.3,1.4-0.7,2.8-1.2,4c-0.5,1.2-1,2.6-1.7,3.7c-0.3,0.6-0.8,1.2-1.2,1.8c-0.4,0.6-0.8,1.2-1.3,1.6
						c-0.2,0.2-0.4,0.4-0.6,0.6c-0.2,0.2-0.4,0.4-0.5,0.6c0,0,0,0-0.1-0.1c0,0.1,0,0.1,0,0.1c0,0-0.1,0-0.1,0
						c-0.3,0.3-0.6,0.5-0.9,0.6c-0.3,0.1-0.6,0.3-0.9,0.6c0,0,0,0-0.1-0.1c0,0,0,0.1,0,0.1c0,0,0,0.1-0.1,0.1c0,0,0-0.1,0-0.1
						c0,0,0,0,0-0.1c0,0-0.1,0-0.1,0.1c0,0,0,0-0.1-0.1c-0.8,0.4-1.7,0.8-2.7,1c-1,0.2-2,0.3-3.1,0.2c-1.1-0.1-2.2-0.4-3.2-0.8
						c-1.1-0.5-2.1-1.1-3.1-2c-1-0.9-1.8-2-2.6-3.3c-0.7-1.3-1.3-2.6-1.7-4c-0.8-2.5-1.3-5.1-1.2-7.7c0-2.6,0.3-5.1,0.9-7.4
						c0.2-0.8,0.4-1.6,0.6-2.4c0.2-0.8,0.6-1.6,0.8-2.3c0.1-0.3,0.1-0.8,0-1.2c0-0.4,0.1-0.8,0.3-1.1c0.8-1.3,1.6-2.7,2.6-3.7
						c1-1.1,2.2-2,3.4-2.4c0.2-0.1,0.4,0,0.6,0.2c0.2,0.2,0.4,0.5,0.6,0.6c0,0,0.2,0,0.2,0.1c0.1,0,0.2,0.1,0.2,0
						c0.2-0.1,0.3-0.4,0.1-0.7c-0.1-0.2-0.1-0.4-0.1-0.7c0-0.3,0-0.5,0.1-0.7c0.1-0.3,0.4-0.5,0.7-0.6c0.3-0.1,0.6-0.2,0.9-0.3
						C216.1,87.2,217.2,87.2,218.3,87.3C218.2,87.3,218.3,87.3,218.3,87.3z M219.6,99.4c-0.5-0.7-1-1.2-1.6-1.6
						c-0.2-0.1-0.5-0.3-0.7-0.4c-0.2-0.1-0.6-0.2-0.7-0.1c-0.1,0.1,0,0.4,0,0.5c0.1,0.2,0.1,0.3,0.2,0.5c0,0,0,0.1,0,0
						c0,0,0,0,0,0.1c0,0.1,0,0.2,0,0.3c0,0.2,0,0.4-0.1,0.6c-0.1,0.2-0.2,0.3-0.4,0.3c-0.6,0.2-1.3,0.5-1.8,1
						c-0.5,0.4-1,1.1-1.5,1.6c-0.1,0.1-0.2,0.3-0.3,0.4c-0.1,0.2-0.2,0.3-0.3,0.4c-0.2,0.3-0.3,0.7-0.5,1.1
						c-0.2,0.3-0.3,0.9-0.4,1.1c0,0.1-0.1,0.2-0.2,0.3c0,0.1-0.1,0.3-0.1,0.3c0,0,0,0.1,0,0.1c0,0,0,0,0.1,0.1c0,0-0.1,0-0.1,0.1
						c-0.1,0.1-0.1,0.2-0.1,0.3c0,0.1,0,0.2,0,0.3c0,0.4-0.3,1.1-0.3,1.7c0,0.6-0.1,1.2-0.1,1.8c0,0.2,0,0.3,0,0.5
						c0,0.2,0,0.3,0,0.4c0,0.1,0,0.4,0,0.6c0,0.2,0,0.3,0,0.4c0,0,0,0,0.1,0.1c0,0.3,0,0.7,0.1,1.2c0.1,0.5,0.2,0.9,0.3,1.2
						c0,0,0,0,0,0c0.1,0.5,0.3,1.1,0.7,1.6c0.3,0.6,0.7,1,1.1,1.4c0.6,0.5,1.2,0.9,2,1c0.8,0.1,1.5-0.1,2-0.4c0.8-0.4,1.6-1,2-2
						c0.5-1,0.9-2,1.2-3c0.5-1.8,0.8-3.7,1-5.6c0.2-1.9,0-3.9-0.6-6C220.4,100.8,220.1,100.1,219.6,99.4z M215.2,91.7
						c-0.1,0-0.3,0.1-0.4,0.2c-0.1,0.1-0.3,0.2-0.3,0.3c-0.1,0.2,0,0.4,0.1,0.5c0.1,0.1,0.2,0.1,0.3,0.1c0.1,0,0.1-0.1,0.2-0.1
						c0.1-0.1,0.2-0.2,0.4-0.2c0.2,0,0.2-0.2,0.2-0.5C215.6,91.8,215.4,91.6,215.2,91.7z"/>
					<g>
						<path fill="#FF9825" d="M130.7,73.4c0,0.3-0.2,0.8-0.3,1.2c-0.1,0.3-0.3,0.7-0.4,1.1c-0.2,0.5-0.4,1-0.5,1.6
							c-0.1,0.6-0.1,1.2-0.1,1.8c0,0.4-0.1,0.9-0.2,1.2c-0.1,0.4-0.3,0.8-0.4,1.2c-0.2,0.6-0.4,1.2-0.7,1.9
							c-0.2,0.7-0.5,1.3-0.7,1.9c-0.1,0.3-0.2,0.7-0.3,1c-0.1,0.3-0.2,0.6-0.3,1c-0.3,1-0.5,1.5-0.8,2.4c0,0.2,0,0.4,0.1,0.6
							c0.1,0.2,0.2,0.2,0.3,0.4c0.8,0.2,1.5,0.4,2.3,0.7c0.8,0.3,1.6,0.5,2.2,0.6c0.1,0,0.3-0.1,0.4-0.2c0.1-0.1,0.3-0.3,0.4-0.4
							c0.9-1.9,1.4-5.1,2.1-7.6c0.7-2.5,1.5-5.1,2.3-7.4c0.1-0.4,0.3-0.6,0.5-0.6c0,0,0,0-0.1-0.1c0.1,0.1,0.1,0.1,0.1,0.1
							c0-0.1,0.1-0.1,0.1-0.1c0,0,0,0.1,0,0c0,0,0,0,0.1,0c0.2,0.1,0.8,0.1,1.2,0.2c0.4,0.1,0.9,0.4,1.2,0.3c0.3,0,0.8-0.3,1.1-0.1
							c0.1,0,0.2,0.1,0.3,0.1c0.1,0,0.2,0,0.3,0c0.2,0.1,0.3,0.6,0.3,0.8c0,0.2-0.1,0.4-0.2,0.5s-0.1,0.3-0.1,0.4
							c0,0.2-0.1,0.5-0.1,0.6c0,0.1,0.1,0.2,0.1,0.2c0.1,0.1,0.1,0.1,0.2,0c0.1-0.1,0.2-0.1,0.2-0.2c0-0.1,0.1-0.2,0.2-0.3
							c0.2-0.2,0.4-0.5,0.5-0.9c0.1-0.4,0.3-0.5,0.6-0.5c0,0,0,0,0,0c0.2,0.1,0.5,0.1,0.7,0.2c0.3,0,0.5,0.2,0.7,0.4
							c0,0.1,0.1,0.1,0.1,0.3c0,0.1,0.1,0.2,0.1,0.2c0.1,0.1,0,0.1,0,0.1c-0.1,0-0.1,0.1,0,0.1c0,0.1,0,0.3-0.1,0.4
							c-0.1,0.1-0.1,0.3-0.1,0.4c0,0,0,0.1-0.1,0.1c-0.7,2-1.3,4.1-2,6.2c-0.7,2.1-1.2,4.3-1.9,6.2c-0.1,0.3-0.3,0.6-0.5,0.9
							c-0.2,0.3-0.3,0.7-0.3,1c-0.1,0.6-0.5,1.5-0.7,2.4c-0.2,0.9-0.4,1.7-0.7,2.5c-0.7,2.6-1,3.9-1.6,6.6c0,0,0,0,0,0.1
							c-0.4,1.6-0.8,3.2-1.1,4.7c-0.3,1.6-1.2,3.8-1,4.7c0,0.1,0.1,0.2,0,0.2c-0.1,0.1-0.1,0.2-0.1,0.2c0,0.1,0,0.2-0.1,0.2
							c-0.1,0.1,0,0.2,0,0.3c0,0.1-0.1,0.2-0.1,0.4c0,0.2-0.1,0.3-0.2,0.3c-0.1,0.1-0.2,0.2-0.3,0.2c-0.1,0-0.3-0.1-0.4-0.1
							c-0.1,0-0.1-0.1-0.1,0c0,0,0,0,0,0c-0.1-0.1-0.1-0.2-0.1-0.2c0-0.1,0-0.2-0.1-0.3c-0.1-0.3-0.3-0.3-0.4-0.2
							c-0.1,0.1-0.3,0.3-0.6,0.3c-0.2,0-0.5,0-0.6-0.1c-0.1,0-0.3,0-0.4,0c-0.1,0-0.3,0-0.4-0.2c0,0,0,0-0.1,0
							c-0.3-0.1-0.5-0.2-0.8-0.4c-0.2-0.2-0.6-0.1-0.8,0c-0.2,0.1-0.6-0.1-1-0.2c-0.4-0.1-0.7-0.4-0.9-0.8c-0.1-0.1-0.1-0.3-0.2-0.5
							c-0.1-0.2,0-0.4,0-0.5c0.5-1.5,0.7-3.4,1-5.1s0.7-3.4,1.1-5.1c0.1-0.4,0.2-0.9,0.3-1.4c0.1-0.5,0.3-1,0.3-1.4
							c0-0.4-0.3-0.8-0.4-0.8c0,0-0.1,0-0.1,0c0,0-0.1,0-0.1,0c0,0-0.1-0.1-0.1-0.1c0,0-0.1,0.1-0.1,0c0-0.1-0.1-0.1-0.1-0.1
							c-0.4,0-1.1-0.4-1.7-0.5c-0.6-0.1-1.3-0.3-1.7-0.5c-0.3-0.2-0.5-0.6-0.5-0.9c0-0.3,0.3-0.5,0.5-0.6c0.3,0,0.6-0.1,0.7-0.2
							c0,0,0-0.2,0.1-0.2c0-0.1,0-0.2,0-0.2c-0.1-0.1-0.2-0.2-0.3-0.2c-0.1,0-0.3-0.2-0.4-0.2c-0.1,0-0.2,0-0.4,0
							c-0.1,0-0.2,0-0.3,0.1c0,0,0,0,0-0.1c-0.1,0.1-0.2,0.1-0.3,0.1c-0.1,0-0.2,0.1-0.3,0.2c-0.4,0.7-0.6,1.7-0.9,2.7
							c-0.2,0.9-0.5,1.9-0.8,2.7c-0.5,1.6-0.9,3.2-1.3,4.7s-0.8,3.1-1.2,4.9c-0.1,0.6-0.4,1-0.8,1.1c-0.2,0-0.5,0-0.7-0.1
							c-0.2-0.1-0.4-0.2-0.5-0.5c-0.1-0.2-0.2-0.4-0.2-0.7c0-0.2-0.1-0.5-0.2-0.6c0,0-0.1-0.2-0.2-0.2c-0.2-0.1-0.4,0-0.5,0.3
							c-0.2,0.3-0.4,0.5-0.6,0.8c-0.2,0.2-0.5,0.3-0.9,0.2c-0.4-0.1-0.7-0.3-1.1-0.4c-0.3-0.1-0.7-0.3-1.1-0.4
							c-0.1,0-0.2-0.1-0.3-0.3c-0.1-0.1-0.1-0.3-0.1-0.4c-0.1-0.4,0-1,0.1-1.5c0.2-0.5,0.3-1,0.4-1.4c0.2-1,0.6-2,0.8-3.1
							c0.3-1,0.6-2.2,0.8-3.2c0.1-0.8,0.1-1.7,0.3-2.6c0.1-0.8,0.4-1.6,0.6-2.3c0.9-3.1,1.7-6.7,2.6-10c0.9-3.3,1.9-6.7,3-9.9
							c0.2-0.7,0.5-1.5,0.7-2.3c0.2-0.8,0.6-1.5,1.1-1.8c0.3-0.1,0.8,0,1,0.3c0.1,0.1,0.1,0.2,0.2,0.3c0.1,0.1,0.1,0.2,0,0.4
							c-0.1,0.3-0.1,0.6-0.2,0.8c-0.1,0.2-0.3,0.6-0.2,0.8c0,0,0.1,0.1,0.1,0.2c0,0,0,0.1,0.1,0.1c0,0,0.1,0,0.1,0
							c0.1,0.1,0.4-0.2,0.6-0.4c0.2-0.3,0.4-0.7,0.6-1.2c0.2-0.5,0.5-0.7,0.9-0.8c0.2,0,0.4,0.1,0.5,0.5c0.1,0.3,0.3,0.5,0.5,0.6
							c0.2,0,0.4,0,0.6-0.2c0.2-0.2,0.4-0.2,0.6-0.1c0.2,0,0.5,0.1,0.8,0.2c0.3,0.1,0.6,0.2,0.8,0.2
							C130.3,72.9,130.6,73.2,130.7,73.4z"/>
						<path fill="#FF9825" d="M162.4,88.5c0,2.1,0,4.3,0,6.4c0,0.9,0,1.9,0,2.8c0,0.9,0,1.8,0,2.7c0,0.1,0,0.1,0,0.2
							c0,0.6,0,1.1,0,1.6c0,0.5,0.1,1.2,0,1.7c0,0.1,0,0.2,0,0.3c0,0.1,0,0.2,0,0.3c-0.4,2-0.1,4.8-0.2,7.1
							c-0.1,2.3-0.1,4.7-0.2,7.1c0,0.3,0,0.5,0,0.8c0,0.2-0.1,0.6,0,0.8c0,0.1,0.1,0.2,0,0.2c-0.1,0,0,0.1,0,0.2
							c0.1,0.1,0.1,0.3,0,0.4c-0.1,0.1-0.1,0.3-0.1,0.4c0,0.1-0.1,0.2-0.1,0.3c0,0.1-0.1,0.2-0.3,0.2c-0.3,0-0.5-0.1-0.6-0.2
							c-0.2-0.2-0.3-0.6-0.3-0.8c-0.1-0.2-0.3-0.2-0.4-0.1c-0.1,0.1-0.2,0.4-0.4,0.5c-0.1,0.2-0.5,0.2-0.6,0.2c0,0,0-0.1,0-0.1
							c-0.1,0-0.1,0-0.2,0c-0.4-0.1-0.8-0.2-1.2-0.4c-0.4-0.2-0.9-0.2-1.2,0.1c0,0-0.1,0-0.1,0c0,0-0.1,0-0.1-0.1c0,0,0,0.1,0,0.1
							c0,0,0,0,0,0c0,0,0-0.1,0-0.1c0,0-0.1,0.1-0.2,0c0,0-0.1,0-0.2,0c-0.1,0-0.3-0.2-0.5-0.2c-0.2,0-0.4-0.2-0.4-0.4
							c0-0.1-0.1-0.3-0.1-0.5c-0.1-0.2-0.2-0.3-0.2-0.4c-0.2-0.7-0.1-1.8-0.1-2.6c0-0.8,0-1.6,0-2.3c0-0.3-0.1-0.5-0.3-0.5
							c-0.2-0.1-0.4-0.2-0.5-0.3c-0.3-0.1-0.9-0.1-1.3-0.3c-0.4-0.1-1-0.2-1.3,0c-0.1,0.1-0.3,0.2-0.4,0.2c-0.2,0-0.3,0.1-0.4,0.1
							c-0.5,0.1-1.3-0.2-2.1-0.4c-0.7-0.2-1.7-0.5-2.1-0.4c-0.1,0-0.3,0.2-0.4,0.2c-0.1,0-0.2,0.2-0.3,0.4c-0.2,0.6-0.6,1.2-1,1.8
							c-0.3,0.6-0.7,1.2-1,1.8c-0.1,0.2-0.2,0.3-0.4,0.3c-0.1,0-0.3,0.3-0.4,0.3c0,0-0.1-0.1-0.1-0.1c0,0,0,0-0.1,0
							c0,0.1,0.1,0.1,0.1,0.1c-0.1,0-0.1,0-0.1,0c0,0,0-0.1,0.1,0c0,0,0-0.1,0-0.1c-0.1,0-0.3,0-0.4,0c-0.1-0.1-0.3-0.1-0.5-0.2
							c-0.1,0-0.3-0.2-0.4-0.3c-0.1-0.1-0.3-0.1-0.4,0c-0.1,0.1-0.2,0.2-0.4,0.1c-0.2-0.1-0.3-0.1-0.4-0.1c-0.2-0.1-0.4-0.3-0.5-0.5
							c-0.1-0.3-0.4-0.4-0.6-0.3c-0.2,0.1-0.5,0.2-0.9,0.3c-0.3,0.1-0.7-0.1-0.9-0.4c-0.1-0.1-0.2-0.3-0.3-0.5
							c-0.1-0.2-0.1-0.3-0.1-0.5c0.1-0.3,0.1-0.5,0.2-0.7c0.1-0.2,0.2-0.4,0.3-0.7c0,0,0,0,0,0c0.3-0.7,0.7-1.4,1.1-2.2
							c0.4-0.7,0.8-1.5,1.1-2.2c0,0,0,0,0-0.1c0,0,0,0,0,0.1c0.9-1.7,1.8-3.4,2.6-5.1c0.8-1.7,1.7-3.4,2.6-5c1.1-2,2.1-4,3.3-6
							c1.1-2,2.2-3.9,3.3-5.9c0.7-1.3,1.4-2.6,2.2-3.9c0.8-1.3,1.5-2.7,2.3-3.8c0-0.1,0.1-0.1,0.2-0.1c0.1,0,0.1-0.1,0.2-0.1
							c0.2,0,0.3,0.1,0.5,0.1c0,0,0,0,0,0.1c0.1,0,0.2,0,0.3,0.1c0.1,0.1,0.1,0.2,0.3,0.3c0.2,0.1,0.4,0.1,0.6-0.1
							c0.2-0.2,0.5-0.4,0.6-0.4c0.2,0,0.5,0.2,0.7,0.2c0.2,0,0.6,0.2,0.7,0.2c0,0,0.1,0,0.1,0c0,0.1,0.1,0.1,0.1,0.1
							c0.1,0,0.3,0.2,0.4,0.4c0.1,0.2,0.3,0.2,0.5,0.1c0.1-0.1,0.2-0.2,0.3-0.3c0.2,0,0.4,0,0.5,0.1c0.2,0.1,0.4,0.1,0.5,0.1
							c0.1,0,0.3,0.3,0.5,0.5c0.2,0.3,0.3,0.5,0.3,0.9C162.4,84.1,162.4,86.4,162.4,88.5z M154,98.8c0-0.2-0.1-0.3-0.2-0.2
							c-0.1,0-0.2,0.2-0.3,0.3c-0.5,0.7-0.9,1.7-1.4,2.5c-0.5,0.9-1,1.7-1.4,2.5c-0.1,0.2-0.3,0.5-0.5,0.8c-0.2,0.3-0.4,0.7-0.3,1
							c0,0.1,0.1,0.1,0.2,0.2c0.1,0,0.2,0.1,0.2,0.1c0.3,0.2,1,0.2,1.6,0.4c0.6,0.1,1.2,0.3,1.6,0.4c0.2,0,0.5-0.1,0.6-0.4
							c0.1-0.2,0.1-0.5,0.1-0.8c0-0.3,0-0.6-0.1-0.9c0-0.3,0-0.6,0-0.7c0-0.1,0-0.2,0-0.4c0-0.1,0-0.2,0-0.3c0,0,0,0,0-0.1
							c0,0,0,0,0,0c0,0,0,0,0-0.1c0-0.1,0-0.1,0-0.1c0-0.1,0-0.1,0.1-0.2c-0.1-0.3-0.1-0.5,0-0.6c0-0.1,0.1-0.4,0-0.6
							c0,0,0-0.1,0-0.3c0,0,0-0.1,0.1-0.1c0,0,0,0,0,0c0-0.2,0-0.4,0-0.6c0-0.2-0.1-0.5-0.1-0.6c0,0,0-0.1,0-0.2
							c0-0.1,0.1-0.2,0-0.3c0-0.1,0-0.2,0-0.4C154,99.1,154,98.9,154,98.8z M154.1,108.7c-0.1-0.1-0.2-0.1-0.2-0.2
							c-0.2-0.1-0.4-0.2-0.5-0.1c-0.2,0-0.5,0.1-0.6,0.1c0,0-0.1,0-0.1,0c0,0.1-0.1,0.1-0.1,0.1c0,0,0,0.1,0,0.1c0,0,0,0.1,0,0.2
							c0,0,0,0,0,0c0,0.1,0,0.1,0,0.1c0.2,0.2,0.4,0.4,0.6,0.4c0.3,0.1,0.5,0.1,0.7,0.1c0.2,0,0.2-0.1,0.3-0.4
							C154.2,108.9,154.2,108.8,154.1,108.7z"/>
						<path fill="#FF9825" d="M172.8,82.8c0,0,0.1,0,0.1,0.1c0,0.1,0.1,0.2,0.2,0.2c0.1,0.1,0.2,0.4,0.1,0.6c0,0.2-0.1,0.5,0,0.6
							c0-0.1,0-0.1,0-0.1c0,0.2-0.1,0.3-0.1,0.5c0,0.2,0,0.4,0,0.5c0,0.1-0.1,0.2,0,0.3c0.1,0.1,0.1,0.2,0.2,0.2
							c0.1,0,0.4-0.2,0.5-0.4c0.1-0.2,0.2-0.4,0.2-0.6c0.1-0.3,0.3-0.6,0.4-0.9c0.1-0.3,0.4-0.4,0.7-0.4c0.2,0.1,0.4,0.2,0.6,0.1
							c0.2,0,0.4,0.1,0.6,0.2c0,0,0,0,0-0.1c0.2,0.1,0.3,0.3,0.3,0.6c0,0,0,0,0-0.1c0.1,0.3,0.1,0.6,0,1c-0.1,0.3-0.2,0.7-0.2,0.9
							c0,0.1,0.1,0.2,0.1,0.2c0,0.1,0,0.3,0,0.3c0,0,0-0.2,0-0.2s0,0.8,0.1,1.2c0.1,0.4,0.1,0.8,0,1.1c-0.1,0.4-0.3,0.9-0.3,1.4
							c-0.1,0.5-0.2,1-0.3,1.5c-0.7,3.4-1.3,7-1.8,10.6c-0.6,3.6-1,7.2-1.4,10.6c0,0.2-0.1,0.4-0.1,0.7c0,0.3,0,0.6,0.2,0.8
							c0.1,0.1,0.1,0.1,0.1,0.2c0,0.1,0.1,0,0.1,0c0.1,0,0.3,0.2,0.5,0.2c0.2,0,0.5,0.1,0.5,0.1c0,0,0.1-0.1,0.1,0
							c0,0,0.1,0.1,0.1,0.1c0.1,0,0.2-0.1,0.3,0c0.1,0.1,0.2,0.1,0.3,0.1c0.3,0,0.5,0.1,0.8,0.1c0.3,0,0.7,0.2,0.8,0.2
							c0,0,0.1-0.1,0.2,0c0.1,0.1,0.2,0.1,0.2,0.1c0.6,0,1.6,0.3,2.3,0.4c0.7,0.1,1.7,0.1,2.3,0.4c0.3,0.2,0.5,0.6,0.4,1.1
							c-0.1,0.4-0.2,0.8-0.1,1.1c0,0.4-0.1,0.8-0.3,1c-0.2,0.2-0.4,0.8-0.3,1c0,0,0.1,0.1,0.1,0.2c0,0.1,0,0.1,0,0.2
							c0.2,0.3,0.4,0.6,0.4,0.8c0,0.3,0,0.6-0.1,0.9c0,0.2-0.1,0.4-0.1,0.7c0,0.3,0,0.5-0.1,0.8c0,0.2-0.1,0.5-0.2,0.6
							c-0.1,0.2-0.4,0.3-0.6,0.2c-0.2,0-0.4-0.1-0.5-0.1c-0.1,0-0.3,0-0.5-0.1c-0.9-0.3-2.1-0.4-3.2-0.6c-1.1-0.2-2.1-0.4-3.1-0.4
							c-0.3,0-0.6-0.1-0.9-0.3c-0.3-0.2-0.7-0.5-0.9-0.6c-0.2,0-0.5,0.1-0.7,0.3c-0.2,0.2-0.5,0.1-0.8,0.1c-0.4-0.1-0.9-0.2-1.4-0.3
							c-0.5-0.1-1.1-0.1-1.5-0.1c-0.2,0-0.5-0.3-0.8-0.5c-0.2-0.2-0.4-0.5-0.4-0.8c0-0.1-0.1-0.2-0.1-0.4c0-0.1-0.1-0.2-0.2-0.3
							c-0.1-0.1-0.2,0-0.3,0.1c-0.1,0.1-0.2,0.3-0.2,0.4c-0.1,0.1-0.1,0.3-0.2,0.4c-0.1,0.1-0.2,0.4-0.2,0.4c0,0-0.2,0-0.2,0.1
							c0,0.1-0.1,0.1-0.1,0.1c-0.2,0-0.3-0.1-0.4-0.2c-0.1-0.1-0.2-0.2-0.3-0.4c-0.2-0.3-0.2-0.9-0.1-1.4c0.1-0.5,0.1-0.9,0.2-1.4
							c0.2-1.7,0.4-3.5,0.6-5.3c0.2-1.8,0.7-3.8,0.7-5.3c0-0.2,0-0.4,0-0.5c0-0.2,0-0.4-0.1-0.6c0,0,0-0.1,0-0.1
							c-0.1-0.5-0.1-1.1-0.1-1.6c0-0.5,0.1-1.1,0.2-1.6c0.2-1.2,0.3-2.4,0.5-3.6c0.2-1.2,0.3-2.4,0.5-3.6c0.4-2.8,1.1-5.7,1.3-8.3
							c0-0.3,0-0.5,0.1-0.8c0-0.3,0.1-0.5,0.2-0.8c0.1-0.6,0.2-1.3,0.3-1.9c0.1-0.6,0.2-1.4,0.4-1.8c0.2-0.3,0.7-0.6,1-0.5
							c0.3,0,0.6,0.1,1,0.1c0.3,0,0.6-0.2,0.9-0.4c0.1-0.1,0.3,0,0.5,0c0.2,0,0.4,0,0.5,0.1c0,0,0.1,0.1,0.2,0.2
							C172.7,82.7,172.8,82.8,172.8,82.8z"/>
						<path fill="#FF9825" d="M191.1,85.4c0,0,0.1,0,0.1,0.1c0,0.1,0.1,0.2,0.2,0.2c0.1,0.1,0.2,0.4,0.1,0.6c0,0.3,0,0.5,0,0.6
							c0,0,0-0.1-0.1-0.1c0,0.2,0,0.3-0.1,0.5c0,0.2,0.1,0.4,0.1,0.4c0,0.1,0,0.2,0,0.3c0.1,0.1,0.1,0.2,0.2,0.2
							c0.1,0,0.4-0.2,0.4-0.4c0.1-0.2,0.2-0.4,0.2-0.6c0.1-0.3,0.2-0.7,0.3-1c0.1-0.3,0.4-0.5,0.7-0.4c0.2,0.1,0.4,0.1,0.6,0.1
							c0.2,0,0.4,0,0.7,0.2c0,0,0,0,0-0.1c0.2,0.1,0.3,0.3,0.3,0.6c0,0,0,0,0-0.1c0.1,0.3,0.1,0.6,0.1,1c0,0.3-0.2,0.7-0.1,1
							c0,0.1,0.1,0.2,0.1,0.2c0,0.1,0,0.3,0,0.3c0,0,0-0.2,0-0.2s0,0.8,0.1,1.2c0.1,0.4,0.1,0.8,0.1,1.1c-0.1,0.4-0.2,0.9-0.3,1.4
							c-0.1,0.5-0.1,1-0.2,1.6c-0.5,3.5-0.9,7.1-1.3,10.7c-0.4,3.6-0.6,7.2-0.8,10.7c0,0.2,0,0.4-0.1,0.7c0,0.3,0.1,0.6,0.2,0.8
							c0.1,0,0.1,0.1,0.2,0.2c0,0.1,0.1,0,0.1,0c0.1,0,0.3,0.2,0.5,0.1c0.2,0,0.5,0.1,0.5,0.1c0,0,0.1-0.1,0.1,0
							c0,0,0.1,0.1,0.2,0.1c0.1,0,0.2-0.1,0.3,0c0.1,0,0.2,0.1,0.3,0.1c0.3,0,0.5,0,0.8,0c0.3,0,0.7,0.2,0.9,0.1c0,0,0.1-0.1,0.2,0
							c0.1,0.1,0.2,0.1,0.2,0.1c0.6,0,1.6,0.2,2.3,0.3c0.7,0,1.7,0,2.3,0.3c0.3,0.1,0.5,0.6,0.4,1.1c-0.1,0.4-0.1,0.8-0.1,1.1
							c0,0.4,0,0.8-0.3,1c-0.2,0.3-0.4,0.8-0.2,1c0,0,0.1,0.1,0.1,0.2c0,0.1,0,0.1,0,0.2c0.2,0.2,0.4,0.5,0.4,0.8
							c0,0.3,0,0.6-0.1,0.9c0,0.2-0.1,0.4-0.1,0.7c0,0.3,0,0.5,0,0.8c0,0.3-0.1,0.5-0.2,0.6c-0.1,0.2-0.4,0.3-0.6,0.3
							c-0.2,0-0.4-0.1-0.5-0.1c-0.1,0-0.3,0-0.5-0.1c-0.9-0.3-2.1-0.3-3.2-0.4c-1.1-0.1-2.1-0.2-3.1-0.2c-0.3,0-0.6-0.1-0.9-0.2
							c-0.3-0.2-0.7-0.5-0.9-0.5c-0.2,0-0.5,0.2-0.7,0.3c-0.2,0.2-0.5,0.2-0.8,0.1c-0.4-0.1-0.9-0.1-1.4-0.2c-0.5-0.1-1.1,0-1.5-0.1
							c-0.2,0-0.5-0.2-0.8-0.4c-0.3-0.2-0.4-0.4-0.5-0.7c0-0.1-0.1-0.2-0.1-0.4c0-0.1-0.1-0.2-0.2-0.3c-0.1-0.1-0.2,0-0.3,0.1
							c-0.1,0.1-0.2,0.3-0.2,0.4c-0.1,0.1-0.1,0.3-0.2,0.4c-0.1,0.1-0.1,0.4-0.2,0.4c0,0-0.2,0-0.2,0.1c0,0.1-0.1,0.1-0.1,0.1
							c-0.2,0-0.3-0.1-0.4-0.2c-0.1-0.1-0.3-0.2-0.3-0.3c-0.2-0.3-0.2-0.9-0.2-1.4c0-0.5,0.1-0.9,0.1-1.4c0.1-1.7,0.2-3.5,0.3-5.4
							c0.1-1.8,0.5-3.9,0.4-5.3c0-0.2-0.1-0.4-0.1-0.5c0-0.2-0.1-0.4-0.1-0.6c0,0,0-0.1,0-0.1c-0.1-0.5-0.2-1.1-0.2-1.6
							c0-0.5,0-1.1,0.1-1.6c0.1-1.2,0.2-2.5,0.3-3.7c0.1-1.2,0.2-2.4,0.3-3.7c0.2-2.8,0.8-5.8,0.9-8.3c0-0.3,0-0.5,0-0.8
							c0-0.3,0.1-0.5,0.1-0.8c0.1-0.6,0.1-1.3,0.2-1.9c0.1-0.6,0.1-1.4,0.3-1.8c0.1-0.3,0.6-0.6,1-0.6c0.3,0,0.7,0.1,1,0.1
							c0.3,0,0.6-0.3,0.9-0.4c0.1-0.1,0.3-0.1,0.5,0c0.2,0,0.4,0,0.5,0c0,0,0.1,0.1,0.2,0.1C191,85.3,191.1,85.4,191.1,85.4z"/>
						<path fill="#FF9825" d="M236.7,87.5c0.2,0,0.4,0.2,0.5,0.2c0,0,0.2,0,0.3,0.2c0.2,0.2,0.4,0.4,0.4,0.7
							c0.1,0.3,0.2,0.5,0.2,0.7c0.1,0.5,0.1,1.1,0.2,1.5c0.1,0.5,0.1,1.1,0.2,1.5c0,0.1,0.1,0.2,0.1,0.3c0,0.1,0,0.2,0.1,0.3
							c0.6,2.1,0.8,4.9,1.3,7.3c0.5,2.4,0.7,5.4,1.6,7.2c0.1,0.2,0.3,0.2,0.4,0.2c0,0,0.1-0.1,0.1-0.1c0-0.3,0.1-0.5,0.1-0.8
							c0-0.3,0.1-0.6,0.1-0.8c0-0.2,0-0.4,0-0.5c0-0.1,0-0.3,0-0.5c0.1-2.6,0.7-5.6,1-8.4c0.3-2.8,0.6-5.7,1.1-8.2
							c0-0.2,0.1-0.4,0.2-0.6c0.1-0.2,0.2-0.2,0.3-0.2c0.3,0,0.8-0.1,1.3-0.1c0.5,0,1,0,1.3,0.1c0.1,0,0.3,0.3,0.6,0.6
							c0.1,0.1,0.2,0.2,0.3,0.3c0.1,0.1,0.2,0.2,0.3,0.1c0.1,0,0.2-0.1,0.2-0.3c0-0.1,0.1-0.2,0.1-0.3c0-0.1,0.1-0.1,0.2-0.1
							c0.1,0,0.2,0,0.3,0c-0.1,0-0.1,0-0.1-0.1c0.1,0,0.2,0,0.3,0c0-0.1,0.2,0.1,0.2,0.1c0.2,0,1,0.1,1.4,0.2c0,0,0.1,0.1,0.2,0.2
							c0,0.1,0.1,0,0.1,0c0,0,0.1,0.4,0.2,0.5c0,0.2,0.1,0.4,0.2,0.5c0,0.1,0.1,0.1,0.1,0.1c0,0,0,0.1,0,0.1
							c0.3,0.6,0.4,1.5,0.6,2.1c0.2,0.6,0.4,1.3,0.6,2c0.4,1.4,0.8,2.8,1.3,4.2c0.4,1.4,0.9,2.8,1.4,4.2c0,0,0.1,0,0.1,0
							c0.1,0.4,0.2,0.9,0.3,1.3c0.2,0.5,0.3,0.9,0.4,1.3c0.1,0.1,0.2,0.3,0.2,0.5c0,0.2,0.3,0.3,0.3,0.3c0,0,0,0.1,0.1,0.2
							c0.1,0.2,0.4,0.3,0.5,0.2c0.1-0.1,0.2-0.2,0.2-0.4c0-0.2,0.1-0.3,0.1-0.5c0.1-1.7,0.1-3.4,0.1-5.1c0.1-1.7,0.2-3.5,0.2-5.1
							c0-0.8,0-1.5,0.1-2.2c0-0.7,0.2-1.5,0.1-2.1c0-0.1-0.1-0.3,0-0.5c0-0.1,0.1-0.1,0-0.2c0-0.1,0-0.2,0-0.2c0-0.2,0-0.5,0-0.7
							c0-0.2,0-0.5,0-0.8c0-0.3,0.1-0.6,0.3-0.9c0.2-0.3,0.4-0.4,0.6-0.4c0,0,0,0,0.1,0.1c0,0,0,0,0-0.1c0.1,0.1,0.1,0.1,0.2,0
							c0-0.1,0.1,0,0.2,0c0.1,0,0.5-0.1,0.7,0.1c0.3,0.3,0.4,0.6,0.4,0.9c-0.1,0.3-0.1,0.8,0,1c0.1,0.1,0.4,0.2,0.5,0.2
							c0.2-0.1,0.4-0.5,0.4-0.9c0-0.4,0.2-0.8,0.2-1c0-0.1,0-0.3,0.2-0.3c0.1,0,0.2-0.1,0.2-0.2c0.1-0.1,0.3-0.2,0.5-0.1
							c0.2,0,0.4,0,0.5-0.1c0.1,0,0.3-0.1,0.4-0.1c0.1-0.1,0.3-0.1,0.5-0.1c0.3,0,0.7,0,1.1,0c0.4,0,0.8,0,1.1,0.2
							c0.2,0.1,0.5,0.6,0.5,1c0,0.2-0.1,0.3,0,0.4c0,0.1,0,0.2-0.1,0.4c-0.5,2.2-0.6,4.8-0.9,7.2c-0.2,2.4-0.5,4.9-0.6,7.3
							c-0.1,1.7-0.2,3.4-0.4,5.1c-0.1,1.6-0.2,3.3-0.3,4.9c-0.1,1.2-0.1,2.5-0.2,3.7c-0.1,1.2,0,2.6-0.1,3.7c0,0.1,0,0.3-0.1,0.4
							c0,0.1,0,0.3-0.1,0.4c-0.1,0.4-0.2,0.8-0.4,1.1c-0.2,0.3-0.3,0.7-0.2,1.1c0,0,0-0.1,0-0.1c0,0.1,0,0.1,0,0.1c0,0,0,0.1,0,0.1
							c0,0.2,0,0.5,0,0.7c0,0.3,0,0.5,0,0.7c0,0.3,0,0.6,0,0.9c0,0.3-0.1,0.6-0.3,0.8c-0.2,0.2-0.4,0.2-0.7,0.2
							c-0.2,0-0.6,0.1-0.7,0c0,0,0-0.1-0.1-0.1c0,0,0,0,0,0.1c0,0,0,0,0,0c0,0,0-0.1-0.1,0c0,0,0,0,0,0.1c-0.3-0.1-0.5,0-0.8,0.2
							c-0.3,0.2-0.6,0.2-0.8,0.2c-0.2,0-0.7,0-1,0.1c-0.2,0-0.4,0.1-0.6,0.1c-0.2,0-0.5,0-0.7,0c-0.1,0-0.3-0.1-0.5-0.2
							c-0.2-0.1-0.2-0.3-0.3-0.4c-0.1-0.3-0.4-0.6-0.5-0.8c-0.1-0.3-0.2-0.5-0.4-0.9c-1.2-2.5-2.3-5.1-3.5-7.7
							c-1.2-2.6-2.5-5.3-3.3-7.8c0-0.1-0.1-0.3-0.3-0.3c-0.2,0-0.4,0.1-0.4,0.3c0,0.3-0.1,0.5-0.1,0.6c-0.8,2.5-1.2,5.5-1.7,8.4
							c-0.5,2.9-1.6,6.2-1.6,8.5c0,0,0,0.1,0,0.1c0,0.1,0,0.1,0,0.2c0,0.1,0,0.1-0.1,0.2c-0.1,0-0.2,0.1-0.3,0.2
							c-0.1,0.1-0.2,0.2-0.2,0.3c-0.2,0.1-0.6,0.1-1,0.1c-0.4,0-0.8,0-1,0c-0.3-0.1-0.7-0.3-0.8-0.5c-0.2-0.3-0.3-0.9-0.4-1.4
							c-0.1-0.5-0.5-1.4-0.6-1.4c0,0-0.1,0-0.1,0c0,0-0.1,0-0.1,0c-0.1,0.1-0.1,0.2-0.1,0.3c0,0.1,0,0.2,0,0.3
							c0.1,0.5,0.1,1,0.3,1.4c0.1,0.4,0.1,0.8,0,1.3c0,0,0,0,0.1,0.1c-0.1,0-0.1,0.1-0.1,0.1c0,0-0.1,0-0.2,0c-0.1,0-0.4,0-0.6,0
							c-0.2-0.1-0.4-0.2-0.6-0.4c0,0,0,0,0-0.1c-0.1-0.1-0.1-0.2-0.2-0.4c-0.1-0.2-0.2-0.4-0.2-0.5c-0.3-0.6-0.6-1.5-0.8-2.3
							c-0.3-0.8-0.5-1.6-0.8-2.4c-0.1-0.3-0.2-0.6-0.3-0.9c-0.1-0.3-0.2-0.6-0.3-0.9c-0.3-1.1-0.7-2.2-1-3.2
							c-0.3-1.1-0.8-2.2-1.2-3.2c-0.2-0.5-0.3-1-0.4-1.5c-0.1-0.5-0.5-1.2-0.5-1.5c0,0,0-0.2,0-0.2c0-0.1-0.1-0.2-0.1-0.4
							c0-0.2-0.1-0.3-0.2-0.4c0,0,0,0,0-0.1c-0.1-0.1-0.1-0.1-0.1-0.2c0,0,0-0.1-0.1-0.2c0,0,0,0,0,0c0,0,0-0.1,0-0.1
							c0,0-0.1-0.1-0.1-0.1c-0.1-0.4-0.2-0.9-0.3-1.3c-0.1-0.5-0.2-1-0.3-1.3c-0.1-0.4-0.2-0.8-0.3-1.1c-0.1-0.3-0.2-0.7-0.3-1.2
							c-0.1-0.4-0.2-0.8-0.3-1.2c-0.1-0.4-0.2-0.8-0.3-1.1c-0.1-0.3-0.2-0.7-0.3-1c-0.1-0.3-0.2-0.7-0.3-1c0,0,0,0,0-0.1
							c-0.2-0.8-0.4-1.6-0.6-2.5c-0.2-0.9-0.4-1.8-0.6-2.7c-0.2-0.8-0.4-1.7-0.5-2.6c-0.2-0.9-0.6-2-0.5-2.5c0-0.1,0-0.1,0-0.2
							c-0.1,0-0.1-0.1,0-0.2c0-0.2,0-0.4-0.1-0.5c0-0.1-0.1-0.3,0-0.4c0-0.1,0.1-0.2,0.2-0.3c0.1-0.1,0.3-0.2,0.3-0.2
							c0,0-0.4,0.5-0.4,0.5c0,0,0.2-0.4,0.4-0.5c0.2-0.1,0.4-0.1,0.6-0.1c0.2,0,0.5,0,0.7,0c0.2,0,0.6,0,0.6-0.1c0,0,0,0,0,0
							c0,0,0.1,0,0.1,0c0,0,0.1,0,0.2-0.1c0.1,0,0.2,0,0.2-0.1c0,0,0.2-0.2,0.5-0.2c0.5,0,1,0,1.5,0c0.5,0,1.5,0.1,1.6,0
							c0,0,0-0.1,0.1-0.1c0,0,0.1,0.1,0.1,0.1C236.3,87.5,236.4,87.5,236.7,87.5z"/>
						<path fill="#FF9825" d="M287.7,83.1C287.7,83.1,287.7,83.1,287.7,83.1c0.2-0.1,0.5,0,0.7,0.1c0.2,0.1,0.4,0.3,0.6,0.5
							c0.1,0.1,0.1,0.2,0.1,0.2c0,0.1,0,0.1,0.1,0.2c0,0,0,0-0.1,0c0,0,0,0.1,0,0.1c0.1,0.3,0.2,0.7,0.3,1.1
							c0.1,0.4,0.2,0.7,0.3,1.1c0,0,0,0,0.1,0c0.1,0.3,0.1,0.5,0.1,0.8c0,0.2-0.1,0.5-0.1,0.7c-0.1,0.6-0.9,1.2-1,1.4
							c0,0,0,0.2,0,0.2c-0.1,0,0,0.1,0,0.2c0.1,0.1,0.2,0.3,0.4,0.4c0.1,0,0.4,0.3,0.7,0.3c0,0,0.1,0,0.2,0.2
							c0.1,0.1,0.2,0.2,0.3,0.3c0.2,0.2,0.3,0.7,0.4,1.1c0.1,0.4,0.2,0.9,0.1,1.1c0,0-0.1,0.1-0.1,0.2c0,0.1-0.1,0.1-0.2,0.1
							c-0.2,0-0.3,0.1-0.5,0.2c-0.2,0-0.4,0-0.6,0c-1,0-2.2,0.3-3.2,0.4c-1,0.1-2.3,0.1-3.1,0.3c-0.2,0.1-0.5,0.2-0.8,0.2
							c-0.3,0-0.5,0.2-0.6,0.5c0,0.1,0,0.3,0,0.3c0,0.1,0,0.2,0.1,0.3c0,0,0,0,0,0c-0.1,0.1-0.1,0.3,0,0.4c0.1,0.1,0.1,0.4,0.1,0.5
							c0,0.1-0.1,0.1,0,0.2c0.1,0,0.1,0.1,0.2,0.2c0.1,0.1,0.2,0.1,0.3,0.1c0.1,0,0.1-0.3,0.1-0.5c0-0.2,0-0.4,0.1-0.6
							c0-0.2,0.1-0.3,0.2-0.4c0.1-0.1,0.3-0.1,0.5-0.1c0.1,0,0.1,0.1,0.1,0.1c0,0,0-0.1,0-0.1c0.3,0.1,0.7,0.4,0.8,0.8
							c0.1,0.2,0.1,0.4,0.1,0.5c0,0.2,0,0.4,0,0.5c0,0.2,0,0.4,0,0.6c0,0.2,0,0.4,0.1,0.6c0,0.3,0,0.7,0.1,1c0,0.4,0.1,0.7,0.1,1.1
							c0.1,0.2,0.1,0.3,0.1,0.5c0.1,0.4,0.4,0.8,0.6,0.8c0.2,0,0.5-0.1,0.8-0.1c0.2,0,0.6-0.2,0.8-0.2c0.1,0,0.4,0.1,0.6,0
							c0.2,0,0.4-0.1,0.5-0.1c0.3-0.1,0.7,0,1-0.1c0.3-0.1,0.7-0.1,1-0.2c0.1,0,0.2,0,0.3,0c0.1,0,0.2,0.1,0.3,0.2
							c0.1,0.1,0.1,0.2,0.2,0.3c0.1,0.1,0.1,0.3,0.1,0.3c0,0,0.1,0.1,0,0.2c0,0.1,0,0.2,0,0.2c0,0.1,0.1,0.2,0,0.2
							c-0.1,0-0.1,0.2-0.1,0.2c0,0.1-0.2,0.5-0.1,0.8c0,0.1,0.1,0.2,0.2,0.2c0,0,0,0,0-0.1c0,0,0,0.1,0,0.1c0-0.1,0.1-0.1,0.1,0
							c0.2,0.4,0.4,0.9,0.5,1.4c0.1,0.7,0.2,1.5,0,1.9c-0.1,0.2-0.4,0.3-0.7,0.3c-0.3,0-0.5,0.2-0.7,0.3c-0.2,0.1-0.5,0.3-0.7,0.7
							c-0.1,0.3-0.4,0.4-0.8,0.4c-0.4,0-0.9,0.1-1.4,0.2s-0.9,0.2-1.3,0.2c-0.2,0-0.3,0-0.4,0.2c-0.1,0.1-0.3,0.3-0.3,0.4
							c-0.1,0.5,0.1,1.3,0.2,2c0.1,0.6,0.1,1.3,0.2,1.9c0,0.3,0,0.6,0,0.8c0,0.3,0.1,0.6,0.3,0.8c0.1,0.1,0.3,0.1,0.4,0.1
							c0.2,0,0.3,0,0.4,0c0.1,0,0.2,0,0.2,0c0,0,0.1-0.1,0.2-0.1c0,0,0,0,0,0.1c0.4,0,0.8,0,1.3-0.2c0.4-0.1,1-0.1,1.4-0.2
							c0.1,0,0.2-0.1,0.4-0.1c0.1,0,0.3-0.1,0.4-0.1c0.5-0.1,1.1-0.1,1.6-0.2c0.5-0.1,1-0.2,1.6-0.2c0,0,0,0.1,0,0.1c0,0,0,0,0,0
							c0,0,0,0,0,0.1c0,0,0,0,0,0c0.1,0.1,0.2,0.1,0.3,0.3c0.1,0.1,0.3,0.2,0.3,0.3c0.2,0.3,0.2,1,0.2,1.5c0.1,0.5,0.2,1.1,0.2,1.5
							c0,0.2-0.1,0.4-0.1,0.6c-0.1,0.2-0.1,0.4,0.1,0.7c0.1,0.2,0.3,0.4,0.4,0.6c0.1,0.2,0.2,0.4,0.3,0.6c0,0-0.1,0-0.1,0
							c0,0.4,0,0.7,0.1,1c0.1,0.3,0.1,0.7-0.1,1c-0.1,0.1-0.1,0.2-0.1,0.3c0,0.1-0.2,0.2-0.3,0.2c-0.1,0-0.3,0.2-0.4,0.2
							c-0.2,0-0.3,0.1-0.5,0.2c-0.4,0.1-1.1,0.1-1.6,0.1c-0.5,0-1.1,0.2-1.6,0.2c-0.3,0-0.6,0-0.9,0.1c-0.3,0.1-0.6,0.1-1,0.2
							c-0.3,0-0.7,0.1-1,0c-0.3,0-0.7-0.3-1-0.5c-0.2-0.1-0.4,0-0.4,0.1c-0.1,0.3-0.3,0.5-0.5,0.5c-0.3,0.1-0.6,0.2-0.8,0.2
							c0,0,0,0-0.1,0c-0.7,0.2-1.5,0.3-2.2,0.4c-0.7,0.1-1.6,0.2-2.3,0.3c-0.4,0-0.9-0.2-1.3-0.6c0,0,0,0-0.1,0
							c0-0.1-0.1-0.3-0.2-0.5c-0.1-0.3-0.2-0.7-0.3-1.1c0-0.4-0.2-0.8-0.2-1c-0.1-0.5-0.2-1.4-0.4-2.2c-0.2-0.8-0.3-1.6-0.4-2.2
							c-0.1-0.7-0.2-1.4-0.4-2c-0.1-0.7-0.3-1.4-0.4-2c-0.1-0.6-0.2-1.2-0.3-1.9c-0.1-0.6-0.3-1.3-0.3-1.9c0-0.2,0-0.4-0.1-0.6
							c-0.1-0.3-0.1-0.5-0.1-0.7c-0.1-1.2-0.4-2.7-0.6-4c-0.2-1.4-0.3-2.7-0.5-4c0-0.4,0-0.7,0.3-0.8c0.2-0.2,0.4-0.4,0.4-0.7
							c0.1-0.3,0-0.7-0.1-1.1c-0.1-0.4-0.1-0.8-0.1-1.1c0-0.1,0-0.3,0-0.5c0-0.2-0.1-0.4-0.3-0.5c-0.2-0.1-0.6-0.1-0.8,0
							c-0.3,0.1-0.7,0.1-0.8,0c0,0,0-0.1-0.1-0.1c0,0,0,0,0-0.1c0,0.1,0,0.1-0.1,0.1c-0.1-0.1-0.2,0-0.2,0c0,0,0-0.1-0.1-0.1
							c0,0,0,0,0,0.1c-0.1,0-0.1-0.1-0.1-0.1c0,0,0-0.1,0-0.2c0,0,0,0,0,0c-0.1-0.2-0.2-0.4-0.2-0.6c0-0.2-0.1-0.4-0.1-0.6
							c0-0.1,0-0.3,0-0.5c0-0.2,0-0.3-0.1-0.5c0,0,0,0,0,0c0-0.1,0.1-0.1,0.1-0.1c0,0-0.1,0-0.1-0.1c0,0,0,0,0-0.1
							c0-0.2,0.1-0.3,0.3-0.4c0.2-0.1,0.3-0.2,0.3-0.4c0-0.1,0-0.1,0-0.2c0-0.1,0-0.2-0.1-0.2c-0.1-0.1-0.4-0.2-0.7-0.4
							c-0.3-0.1-0.4-0.4-0.4-0.6c-0.1-0.5-0.3-1.2-0.3-1.8c-0.1-0.6-0.3-1.4-0.2-1.8c0-0.2,0.3-0.5,0.6-0.7c0.2-0.1,0.5-0.2,0.8-0.3
							c0.3-0.1,0.6-0.1,0.9-0.1c0.3,0,0.6-0.1,0.8-0.2c0.3-0.1,0.6-0.3,0.8-0.6c0.2-0.3,0.6-0.4,0.9-0.3c0.1,0,0.2,0,0.3-0.1
							c0,0,0.1,0,0.3-0.1c0,0,0,0,0,0.1c0,0,0,0,0,0c0,0,0,0,0-0.1c0,0.1,0,0.1,0,0.1c0,0,0.1,0,0.1,0c0,0,0.1-0.1,0.2-0.1
							c0.1,0,0.2,0,0.2-0.1c0.3-0.1,0.8-0.1,1.2-0.2c0.4-0.1,0.8-0.1,1.2-0.2c1.1-0.2,2.3-0.3,3.5-0.5
							C285.2,83.4,286.5,83.3,287.7,83.1z"/>
						<path fill="#FF9825" d="M309.1,79C309.1,79,309.1,79,309.1,79c0.2-0.1,0.5,0,0.7,0.1c0.2,0.1,0.4,0.3,0.6,0.5
							c0.1,0.1,0.1,0.2,0.1,0.2c0,0.1,0,0.1,0.1,0.2c0,0,0,0-0.1,0c0,0,0,0.1,0,0.1c0.1,0.3,0.2,0.7,0.3,1c0.1,0.4,0.2,0.7,0.3,1
							c0,0,0,0,0.1,0c0.1,0.3,0.1,0.5,0.1,0.7c0,0.2,0,0.5,0,0.7c-0.1,0.6-0.8,1.3-0.9,1.5c0,0,0,0.2,0,0.2c-0.1,0,0,0.1,0,0.2
							c0.1,0.1,0.2,0.3,0.4,0.3c0.1,0,0.5,0.2,0.7,0.3c0,0,0.1,0,0.2,0.1c0.1,0.1,0.2,0.2,0.3,0.2c0.2,0.2,0.3,0.7,0.4,1.1
							c0.1,0.4,0.2,0.9,0.2,1.1c0,0-0.1,0.1-0.1,0.2c0,0.1-0.1,0.1-0.2,0.2c-0.2,0.1-0.3,0.1-0.5,0.2c-0.2,0.1-0.4,0-0.6,0
							c-1,0-2.2,0.4-3.2,0.6c-1,0.2-2.3,0.2-3.1,0.5c-0.2,0.1-0.5,0.2-0.7,0.2c-0.3,0-0.5,0.2-0.5,0.5c0,0.1,0,0.3,0,0.3
							c0,0.1,0,0.2,0.1,0.3c0,0,0,0,0,0c0,0.1,0,0.3,0,0.4c0.1,0.1,0.2,0.4,0.1,0.4c0,0.1-0.1,0.2,0,0.2c0.1,0,0.1,0.1,0.2,0.1
							c0.1,0.1,0.2,0.1,0.3,0.1c0.1-0.1,0.1-0.3,0.1-0.5c0-0.2,0-0.4,0-0.6c0-0.2,0.1-0.3,0.2-0.5c0.1-0.1,0.3-0.2,0.5-0.1
							c0.1,0,0.1,0.1,0.1,0.1c0,0,0-0.1,0-0.1c0.3,0.1,0.7,0.4,0.9,0.7c0.1,0.1,0.1,0.4,0.1,0.5c0,0.2,0,0.4,0,0.5
							c0,0.2,0.1,0.4,0.1,0.6c0,0.2,0.1,0.4,0.1,0.6c0.1,0.3,0.1,0.7,0.1,1c0.1,0.4,0.1,0.7,0.1,1.1c0.1,0.2,0.1,0.3,0.2,0.4
							c0.2,0.4,0.4,0.8,0.6,0.8c0.2,0,0.5-0.1,0.8-0.2c0.2-0.1,0.6-0.2,0.8-0.2c0.1,0,0.4,0,0.6,0c0.2,0,0.4-0.1,0.5-0.2
							c0.3-0.1,0.7-0.1,1-0.2c0.3-0.1,0.7-0.1,1-0.2c0.1,0,0.2,0,0.3,0c0.1,0,0.2,0.1,0.3,0.1c0.1,0.1,0.1,0.2,0.2,0.3
							c0.1,0.1,0.1,0.3,0.1,0.3c0,0,0.1,0.1,0,0.2c0,0.1,0,0.2,0,0.2c0.1,0.1,0.1,0.2,0,0.2c-0.1,0.1,0,0.2,0,0.2
							c0,0.1-0.2,0.5,0,0.8c0,0.1,0.1,0.2,0.2,0.2c0,0,0,0,0-0.1c0,0,0,0.1,0,0.1c0-0.1,0.1-0.1,0.1,0c0.2,0.4,0.5,0.9,0.6,1.4
							c0.2,0.7,0.3,1.5,0.1,1.9c-0.1,0.2-0.3,0.3-0.6,0.4c-0.3,0-0.5,0.2-0.6,0.4c-0.2,0.2-0.5,0.4-0.6,0.7
							c-0.1,0.3-0.4,0.5-0.8,0.5c-0.4,0-0.9,0.1-1.4,0.3s-0.9,0.3-1.3,0.3c-0.2,0-0.3,0.1-0.4,0.2c-0.1,0.1-0.3,0.3-0.3,0.4
							c-0.1,0.5,0.1,1.3,0.3,1.9c0.1,0.6,0.2,1.3,0.3,1.9c0,0.3,0.1,0.6,0.1,0.8c0,0.3,0.2,0.6,0.4,0.8c0.1,0.1,0.3,0.1,0.4,0.1
							c0.2,0,0.3,0,0.4,0c0.1,0,0.2,0,0.2,0c0,0,0.1-0.1,0.2-0.1c0,0,0,0,0,0.1c0.4,0,0.8-0.1,1.3-0.2c0.4-0.2,1-0.2,1.4-0.3
							c0.1,0,0.2-0.1,0.4-0.1c0.1,0,0.3-0.1,0.4-0.1c0.5-0.1,1.1-0.2,1.6-0.3c0.5-0.1,1-0.2,1.6-0.3c0,0,0,0.1,0,0.1c0,0,0,0,0,0
							c0,0,0,0,0,0.1c0,0,0,0,0,0c0.1,0.1,0.2,0.1,0.4,0.2c0.1,0.1,0.3,0.2,0.3,0.3c0.2,0.3,0.2,1,0.3,1.5c0.1,0.5,0.3,1,0.3,1.5
							c0,0.2,0,0.4-0.1,0.6c-0.1,0.2,0,0.4,0.1,0.7c0.1,0.2,0.3,0.3,0.4,0.5c0.1,0.2,0.3,0.4,0.4,0.6c0,0-0.1,0-0.1,0
							c0,0.4,0.1,0.7,0.2,1c0.1,0.3,0.1,0.7,0,1c0,0.1-0.1,0.2-0.1,0.3c0,0.1-0.2,0.2-0.3,0.2c-0.1,0-0.3,0.2-0.4,0.2
							c-0.2,0-0.3,0.1-0.5,0.2c-0.4,0.2-1.1,0.2-1.6,0.2c-0.5,0.1-1.1,0.3-1.6,0.3c-0.3,0-0.6,0-0.9,0.1c-0.3,0.1-0.6,0.2-0.9,0.2
							c-0.3,0.1-0.7,0.1-1,0.1c-0.3,0-0.7-0.3-1-0.4c-0.2-0.1-0.4,0-0.4,0.1c-0.1,0.3-0.2,0.5-0.5,0.6c-0.3,0.1-0.5,0.2-0.8,0.3
							c0,0,0,0-0.1,0c-0.7,0.2-1.5,0.4-2.2,0.5c-0.7,0.1-1.6,0.3-2.3,0.4c-0.4,0.1-0.9-0.1-1.3-0.5c0,0,0,0-0.1,0
							c0-0.1-0.1-0.2-0.2-0.5c-0.2-0.3-0.3-0.7-0.3-1.1c-0.1-0.4-0.2-0.8-0.3-1c-0.2-0.5-0.2-1.4-0.5-2.2c-0.3-0.8-0.4-1.5-0.6-2.2
							c-0.1-0.7-0.3-1.4-0.5-2c-0.2-0.7-0.3-1.3-0.5-2c-0.1-0.6-0.3-1.2-0.4-1.9c-0.1-0.6-0.4-1.3-0.4-1.9c0-0.2,0-0.4-0.1-0.6
							c-0.1-0.3-0.1-0.5-0.2-0.7c-0.1-1.2-0.5-2.6-0.8-4c-0.3-1.4-0.5-2.7-0.7-4c-0.1-0.4,0-0.7,0.2-0.8c0.2-0.2,0.4-0.4,0.4-0.8
							c0-0.4,0-0.7-0.1-1.1c-0.1-0.4-0.2-0.8-0.2-1.1c0-0.1,0-0.3-0.1-0.5c0-0.2-0.1-0.4-0.3-0.4c-0.3-0.1-0.6-0.1-0.8,0
							c-0.3,0.1-0.7,0.2-0.8,0.1c0,0,0-0.1-0.1,0c0,0,0,0,0-0.1c0,0.1,0,0.1-0.1,0.1c-0.1-0.1-0.2,0-0.2,0c0,0,0-0.1-0.1-0.1
							c0,0,0,0,0,0.1c-0.1,0-0.1-0.1-0.1-0.1c0,0,0-0.1-0.1-0.2c0,0,0,0,0,0c-0.1-0.2-0.2-0.4-0.2-0.6c0-0.2-0.1-0.4-0.2-0.6
							c0-0.1,0-0.3-0.1-0.5c0-0.2-0.1-0.3-0.1-0.5c0,0,0,0,0,0c0-0.1,0.1-0.1,0.1-0.1c0,0-0.1,0-0.1,0c0,0,0,0,0-0.1
							c0-0.2,0.1-0.3,0.3-0.4c0.2-0.1,0.3-0.2,0.3-0.4c0-0.1,0-0.1,0-0.2c0-0.1,0-0.2-0.1-0.2c-0.1-0.1-0.4-0.2-0.7-0.3
							c-0.3-0.1-0.4-0.3-0.5-0.5c-0.1-0.5-0.3-1.1-0.4-1.7c-0.1-0.6-0.3-1.3-0.3-1.8c0-0.2,0.3-0.5,0.5-0.7c0.2-0.2,0.5-0.3,0.8-0.3
							c0.3-0.1,0.6-0.1,0.9-0.2c0.3,0,0.6-0.1,0.8-0.2c0.3-0.1,0.6-0.3,0.8-0.6c0.2-0.3,0.6-0.4,0.9-0.4c0.1,0,0.2-0.1,0.3-0.1
							c0,0,0.1-0.1,0.3-0.1c0,0,0,0,0,0.1c0,0,0,0,0,0c0,0,0,0,0-0.1c0,0.1,0,0.1,0,0.1c0,0,0.1,0,0.1,0c0,0,0.1-0.1,0.2-0.1
							c0.1,0,0.2,0,0.2-0.1c0.3-0.1,0.8-0.2,1.2-0.2c0.4-0.1,0.8-0.2,1.2-0.3c1.1-0.3,2.3-0.5,3.5-0.7
							C306.6,79.5,307.9,79.3,309.1,79z"/>
						<path fill="#FF9825" d="M338.4,71.7c0.1,0.1,0.2,0.3,0.2,0.4c0,0.2,0.2,0.3,0.3,0.3c0.1,0,0.2-0.2,0.2-0.4c0-0.2,0-0.4,0-0.6
							c0-0.2,0.1-0.3,0.2-0.4c0.1-0.1,0.3-0.1,0.5,0c0.2,0.1,0.3,0.2,0.4,0.4c0,0.2,0.1,0.4,0.2,0.6c0.1,0.3,0.1,0.9,0.3,1.4
							c0.2,0.5,0.3,1,0.4,1.5c0.4,1.4,0.8,2.8,1.2,4.2c0.4,1.4,0.8,2.8,1.2,4.2c0.8,2.5,1.2,3.8,1.9,6.3c0.9,2.7,1.8,5.4,2.7,8
							c0.9,2.7,2.3,7.6,3,8c0,0,0.1,0,0.1-0.1c0,0,0,0,0-0.1c0,0.3,0.3,0.7,0.3,0.7c0,0,0,0.1,0,0.2c0,0.1,0.1,0.1,0.1,0.2
							c0,0,0,0,0.1,0c-0.1,0,0.1,0.2,0.1,0.2c0,0,0,0,0,0.1c0.1,0.2,0.2,0.5,0.3,0.8c0.1,0.3,0.3,0.7,0.3,0.9c0,0.1,0,0.2,0,0.3
							c0,0.1,0,0.2,0,0.2c0,0.2-0.2,0.4-0.6,0.5c-0.3,0.1-0.7,0.2-0.9,0.2c-0.2,0-0.3-0.1-0.4-0.1c0,0,0,0.1,0.1,0.1
							c-0.1,0-0.2-0.1-0.3-0.2c-0.1-0.1-0.2-0.2-0.4-0.2c-0.2,0-0.3,0.1-0.3,0.3c0,0.2-0.1,0.4-0.2,0.5c-0.1,0.2-0.3,0.4-0.6,0.4
							c-0.3,0-0.6,0.2-0.8,0.2c-0.2,0-0.7-0.1-0.7-0.1c0,0,0,0-0.1,0c-0.1-0.1-0.3-0.3-0.6-0.5c-0.2-0.2-0.4-0.4-0.6-0.6
							c-0.9-0.9-2-1.8-3.1-2.7c-1-0.9-2.1-2.2-3-2.8c-0.4-0.2-1.1-0.5-1.5-0.9c-0.5-0.5-0.9-0.8-1.3-1.2c0,0,0,0,0,0
							c-0.8-0.8-1.7-1.6-2.6-2.5c-0.9-0.8-1.8-1.8-2.7-2.5c-0.2-0.2-0.5-0.3-0.6-0.5c-0.2-0.2-0.4-0.4-0.7-0.5
							c-0.2-0.1-0.5,0.1-0.5,0.3c-0.1,0.3,0,0.7,0.1,1.2c0.7,2.5,1.4,5.2,2.1,7.8c0.7,2.6,1.5,5.2,2.3,7.7c0,0,0.1,0.1,0.1,0.1
							c0,0.4,0,0.8-0.2,1.1c0,0,0,0,0.1,0c-0.1,0.2-0.2,0.3-0.5,0.3c-0.2,0-0.5,0.1-0.6,0.2c-0.1,0-0.4-0.1-0.7-0.2c0,0,0,0,0,0
							c0,0-0.1-0.1-0.2-0.2c-0.1-0.1-0.2-0.1-0.3-0.2c-0.2-0.5-0.3-0.7-0.5-1.1c-0.1-0.1-0.1-0.1-0.2-0.2c-0.1,0-0.2-0.1-0.3-0.1
							c-0.2,0-0.3,0.3-0.2,0.4c0.1,0.1,0.1,0.2,0.1,0.3c-0.1,0.1,0.1,0.2,0.1,0.3c0,0.1,0,0.4,0,0.6c0.1,0.2,0.1,0.4,0.1,0.4
							c0,0.2-0.1,0.4-0.2,0.6c-0.1,0.2-0.3,0.3-0.5,0.3c-0.2,0.1-0.5,0.2-0.9,0.2c-0.3,0-0.6,0.1-0.9,0.2c-0.3,0.1-0.8,0-1.1-0.3
							c-0.4-0.3-0.7-0.8-0.8-1.3c-0.2-0.5-0.3-1-0.5-1.3c-0.4-0.9-0.6-1.8-0.9-2.7c-0.3-0.9-0.6-1.7-0.9-2.5
							c-0.1-0.4-0.3-0.9-0.5-1.4c0,0,0-0.1,0-0.1c-0.2-0.6-0.4-1.1-0.6-1.8c-0.2-0.6-0.3-1.3-0.5-1.8c0-0.1-0.1-0.3-0.1-0.4
							c0-0.2-0.1-0.3-0.2-0.5c-0.9-2.5-1.6-5.5-2.4-8.4c-0.8-2.8-1.6-5.7-2.1-8.4c0-0.1,0-0.2-0.1-0.4c0-0.1-0.1-0.3-0.1-0.4
							c0-0.1,0-0.3,0.1-0.4c0.1-0.4,0.2-1,0-1.5c-0.2-0.6-0.3-1.2-0.4-1.7c-0.1-0.4-0.1-0.8-0.2-1.1c-0.1-0.4-0.1-0.8-0.2-1.1
							c-0.1-0.2-0.1-0.5,0-0.7c0.1-0.2,0.2-0.4,0.3-0.5c0.2-0.2,0.7-0.3,1.2-0.3c0.4-0.1,1-0.3,1.2-0.3c0.4,0,1,0.7,1.3,1.1
							c0.1,0.2,0.2,0.2,0.3,0.2c0.2,0,0.4-0.1,0.3-0.3c-0.1-0.2,0-0.5,0-0.6c0-0.2,0-0.5,0.1-0.8c0.2-0.3,0.6-0.3,1-0.1
							c0.4,0.2,0.8,0.4,1,0.7c1,0.9,1.9,1.9,2.9,2.9c1,0.9,2.4,2,2.9,2.9c0,0.1,0.1,0.2,0.1,0.2c0.1,0,0.1,0.1,0.2,0.1
							c1.2,1.2,2.4,2.5,3.6,3.7c1.2,1.2,2.5,2.8,3.6,3.7c0.1,0.1,0.2,0.1,0.3,0.2c0.1,0.1,0.2,0,0.3,0c0.2-0.2,0.3-0.4,0.1-0.6
							c-0.2-0.3-0.3-0.5-0.3-0.8c-0.6-2.1-1.6-4.7-2.5-7.2c-0.9-2.5-1.7-5-2.4-7.4c0-0.1-0.1-0.3-0.1-0.5c0-0.1,0-0.3,0-0.4
							c0-0.3,0.1-0.6,0.5-0.7c0.4-0.1,0.7-0.3,0.9-0.3c0.1,0,0.2,0,0.3,0c0.1,0,0.2,0,0.3,0.1c0.2,0.1,0.3,0.2,0.4,0.4
							c0.1,0.1,0.2,0.3,0.2,0.5c0,0.2,0.1,0.5,0.2,0.8c0.2,0.3,0.3,0.6,0.3,0.9c0.1,0.3,0.3,0.4,0.4,0.5c0.1,0,0.3,0,0.3-0.1
							c0.1-0.4,0-0.9-0.2-1.4c-0.1-0.5-0.3-1-0.3-1.5c0,0,0,0,0.1,0c0-0.1,0-0.1-0.1-0.2c0.1,0.1,0.1,0,0.1,0c-0.1-0.1,0-0.2,0-0.2
							c0.1-0.2,0.2-0.4,0.3-0.4c0.2-0.1,0.3-0.1,0.5-0.2c0.2-0.1,0.5-0.2,0.8-0.2C337.8,71.4,338.1,71.5,338.4,71.7z"/>
					</g>
				</g>
				<g>
					<g>
						<path fill="#FFEACC" d="M398.2,66.2c4.4,8.8-2.6,19-11.2,22.7c-8.6,3.7-20.6,1.8-24-7.4c-3.2-8.7,3.2-18.1,11.5-21.7
							C382.8,56.1,394.1,57.9,398.2,66.2z"/>
						<g>
							<g>
								<path fill="#FFEACC" d="M376.4,89.8c0,0-1.1,8,0.7,8.5c1.8,0.6,4.8-1.1,4.8-2.6c0-1.5-0.7-5.8-0.7-5.8
									C379.2,89.9,378.3,89.9,376.4,89.8z"/>
								<path fill="#FFEACC" d="M382.8,89.2c0,0,0.5,5.9,1.9,6.1c1.4,0.3,3.1-1.1,2.9-2.2c-0.2-1.1-1.5-4.1-1.5-4.1
									C384.8,89.1,384.2,89.1,382.8,89.2z"/>
							</g>
							<g>
								<path fill="#FFEACC" d="M395,81.7c0,0,6.6,4.6,5.8,6.3c-0.8,1.7-4.1,2.8-5.2,1.8c-1.1-1-3.7-4.5-3.7-4.5
									C393.2,83.9,393.8,83.2,395,81.7z"/>
								<path fill="#FFEACC" d="M390.1,86c0,0,3.9,4.4,3.2,5.6c-0.7,1.2-3,1.5-3.6,0.6c-0.6-0.9-2-3.9-2-3.9
									C388.6,87.4,389.1,86.9,390.1,86z"/>
							</g>
						</g>
						<g>
							<path fill="#381324" d="M375.1,72.5c-2.7,0-5.2,2.6-5.7,5.7c-0.5,3.1,1.3,5.7,4.1,5.7c2.8,0,5.4-2.6,5.8-5.8
								C379.7,75,377.8,72.5,375.1,72.5z"/>
							<path fill="#381324" d="M391.4,68.7c-2.6-1.8-6.2-1.7-8.1,0.3c-1.9,2-1.4,5.1,1.2,6.9c2.6,1.9,6.3,1.7,8.2-0.3
								C394.7,73.6,394.1,70.5,391.4,68.7z"/>
						</g>
						<path fill="#381324" d="M383.2,80.1c0,0-1.8,4.3-1.2,5.2c0.7,0.8,2.9-1.2,2.9-1.2s3-0.2,2.8-1.3
							C387.6,81.7,383.2,80.1,383.2,80.1z"/>
					</g>
					<g>
						<path fill="#FFEACC" d="M101.6,82c-3.4,9.3-15.4,11.2-24,7.5C69,85.9,62,75.8,66.3,66.9c4.1-8.3,15.4-10.2,23.7-6.6
							C98.3,63.9,104.8,73.3,101.6,82z"/>
						<g>
							<g>
								<path fill="#FFEACC" d="M69.5,82.4c0,0-6.6,4.6-5.7,6.3c0.8,1.7,4.1,2.7,5.2,1.7c1.1-1,3.7-4.5,3.7-4.5
									C71.4,84.6,70.8,83.9,69.5,82.4z"/>
								<path fill="#FFEACC" d="M74.4,86.7c0,0-3.9,4.4-3.1,5.6c0.7,1.2,3,1.5,3.6,0.6c0.6-0.9,2-3.9,2-3.9
									C75.9,88.1,75.4,87.6,74.4,86.7z"/>
							</g>
							<g>
								<path fill="#FFEACC" d="M88.2,90.4c0,0,1.2,7.9-0.6,8.5c-1.8,0.6-4.8-1-4.8-2.5c-0.1-1.5,0.7-5.8,0.7-5.8
									C85.4,90.5,86.3,90.5,88.2,90.4z"/>
								<path fill="#FFEACC" d="M81.8,89.8c0,0-0.5,5.9-1.9,6.1c-1.4,0.3-3.1-1.1-2.9-2.2c0.2-1.1,1.4-4.1,1.4-4.1
									C79.7,89.7,80.4,89.7,81.8,89.8z"/>
							</g>
						</g>
						<g>
							<path fill="#381324" d="M81.2,69.6c-1.9-1.9-5.5-2-8.1-0.2c-2.6,1.8-3.2,4.9-1.3,6.9c1.9,2,5.6,2.1,8.2,0.2
								C82.6,74.6,83,71.5,81.2,69.6z"/>
							<path fill="#381324" d="M95.2,78.8c-0.5-3.1-3-5.7-5.7-5.7c-2.7,0-4.6,2.5-4.2,5.6c0.4,3.2,3.1,5.8,5.8,5.8
								S95.7,81.9,95.2,78.8z"/>
						</g>
						<path fill="#381324" d="M81.3,80.7c0,0-4.4,1.7-4.5,2.7c-0.1,1.1,2.8,1.3,2.8,1.3s2.2,2,2.9,1.2C83.2,85,81.3,80.7,81.3,80.7z
							"/>
					</g>
				</g>
			</g>
		</g>
	</g>
</g>
</svg>
