<?xml version="1.0" encoding="utf-8"?>
<!-- Generator: Adobe Illustrator 18.1.1, SVG Export Plug-In . SVG Version: 6.00 Build 0)  -->
<svg version="1.1" xmlns="http://www.w3.org/2000/svg" xmlns:xlink="http://www.w3.org/1999/xlink" x="0px" y="0px"
	 viewBox="0 0 199.4 179" enable-background="new 0 0 199.4 179" xml:space="preserve">
<g id="Background">
</g>
<g id="Objects">
	<g>
		<g>
			<g>
				<polygon fill="#381324" points="107.2,55.2 131.9,4.8 120.1,0 101.3,54.6 				"/>
				<polygon fill="#381324" points="139,23.4 98.4,6 98.9,21.6 133.7,32.4 				"/>
			</g>
			<g>
				<polygon fill="#381324" points="32,63.5 17.2,33.4 24.2,30.6 35.5,63.2 				"/>
				<polygon fill="#381324" points="13,44.5 37.2,34.1 36.9,43.5 16.1,49.9 				"/>
			</g>
			<g>
				<g>
					<g opacity="0.2">
						<g>
							<path fill="#381324" d="M36.3,19.9c0,0,4.5,4.1,11,10.4c1.6,1.6,3.4,3.3,5.2,5.1c1.8,1.8,3.8,3.8,5.7,5.8c2,2,4,4.1,6.1,6.2
								c2.1,2.1,4.1,4.3,6.2,6.5c2.1,2.2,4.1,4.4,6.1,6.5c2,2.1,4,4.3,5.9,6.4c3.8,4.1,7.3,8,10.3,11.4c6,6.7,9.8,11.4,9.8,11.4
								s-4.5-4.1-11-10.4c-3.2-3.2-7-6.9-10.9-10.9c-2-2-4-4.1-6.1-6.2c-2.1-2.1-4.1-4.3-6.2-6.5c-2.1-2.2-4.1-4.4-6.1-6.5
								c-2-2.2-4-4.3-5.9-6.4c-1.9-2.1-3.7-4.1-5.5-6c-1.7-1.9-3.3-3.7-4.8-5.4C40.1,24.5,36.3,19.9,36.3,19.9z"/>
						</g>
						<g>
							<path fill="#381324" d="M36.3,19.9c0,0,4.5,4.1,11,10.4c1.6,1.6,3.4,3.3,5.2,5.1c1.8,1.8,3.8,3.8,5.7,5.8c2,2,4,4.1,6.1,6.2
								c2.1,2.1,4.1,4.3,6.2,6.5c2.1,2.2,4.1,4.4,6.1,6.5c2,2.1,4,4.3,5.9,6.4c3.8,4.1,7.3,8,10.3,11.4c6,6.7,9.8,11.4,9.8,11.4
								s-4.5-4.1-11-10.4c-3.2-3.2-7-6.9-10.9-10.9c-2-2-4-4.1-6.1-6.2c-2.1-2.1-4.1-4.3-6.2-6.5c-2.1-2.2-4.1-4.4-6.1-6.5
								c-2-2.2-4-4.3-5.9-6.4c-1.9-2.1-3.7-4.1-5.5-6c-1.7-1.9-3.3-3.7-4.8-5.4C40.1,24.5,36.3,19.9,36.3,19.9z"/>
						</g>
						<g>
							<path fill="#381324" d="M123.5,0.2c0,0-0.9,5.7-2.5,14.1c-0.4,2.1-0.8,4.4-1.3,6.8c-0.5,2.4-1,5-1.6,7.6
								c-0.6,2.6-1.1,5.4-1.8,8.1c-0.6,2.8-1.3,5.6-1.9,8.4c-0.7,2.8-1.3,5.6-2,8.3c-0.6,2.8-1.4,5.4-2,8.1
								c-1.3,5.2-2.6,10.1-3.8,14.3c-2.3,8.3-4,13.8-4,13.8s0.8-5.7,2.5-14.1c0.8-4.2,1.8-9.1,2.9-14.4c0.6-2.6,1.1-5.4,1.8-8.1
								c0.6-2.8,1.3-5.6,1.9-8.4c0.7-2.8,1.3-5.6,2-8.3c0.6-2.8,1.4-5.4,2-8.1c0.6-2.6,1.3-5.1,1.9-7.5c0.6-2.4,1.2-4.6,1.8-6.7
								C121.7,5.7,123.5,0.2,123.5,0.2z"/>
						</g>
						<g>
							<path fill="#381324" d="M194.6,49.2c0,0-5.5,2.9-14,7c-2.1,1-4.4,2.1-6.9,3.3c-2.4,1.1-5,2.4-7.7,3.6
								c-2.7,1.2-5.4,2.5-8.3,3.7c-2.8,1.3-5.7,2.5-8.6,3.8c-2.9,1.3-5.8,2.5-8.6,3.7c-2.8,1.2-5.7,2.4-8.4,3.6
								c-5.4,2.3-10.5,4.4-14.9,6.1c-8.8,3.5-14.7,5.7-14.7,5.7s5.5-2.9,14-7c4.2-2,9.2-4.4,14.6-6.8c2.7-1.2,5.4-2.5,8.3-3.7
								c2.8-1.3,5.7-2.5,8.6-3.8c2.9-1.3,5.8-2.5,8.6-3.7c2.8-1.2,5.7-2.4,8.4-3.6c2.7-1.2,5.4-2.2,7.9-3.3c2.5-1,4.9-2,7.1-2.9
								C188.7,51.4,194.6,49.2,194.6,49.2z"/>
						</g>
						<g>
							<path fill="#381324" d="M195.1,129.4c0,0-6-2.1-14.8-5.6c-2.2-0.9-4.6-1.8-7.1-2.8c-2.5-1-5.2-2.1-7.9-3.2
								c-2.7-1.1-5.6-2.3-8.4-3.5c-2.9-1.2-5.7-2.4-8.6-3.7c-2.9-1.3-5.8-2.5-8.6-3.7c-2.8-1.2-5.6-2.5-8.3-3.7
								c-5.4-2.4-10.4-4.7-14.6-6.7c-8.5-4-14.1-6.8-14.1-6.8s6,2.1,14.8,5.6c4.4,1.7,9.5,3.8,15,6c2.7,1.1,5.6,2.3,8.4,3.5
								c2.9,1.2,5.7,2.4,8.6,3.7c2.9,1.3,5.8,2.5,8.6,3.7c2.8,1.2,5.6,2.5,8.3,3.7c2.7,1.2,5.3,2.4,7.7,3.5c2.5,1.1,4.8,2.2,6.9,3.2
								C189.5,126.5,195.1,129.4,195.1,129.4z"/>
						</g>
						<g>
							<path fill="#381324" d="M124.4,179c0,0-1.8-5.5-4.2-13.8c-0.6-2.1-1.2-4.3-1.9-6.7c-0.7-2.4-1.4-4.9-2-7.5
								c-0.7-2.6-1.4-5.3-2.1-8c-0.7-2.7-1.4-5.5-2.1-8.3c-0.7-2.8-1.3-5.6-2-8.3c-0.7-2.7-1.3-5.5-1.9-8.1
								c-1.2-5.3-2.2-10.2-3.1-14.4c-1.7-8.4-2.6-14.1-2.6-14.1s1.8,5.5,4.2,13.8c1.2,4.2,2.5,9,3.9,14.2c0.7,2.6,1.4,5.3,2.1,8
								c0.7,2.7,1.4,5.5,2.1,8.3c0.7,2.8,1.3,5.6,2,8.3c0.7,2.7,1.3,5.5,1.9,8.1c0.6,2.6,1.1,5.2,1.7,7.6c0.5,2.4,1,4.7,1.4,6.8
								C123.5,173.3,124.4,179,124.4,179z"/>
						</g>
						<g>
							<path fill="#381324" d="M37,160c0,0,3.7-4.7,9.6-11.4c1.5-1.7,3.1-3.5,4.8-5.5c1.7-1.9,3.5-4,5.4-6c1.9-2.1,3.8-4.3,5.8-6.4
								c2-2.2,4-4.4,6.1-6.6c2.1-2.2,4.1-4.4,6.2-6.5c2-2.2,4.1-4.2,6-6.3c3.9-4.1,7.6-7.8,10.8-11c6.4-6.4,10.9-10.5,10.9-10.5
								s-3.7,4.7-9.6,11.4c-2.9,3.4-6.4,7.3-10.2,11.5c-1.9,2.1-3.8,4.3-5.8,6.4c-2,2.2-4,4.4-6.1,6.6c-2.1,2.2-4.1,4.4-6.2,6.5
								c-2,2.2-4.1,4.2-6,6.3c-1.9,2-3.9,4-5.7,5.8c-1.8,1.9-3.5,3.6-5.1,5.2C41.5,155.9,37,160,37,160z"/>
						</g>
						<g>
							<path fill="#381324" d="M0,87c0,0,6.4-0.2,16.1-0.3c2.4,0,5,0,7.8,0c2.8,0,5.7,0,8.7,0.1c3,0,6.1,0.1,9.3,0.1
								c3.2,0.1,6.4,0.1,9.6,0.2c3.2,0.1,6.4,0.2,9.6,0.3c3.2,0.1,6.3,0.2,9.3,0.3c6,0.2,11.6,0.5,16.4,0.8c9.6,0.5,16,1.1,16,1.1
								s-6.4,0.2-16.1,0.3c-4.8,0-10.4,0-16.4-0.1c-3,0-6.1-0.1-9.3-0.1c-3.2-0.1-6.4-0.1-9.6-0.2c-3.2-0.1-6.4-0.2-9.6-0.3
								c-3.2-0.1-6.3-0.2-9.3-0.4c-3-0.1-5.9-0.3-8.7-0.4c-2.8-0.1-5.4-0.3-7.8-0.4C6.4,87.6,0,87,0,87z"/>
						</g>
						<g>
							<path fill="#381324" d="M119.8,159.3l-1.6-1.4c-0.2-0.1-16.4-13.8-43-13.8c-8.3,0-16.8,1.3-25.4,3.9l-2.9,0.9l1.1-2.5
								c0-0.1,3.7-8.4,1.5-19.7C46.6,111.8,34.8,98.4,15.3,88l-2.4-1.3l2.7-0.9c0.1,0,10.2-3.6,18.6-12.4
								c11.2-11.8,14.1-26.8,8.7-44.7l-0.7-2.4l2.6,1c0.1,0,10.2,3.7,24.8,3.7c18,0,34.6-5.3,49.3-15.9l1.9-1.3l0.4,2.1
								c0,0.1,1.6,8.6,9.7,17.5c13.6,14.9,34.7,19.5,50,20.8l2,0.2l-0.9,1.6c-0.2,0.3-17.9,32,4,68.4l1.2,1.9l-2.5-0.1
								c0,0-0.8,0-2.1,0c-8.6,0-51.8,1.5-62,31.3L119.8,159.3z M75.2,141.6c23.2,0,38.5,9.6,43.3,13.2
								c11.8-29.6,54.9-31.2,63.9-31.3c-18.2-32.1-7-60.3-3.7-67.2c-15.7-1.6-36.5-6.7-50.1-21.7c-6.2-6.9-8.7-13.4-9.7-16.5
								c-14.7,10.1-31.3,15.2-49.3,15.2c-11,0-19.4-2-23.4-3.1c5.9,22.1-2.1,36.5-10,44.8C29.8,81.7,22.7,85.5,19,87.1
								c13.7,7.7,29.7,20.4,33.4,39.3c1.6,8.4,0.2,15.1-0.8,18.5C59.5,142.8,67.4,141.6,75.2,141.6z"/>
						</g>
						<g>
							<path fill="#381324" d="M116.1,143.6l-1.6-1.3c-0.1-0.1-12.4-9.9-32.5-9.9c-6.6,0-13.5,1.1-20.3,3.1l-2.8,0.9l1.1-2.5
								c0.4-1,10.6-25.5-25.8-44.8l-2.4-1.2l2.5-1c1.3-0.5,31-12.2,21-45.2l-0.7-2.4l2.6,0.9c0.1,0,8.1,2.8,19.5,2.8
								c14.2,0,27.2-4.1,38.6-12.3l1.9-1.4l0.4,2.1c0.2,1.1,5.1,26.7,46.1,30.1l2.1,0.2l-1,1.7c-0.1,0.2-14.6,24.4,2.3,52.6l1.2,2
								l-2.5-0.1c0,0-0.8,0-2.1,0c-3.9,0-14,0.4-23.8,3.6c-12,4-19.7,10.8-22.9,20.2L116.1,143.6z M81.9,129.9
								c17.2,0,28.7,6.6,32.8,9.4c3.8-9.3,11.9-16.1,24-20.1c10.2-3.4,20.6-3.8,24.7-3.8c-13.5-24.3-5-45.5-2.1-51.5
								c-12.2-1.3-28.2-5.4-38.7-17.2c-4.6-5.2-6.6-10.2-7.5-12.8c-11.4,7.6-24.7,11.7-38.6,11.7c-8.2,0-14.7-1.4-18-2.3
								c7.2,28.1-13.8,41.2-21,44.8c10.6,6,23,15.9,25.9,30.4c1.3,6.2,0.4,11.2-0.3,13.9C69.5,130.8,75.8,129.9,81.9,129.9z"/>
						</g>
						<g>
							<path fill="#381324" d="M111.9,126.5l-1.6-1.3c-0.1-0.1-7.8-6.2-21-6.2c-4.6,0-9.4,0.7-14.2,2.2l-2.7,0.8l1-2.4
								c0.3-0.7,6.3-16.8-18.4-29.9l-2.6-1.4l2.9-0.9C56,87.1,77.4,80.3,70.7,58L70,55.8l2.4,0.7c0,0,3.9,1.1,9.8,1.1
								c7.2,0,18-1.6,28.8-9.3l1.9-1.4l0.3,2.2c0.1,0.8,3.3,18.6,31.1,20.9l2.2,0.2l-1.1,1.7c-0.1,0.2-10.5,16.2,1,35.4l1.2,2
								l-2.5-0.2c0,0-0.9-0.1-2.4-0.1c-22.4,0-28.6,10.9-30.2,15.6L111.9,126.5z M89.2,116.4c10.9,0,18.2,3.8,21.3,5.7
								c6.4-14.5,26.1-15.7,32.2-15.7c0.1,0,0.1,0,0.2,0c-8.7-16.2-3.3-29.7-0.8-34.3c-22.8-2.6-29.4-15.8-31.1-20.9
								c-10.8,7.2-21.5,8.7-28.8,8.7c-3.6,0-6.5-0.4-8.4-0.7c4.4,18.4-9.5,26.7-15.4,29.4c19,11,18.9,24.2,18,29.4
								C80.8,117,85.1,116.4,89.2,116.4z"/>
						</g>
						<g>
							<path fill="#381324" d="M107.9,110.4l-1.6-1.3c-0.1-0.1-3.6-2.8-10.2-2.8c-2.7,0-5.5,0.5-8.4,1.3l-2.5,0.8l0.7-2.3
								c0.1-0.3,2.4-8.6-11.3-15.9l-2.8-1.5l3.1-0.8c0.5-0.1,12.9-3.5,9.3-15.6l-0.6-1.9l2.2,0.4c0,0,1,0.2,2.8,0.2
								c3.7,0,11.1-0.8,18.6-6.1l2-1.5l0.2,2.3c0,0.4,1.4,11.1,16.7,12.4l2.4,0.2l-1.4,1.8c-0.3,0.3-6.5,8.3-0.2,18.9l1.3,2.1
								l-2.7-0.3c0,0-1-0.1-2.4-0.1c-4.4,0-12.2,1-14.6,7.9L107.9,110.4z M96.1,103.7c5.1,0,8.6,1.4,10.5,2.5
								c3.6-7.3,12.6-8.1,16.6-8.1c0.1,0,0.2,0,0.3,0c-4-8.2-1.4-14.9,0.3-17.9c-7.8-1.2-12-4.7-14.2-7.6c-1.3-1.8-2.1-3.5-2.5-4.7
								c-7.5,4.7-14.7,5.5-18.5,5.5c-0.5,0-0.9,0-1.3,0c2,9.6-5,14.2-9,16c9.5,5.8,10.7,12.1,10.5,15.3
								C91.3,104,93.8,103.7,96.1,103.7z"/>
						</g>
						<g>
							<path fill="#381324" d="M105.2,99.5l-1.6-1.5c-0.1,0-1.6-1.4-3.6-1.4c-0.9,0-1.9,0.3-2.8,0.9L94.9,99l0-2.4
								c0-0.2-0.2-4.9-4.8-5.9l-3.2-0.7l2.9-1.5c0.2-0.1,4.6-2.6,2.4-7.7l-0.9-2.3l2.6,0.6c0,0,1.1,0.3,2.7,0.3c2,0,5-0.4,7.8-2.4
								l1.9-1.4l0.3,2.2c0,0.2,0.9,4.9,7.8,5.5l3.4,0.3l-2.6,1.9c-0.2,0.1-4.2,3.2-1.5,7.8l1.6,2.7L112,95c0,0-0.8-0.2-1.9-0.2
								c-2.2,0-3.6,0.9-4.3,2.8L105.2,99.5z M99.9,94.2c1.6,0,3,0.5,4,1c1.2-1.9,3.4-3,6.2-3c0,0,0.1,0,0.1,0
								c-0.8-2.8,0.1-5.3,1.4-7c-4-1-6.2-3.4-7.1-5.4c-3.5,1.9-6.9,2-9,1.9c0.6,3.3-0.7,5.7-2.3,7.3c2.5,1.3,3.8,3.6,4.3,5.5
								C98.2,94.3,99.1,94.2,99.9,94.2z"/>
						</g>
						<g>
							<path fill="#381324" d="M118.3,151.8l-0.9-0.2c0.1-0.3,2-7.9,10.3-15.5c7.7-7,22.4-15.3,49.2-15l0,0.8
								c-14.6-0.2-34.9,2.2-48.5,14.7C120.3,144.1,118.3,151.7,118.3,151.8z"/>
						</g>
						<g>
							<path fill="#381324" d="M50.3,88.8l-0.4-0.8c0.2-0.1,23.8-10.1,17.6-34.6l0.9-0.2c3.3,13.1-1.8,22.1-6.6,27.3
								C56.5,86.2,50.6,88.7,50.3,88.8z"/>
						</g>
						<g>
							<path fill="#381324" d="M134.1,76c-11.1,0-17.3-4.3-20.6-7.9c-3.6-4-4.5-7.9-4.5-8.1l0.9-0.2c0.1,0.6,3.6,15.3,24.2,15.3
								c0.1,0,0.2,0,0.3,0l0,0.8C134.3,76,134.2,76,134.1,76z"/>
						</g>
						<g>
							<path fill="#381324" d="M153,66.5c-26.4,0-38.7-28.4-38.8-28.7l0.9-0.3c0.1,0.3,13.8,31.8,43.1,27.8l0.1,0.8
								C156.5,66.4,154.7,66.5,153,66.5z"/>
						</g>
						<g>
							<path fill="#381324" d="M83.5,110.9l-0.9-0.1c1.9-16.3-16.7-21.5-16.9-21.6l0.3-0.8C66.1,88.5,85.5,93.9,83.5,110.9z"/>
						</g>
					</g>
					<g>
						<g>
							<g>
								<ellipse fill="#381324" cx="149.1" cy="142.6" rx="8.3" ry="5.8"/>
								<ellipse fill="#381324" cx="149.1" cy="147.7" rx="5.6" ry="3.4"/>
							</g>
							<g>
								<g>
									<path fill="#381324" d="M143,146.1l-5.9-1.2l0.5-0.5l-0.5,6.3l-0.5-6.3c0-0.2,0.2-0.5,0.4-0.5c0,0,0.1,0,0.1,0l0.1,0l6,0.8
										c0.4,0,0.6,0.4,0.6,0.8C143.7,145.9,143.4,146.2,143,146.1C143,146.1,143,146.1,143,146.1z"/>
									<path fill="#381324" d="M141.1,143.8l-5.9-2.2l0.6-0.3l-2.8,8.6l1.9-8.9c0.1-0.2,0.3-0.4,0.5-0.3l0,0l0,0l6.1,1.8
										c0.4,0.1,0.6,0.5,0.5,0.9C141.9,143.7,141.5,143.9,141.1,143.8C141.1,143.8,141.1,143.8,141.1,143.8z"/>
									<path fill="#381324" d="M141.6,141.9l-6.5-5.1l0.7-0.1l-7,9.5l6.2-10c0.1-0.2,0.4-0.3,0.6-0.1l0,0l0,0l6.7,4.7
										c0.3,0.2,0.4,0.7,0.2,1C142.4,142.1,141.9,142.2,141.6,141.9C141.6,141.9,141.6,141.9,141.6,141.9z"/>
									<path fill="#381324" d="M143,140.8l-6.1-8.6l0.7,0.1l-10,8.1l9.4-8.9c0.2-0.2,0.5-0.2,0.6,0l0,0l0,0l6.5,8.3
										c0.2,0.3,0.2,0.7-0.1,1C143.7,141.2,143.2,141.2,143,140.8C143,140.9,143,140.9,143,140.8z"/>
								</g>
								<g>
									<path fill="#381324" d="M154.5,144.7l6-0.8l0.1,0c0.2,0,0.5,0.1,0.5,0.4c0,0,0,0.1,0,0.1l-0.5,6.3l-0.5-6.3l0.5,0.5
										l-5.9,1.2c-0.4,0.1-0.7-0.2-0.8-0.6C153.8,145.2,154.1,144.8,154.5,144.7C154.5,144.8,154.5,144.7,154.5,144.7z"/>
									<path fill="#381324" d="M156.2,142.4l6.1-1.8l0,0c0.2-0.1,0.5,0.1,0.6,0.3c0,0,0,0,0,0l1.9,8.9l-2.8-8.6l0.6,0.3l-5.9,2.2
										c-0.4,0.1-0.8-0.1-0.9-0.4C155.6,143,155.8,142.6,156.2,142.4C156.1,142.4,156.1,142.4,156.2,142.4z"/>
									<path fill="#381324" d="M155.3,140.8l6.7-4.7l0,0c0.2-0.1,0.5-0.1,0.6,0.1c0,0,0,0,0,0l6.2,10l-7-9.5l0.7,0.1l-6.5,5.1
										c-0.3,0.2-0.7,0.2-1-0.1C154.9,141.5,154.9,141,155.3,140.8C155.2,140.8,155.3,140.8,155.3,140.8z"/>
									<path fill="#381324" d="M153.6,140l6.5-8.3l0,0c0.2-0.2,0.4-0.2,0.6-0.1c0,0,0,0,0,0l9.4,8.9l-10-8.1l0.7-0.1l-6.1,8.6
										c-0.2,0.3-0.7,0.4-1,0.2C153.4,140.8,153.3,140.3,153.6,140C153.6,140,153.6,140,153.6,140z"/>
								</g>
							</g>
						</g>
						<line fill="none" stroke="#3F1F2E" stroke-width="2" stroke-miterlimit="10" x1="149.1" y1="88.5" x2="149.1" y2="142.6"/>
					</g>
					<g>
						<g>
							<g>
								<ellipse fill="#381324" cx="64.8" cy="37.4" rx="8.3" ry="5.8"/>
								<ellipse fill="#381324" cx="64.8" cy="42.5" rx="5.6" ry="3.4"/>
							</g>
							<g>
								<g>
									<path fill="#381324" d="M58.6,40.9l-5.9-1.2l0.5-0.5l-0.5,6.3l-0.5-6.3c0-0.2,0.2-0.5,0.4-0.5c0,0,0.1,0,0.1,0l0.1,0l6,0.8
										c0.4,0,0.6,0.4,0.6,0.8C59.4,40.7,59.1,41,58.6,40.9C58.7,40.9,58.7,40.9,58.6,40.9z"/>
									<path fill="#381324" d="M56.8,38.6l-5.9-2.2l0.6-0.3l-2.8,8.6l1.9-8.9c0.1-0.2,0.3-0.4,0.5-0.3l0,0l0,0l6.1,1.8
										c0.4,0.1,0.6,0.5,0.5,0.9C57.6,38.5,57.2,38.7,56.8,38.6C56.8,38.6,56.8,38.6,56.8,38.6z"/>
									<path fill="#381324" d="M57.3,36.7l-6.5-5.1l0.7-0.1l-7,9.5l6.2-10c0.1-0.2,0.4-0.3,0.6-0.1l0,0l0,0l6.7,4.7
										c0.3,0.2,0.4,0.7,0.2,1C58,36.9,57.6,37,57.3,36.7C57.3,36.7,57.3,36.7,57.3,36.7z"/>
									<path fill="#381324" d="M58.7,35.6L52.6,27l0.7,0.1l-10,8.1l9.4-8.9c0.2-0.2,0.5-0.2,0.6,0l0,0l0,0l6.5,8.3
										c0.2,0.3,0.2,0.7-0.1,1C59.4,36,58.9,36,58.7,35.6C58.7,35.7,58.7,35.7,58.7,35.6z"/>
								</g>
								<g>
									<path fill="#381324" d="M70.2,39.5l6-0.8l0.1,0c0.2,0,0.5,0.1,0.5,0.4c0,0,0,0.1,0,0.1l-0.5,6.3l-0.5-6.3l0.5,0.5l-5.9,1.2
										c-0.4,0.1-0.7-0.2-0.8-0.6C69.5,40,69.7,39.6,70.2,39.5C70.1,39.6,70.2,39.5,70.2,39.5z"/>
									<path fill="#381324" d="M71.8,37.2l6.1-1.8l0,0c0.2-0.1,0.5,0.1,0.6,0.3c0,0,0,0,0,0l1.9,8.9L77.6,36l0.6,0.3l-5.9,2.2
										c-0.4,0.1-0.8-0.1-0.9-0.4C71.3,37.8,71.4,37.4,71.8,37.2C71.8,37.2,71.8,37.2,71.8,37.2z"/>
									<path fill="#381324" d="M71,35.6l6.7-4.7l0,0c0.2-0.1,0.5-0.1,0.6,0.1c0,0,0,0,0,0l6.2,10l-7-9.5l0.7,0.1l-6.5,5.1
										c-0.3,0.2-0.7,0.2-1-0.1C70.6,36.3,70.6,35.8,71,35.6C70.9,35.6,70.9,35.6,71,35.6z"/>
									<path fill="#381324" d="M69.3,34.8l6.5-8.3l0,0c0.2-0.2,0.4-0.2,0.6-0.1c0,0,0,0,0,0l9.4,8.9l-10-8.1l0.7-0.1l-6.1,8.6
										c-0.2,0.3-0.7,0.4-1,0.2C69.1,35.6,69,35.1,69.3,34.8C69.2,34.8,69.3,34.8,69.3,34.8z"/>
								</g>
							</g>
						</g>
					</g>
					<g>
						<g>
							<g>
								<ellipse fill="#381324" cx="59.9" cy="163.1" rx="6.9" ry="4.8"/>
								<ellipse fill="#381324" cx="59.9" cy="167.3" rx="4.6" ry="2.8"/>
							</g>
							<g>
								<g>
									<path fill="#381324" d="M54.8,166l-4.9-1l0.5-0.4l-0.4,5.2l-0.4-5.2c0-0.2,0.1-0.4,0.3-0.4c0,0,0,0,0.1,0l0,0l5,0.6
										c0.3,0,0.5,0.3,0.5,0.6C55.5,165.9,55.2,166.1,54.8,166C54.9,166,54.9,166,54.8,166z"/>
									<path fill="#381324" d="M53.3,164.1l-4.9-1.8l0.5-0.3l-2.3,7.1l1.6-7.3c0-0.2,0.2-0.3,0.4-0.3l0,0l0,0l5,1.5
										c0.3,0.1,0.5,0.4,0.4,0.7C54,164,53.6,164.2,53.3,164.1C53.3,164.1,53.3,164.1,53.3,164.1z"/>
									<path fill="#381324" d="M53.7,162.6l-5.3-4.2l0.5-0.1l-5.8,7.8l5.1-8.3c0.1-0.2,0.3-0.2,0.5-0.1l0,0l0,0l5.6,3.9
										c0.3,0.2,0.3,0.5,0.1,0.8C54.4,162.7,54,162.8,53.7,162.6C53.7,162.6,53.7,162.6,53.7,162.6z"/>
									<path fill="#381324" d="M54.9,161.7l-5-7.1l0.6,0.1l-8.3,6.7l7.8-7.3c0.2-0.1,0.4-0.1,0.5,0l0,0l0,0l5.3,6.9
										c0.2,0.3,0.2,0.6-0.1,0.8C55.4,162,55.1,161.9,54.9,161.7C54.9,161.7,54.9,161.7,54.9,161.7z"/>
								</g>
								<g>
									<path fill="#381324" d="M64.4,164.9l5-0.6l0,0c0.2,0,0.4,0.1,0.4,0.3c0,0,0,0.1,0,0.1l-0.4,5.2l-0.4-5.2l0.5,0.4l-4.9,1
										c-0.3,0.1-0.6-0.1-0.7-0.5C63.8,165.3,64,165,64.4,164.9C64.3,164.9,64.3,164.9,64.4,164.9z"/>
									<path fill="#381324" d="M65.7,163l5-1.5l0,0c0.2-0.1,0.4,0.1,0.5,0.3c0,0,0,0,0,0l1.6,7.3l-2.3-7.1l0.5,0.3l-4.9,1.8
										c-0.3,0.1-0.6,0-0.7-0.3C65.3,163.4,65.4,163.1,65.7,163C65.7,163,65.7,163,65.7,163z"/>
									<path fill="#381324" d="M65,161.6l5.6-3.9l0,0c0.2-0.1,0.4-0.1,0.5,0.1c0,0,0,0,0,0l5.1,8.3l-5.8-7.8l0.5,0.1l-5.3,4.2
										c-0.2,0.2-0.6,0.1-0.8-0.1C64.7,162.2,64.7,161.8,65,161.6C65,161.6,65,161.6,65,161.6z"/>
									<path fill="#381324" d="M63.6,161l5.3-6.9l0,0c0.1-0.2,0.4-0.2,0.5-0.1c0,0,0,0,0,0l7.8,7.3l-8.3-6.7l0.6-0.1l-5,7.1
										c-0.2,0.3-0.5,0.3-0.8,0.1C63.5,161.6,63.4,161.2,63.6,161C63.6,161,63.6,161,63.6,161z"/>
								</g>
							</g>
						</g>
						<line fill="none" stroke="#3F1F2E" stroke-width="2" stroke-miterlimit="10" x1="59.9" y1="118.5" x2="59.9" y2="163.1"/>
					</g>
					<g>
						<polygon fill="#381324" points="22.6,141.3 177.3,62 177.3,29 22.6,108.2 						"/>
						<g>
							<polygon fill="#733350" points="0.5,73.7 9.9,88.3 0.5,106.7 36.4,99.2 36.4,66.2 							"/>
							<polygon fill="#381324" points="22.6,94.2 36.4,99.2 36.4,91.4 							"/>
							<polygon fill="#914166" points="177.3,62 22.6,94.2 22.6,61.2 177.3,29 							"/>
						</g>
						<g>
							<polygon fill="#733350" points="199.4,79.3 190.1,97.8 199.4,112.3 163.5,119.8 163.5,86.8 							"/>
							<polygon fill="#381324" points="177.3,109.1 163.5,119.8 163.5,111.9 							"/>
							<polygon fill="#914166" points="22.6,141.3 177.3,109 177.3,76 22.6,108.2 							"/>
						</g>
						<text transform="matrix(0.5207 -0.1084 0 1 59.0603 80.0652)" fill="#FFEACC" font-family="'Yokawerad'" font-size="27.5917">HALLOWEEN</text>
						
							<text transform="matrix(0.5096 -0.1061 0 1 68.2539 123.3001)" fill="#FF9825" font-family="'Yokawerad'" font-size="20.5221">NIGHT PARTY</text>
					</g>
				</g>
				<g>
					<path fill="#FFEACC" d="M170.5,94.1c0,2.7-2.2,5.2-4.8,5.6c-2.7,0.4-4.8-1.5-4.8-4.2c0-2.7,2.2-5.2,4.8-5.6
						C168.3,89.5,170.5,91.4,170.5,94.1z"/>
					<g>
						<g>
							<path fill="#FFEACC" d="M163.2,99c0,0-1,2.3-0.6,2.6c0.4,0.3,1.1,0.1,1.3-0.4c0.1-0.4,0.4-1.8,0.4-1.8L163.2,99z"/>
							<path fill="#FFEACC" d="M164.7,99.4c0,0-0.4,1.8-0.1,2c0.3,0.2,0.8-0.1,0.8-0.4c0.1-0.3,0.1-1.3,0.1-1.3L164.7,99.4z"/>
						</g>
						<g>
							<path fill="#FFEACC" d="M168.1,98.3c0,0,1,2,0.6,2.4c-0.4,0.4-1.1,0.4-1.3,0c-0.1-0.4-0.4-1.7-0.4-1.7L168.1,98.3z"/>
							<path fill="#FFEACC" d="M166.6,99.1c0,0,0.4,1.7,0.1,1.9c-0.3,0.3-0.8,0.2-0.8-0.2s-0.1-1.3-0.1-1.3L166.6,99.1z"/>
						</g>
					</g>
					<g>
						<path fill="#914166" d="M164.5,93.8c-0.6-0.2-1.5,0.3-1.9,1.2c-0.4,0.9-0.2,1.8,0.4,2c0.6,0.2,1.5-0.3,1.9-1.2
							C165.4,94.9,165.2,94,164.5,93.8z"/>
						<path fill="#914166" d="M168.7,94.1c-0.4-0.8-1.2-1.1-1.9-0.7c-0.6,0.4-0.8,1.4-0.4,2.2c0.4,0.8,1.2,1.1,1.9,0.7
							C168.9,95.9,169.1,94.9,168.7,94.1z"/>
					</g>
					<path fill="#914166" d="M165.7,96.7c0,0-0.8,1.1-0.8,1.4c0.1,0.3,0.8-0.1,0.8-0.1s0.7,0.2,0.8-0.1
						C166.5,97.6,165.7,96.7,165.7,96.7z"/>
				</g>
				<g>
					<path fill="#FFEACC" d="M39,121.4c0,2.7-2.2,5.2-4.8,5.6c-2.7,0.4-4.8-1.5-4.8-4.2c0-2.7,2.2-5.2,4.8-5.6
						C36.8,116.8,39,118.7,39,121.4z"/>
					<g>
						<g>
							<path fill="#FFEACC" d="M31.7,126.3c0,0-1,2.3-0.6,2.6c0.4,0.3,1.1,0.1,1.3-0.4c0.1-0.4,0.4-1.8,0.4-1.8L31.7,126.3z"/>
							<path fill="#FFEACC" d="M33.2,126.6c0,0-0.4,1.8-0.1,2c0.3,0.2,0.8-0.1,0.8-0.4c0.1-0.3,0.1-1.3,0.1-1.3L33.2,126.6z"/>
						</g>
						<g>
							<path fill="#FFEACC" d="M36.6,125.6c0,0,1,2,0.6,2.4c-0.4,0.4-1.1,0.4-1.3,0c-0.1-0.4-0.4-1.7-0.4-1.7L36.6,125.6z"/>
							<path fill="#FFEACC" d="M35.1,126.4c0,0,0.4,1.7,0.1,1.9c-0.3,0.3-0.8,0.2-0.8-0.2c-0.1-0.3-0.1-1.3-0.1-1.3L35.1,126.4z"/>
						</g>
					</g>
					<g>
						<path fill="#914166" d="M33,121c-0.6-0.2-1.5,0.3-1.9,1.2c-0.4,0.9-0.2,1.8,0.4,2c0.6,0.2,1.5-0.3,1.9-1.2
							C33.9,122.2,33.7,121.2,33,121z"/>
						<path fill="#914166" d="M37.2,121.4c-0.4-0.8-1.2-1.1-1.9-0.7c-0.6,0.4-0.8,1.4-0.4,2.2c0.4,0.8,1.2,1.1,1.9,0.7
							C37.4,123.1,37.6,122.2,37.2,121.4z"/>
					</g>
					<path fill="#914166" d="M34.2,124c0,0-0.8,1.1-0.8,1.4c0.1,0.3,0.8-0.1,0.8-0.1s0.7,0.2,0.8-0.1C35,124.9,34.2,124,34.2,124z"
						/>
				</g>
			</g>
		</g>
	</g>
</g>
</svg>
