<?xml version="1.0" encoding="utf-8"?>
<!-- Generator: Adobe Illustrator 18.1.1, SVG Export Plug-In . SVG Version: 6.00 Build 0)  -->
<svg version="1.1" xmlns="http://www.w3.org/2000/svg" xmlns:xlink="http://www.w3.org/1999/xlink" x="0px" y="0px"
	 viewBox="0 0 279.8 157.2" enable-background="new 0 0 279.8 157.2" xml:space="preserve">
<g id="Background">
</g>
<g id="Objects">
	<g>
		<g>
			<polygon fill="#381324" points="217.5,78.6 211.5,88.2 214.9,99 206.6,106.6 207.2,117.9 197.2,123.1 194.8,134.2 183.9,136.6 
				178.7,146.7 167.5,146.2 160,154.6 149.3,151.1 139.9,157.2 130.4,151.1 119.8,154.6 112.2,146.2 101,146.7 95.9,136.6 85,134.2 
				82.6,123.1 72.6,117.9 73.1,106.6 64.8,99 68.3,88.2 62.2,78.6 68.3,69.1 64.8,58.3 73.1,50.6 72.6,39.3 82.6,34.1 85,23 
				95.9,20.6 101,10.5 112.2,11 119.8,2.7 130.4,6.1 139.9,0 149.3,6.1 160,2.7 167.5,11 178.7,10.5 183.9,20.6 194.8,23 
				197.2,34.1 207.2,39.3 206.6,50.6 214.9,58.3 211.5,69.1 			"/>
			<g>
				<g>
					<g>
						<g>
							<polygon fill="#FA6C07" points="0,73.7 12.6,92.4 0,111.2 42.7,111.2 42.7,73.7 							"/>
							<polygon fill="#A14604" points="21.8,99.8 42.7,111.2 42.7,99.8 							"/>
						</g>
						<rect x="21.8" y="62.3" fill="#F29023" width="62.1" height="37.5"/>
					</g>
					<g>
						<g>
							<polygon fill="#FA6C07" points="279.8,73.7 267.2,92.4 279.8,111.2 237.1,111.2 237.1,73.7 							"/>
							<polygon fill="#A14604" points="257.9,99.8 237.1,111.2 237.1,99.8 							"/>
						</g>
						<rect x="195.9" y="62.3" fill="#F29023" width="62.1" height="37.5"/>
					</g>
				</g>
				<g>
					<rect x="21.8" y="65.4" opacity="0.2" fill="#FFEACC" width="62.1" height="2.3"/>
					<rect x="21.8" y="94.4" opacity="0.2" fill="#FFEACC" width="62.1" height="2.3"/>
				</g>
				<g>
					<rect x="195.9" y="65.4" opacity="0.2" fill="#FFEACC" width="62.1" height="2.3"/>
					<rect x="195.9" y="94.4" opacity="0.2" fill="#FFEACC" width="62.1" height="2.3"/>
				</g>
			</g>
			<path fill="#914166" d="M139.9,145.6c-36.5,0-66.2-30-66.2-67c0-36.9,29.7-67,66.2-67c36.5,0,66.2,30,66.2,67
				C206,115.5,176.4,145.6,139.9,145.6L139.9,145.6z"/>
			<path fill="#381324" d="M139.9,138.1c-32.4,0-58.7-26.7-58.7-59.4c0-32.8,26.3-59.4,58.7-59.4c32.4,0,58.7,26.7,58.7,59.4
				C198.6,111.4,172.3,138.1,139.9,138.1L139.9,138.1z"/>
			<path id="SVGID_x5F_1_x5F_" fill="none" d="M139.9,116.5c-20.6,0-37.4-17-37.4-37.9c0-20.9,16.8-37.9,37.4-37.9
				c20.6,0,37.4,17,37.4,37.9C177.3,99.5,160.5,116.5,139.9,116.5L139.9,116.5z"/>
			<text>			<textPath  xlink:href="#SVGID_x5F_1_x5F_" startOffset="125.0487%">
<tspan  fill="#FF9825" font-family="'SFSpeakeasy'" font-size="23.847" letter-spacing="50.6">Halloween</tspan>			</textPath>
</text>
			<g>
				<path id="SVGID_x5F_2_x5F_" fill="none" d="M139.9,132.9L139.9,132.9c29.6,0,53.6-24.3,53.6-54.3c0-29.9-24-54.3-53.6-54.3
					c-29.6,0-53.6,24.3-53.6,54.3C86.3,108.5,110.3,132.9,139.9,132.9z"/>
				<text>				<textPath  xlink:href="#SVGID_x5F_2_x5F_" startOffset="75%">
<tspan  fill="#FF9825" font-family="'GrandHotel-Regular'" font-size="15.3127" letter-spacing="50.6">Trick or Treat</tspan>				</textPath>
</text>
			</g>
			<g opacity="0.4">
				<path fill="none" stroke="#FFF2E0" stroke-linecap="round" stroke-linejoin="round" stroke-dasharray="0.9971,3.9884" d="
					M139.9,141.7c-34.4,0-62.3-28.3-62.3-63.1c0-34.8,28-63.1,62.3-63.1c34.4,0,62.3,28.3,62.3,63.1
					C202.2,113.4,174.2,141.7,139.9,141.7z"/>
			</g>
			<g>
				<ellipse fill="#FFEACC" cx="139.9" cy="76.6" rx="28.1" ry="28.3"/>
				<g>
					<g>
						<path fill="#FFEACC" d="M125.5,99.1c0,0-5.6,12.4-3.6,14.5c2,2.1,6.7,1.4,7.5-1.1c0.9-2.5,2.2-10,2.2-10L125.5,99.1z"/>
						<path fill="#FFEACC" d="M134.3,102.4c0,0-2.5,10-0.9,11.4c1.6,1.4,4.6,0.3,4.9-1.6c0.3-2,0.4-7.8,0.4-7.8L134.3,102.4z"/>
					</g>
					<g>
						<path fill="#FFEACC" d="M154.3,99.1c0,0,5.6,12.4,3.6,14.5c-2,2.1-6.7,1.4-7.5-1.1c-0.9-2.5-2.2-10-2.2-10L154.3,99.1z"/>
						<path fill="#FFEACC" d="M145.5,102.4c0,0,2.5,10,0.9,11.4c-1.6,1.4-4.6,0.3-4.9-1.6c-0.3-2-0.4-7.8-0.4-7.8L145.5,102.4z"/>
					</g>
				</g>
				<g>
					<path fill="#381324" d="M133.2,69.7c-3.7-1.8-8.6,0.7-11,5.6c-2.3,4.9-1.2,10.3,2.5,12.1c3.7,1.8,8.6-0.7,11-5.6
						C138.1,77,136.9,71.5,133.2,69.7z"/>
					<path fill="#381324" d="M157.5,75.3c-2.3-4.9-7.2-7.4-11-5.6c-3.7,1.8-4.8,7.2-2.5,12.1c2.3,4.9,7.2,7.4,11,5.6
						C158.7,85.7,159.9,80.2,157.5,75.3z"/>
				</g>
				<path fill="#381324" d="M139.9,87.8c0,0-4.9,5.8-4.4,7.7c0.4,1.8,4.4,0.1,4.4,0.1s4,1.7,4.4-0.1
					C144.7,93.6,139.9,87.8,139.9,87.8z"/>
			</g>
			<g>
				<g>
					<polygon fill="#914166" points="102.4,104.1 90.4,79.9 96.1,77.6 105.2,103.8 					"/>
					<polygon fill="#914166" points="87,88.8 106.6,80.5 106.4,88 89.5,93.2 					"/>
				</g>
				<g>
					<polygon fill="#914166" points="177.4,104.1 189.4,79.9 183.7,77.6 174.5,103.8 					"/>
					<polygon fill="#914166" points="192.8,88.8 173.1,80.5 173.4,88 190.2,93.2 					"/>
				</g>
			</g>
		</g>
	</g>
</g>
</svg>
