<?xml version="1.0" encoding="utf-8"?>
<!-- Generator: Adobe Illustrator 18.1.1, SVG Export Plug-In . SVG Version: 6.00 Build 0)  -->
<svg version="1.1" xmlns="http://www.w3.org/2000/svg" xmlns:xlink="http://www.w3.org/1999/xlink" x="0px" y="0px"
	 viewBox="0 0 197.8 145.1" enable-background="new 0 0 197.8 145.1" xml:space="preserve">
<g id="Background">
</g>
<g id="Objects">
	<g>
		<g>
			<g>
				<g>
					<path fill="#381324" d="M120.5,0.1c6.9,20.3-11.9,28.1-15.3,26.8c-1.4-0.5-0.6-1.7,1.1-3c14.9-11.1-1.4-24-1.4-24
						c2.1,6,0.2,7.2,0.2,7.2s-2-1.5-6.2-1.5c-4.3,0-6.2,1.5-6.2,1.5S90.8,6,92.9,0c0,0-16.4,12.9-1.4,24c1.8,1.3,2.5,2.5,1.1,3
						c-3.4,1.2-22.2-6.6-15.3-26.8c0,0-56,7.3-56,64.3c2.7-7,14-19.7,26.6-5.9c0,0,8.3-16.8,21.1-7.5c0,0-0.4-11,11.2-9.4
						c14.5,2,18.8,29.2,18.8,29.2s4.3-27.2,18.8-29.2c11.6-1.6,11.2,9.4,11.2,9.4c12.8-9.4,21.1,7.5,21.1,7.5
						c12.6-13.8,23.9-1.1,26.6,5.9C176.5,7.4,120.5,0.1,120.5,0.1z"/>
					<g>
						<path fill="#FFEACC" d="M100.9,13.8l6.9-3.8c0,0-1.2,4.3-3.1,5.7C102.8,17.1,100.9,13.8,100.9,13.8z"/>
						<path fill="#FFEACC" d="M96.9,13.8L90,9.9c0,0,1.2,4.3,3.1,5.7C95,17.1,96.9,13.8,96.9,13.8z"/>
					</g>
				</g>
				<g>
					<g>
						<path fill="#6D2B49" d="M73.5,2.8c0,0-41.7,12.7-48.6,51.5c0,0,8.8-12.3,23.3-0.2C48.2,54.1,43.5,28.8,73.5,2.8z"/>
						<path fill="#6D2B49" d="M73.8,2.8c0,0-21.3,23.9-22.9,47.8c0,0,6.1-7.1,15.8-3.5C66.7,47.1,62.5,22.2,73.8,2.8z"/>
						<path fill="#6D2B49" d="M74,2.8c0,0-6.8,21.1-4.2,38.4c0,0,6.3-6.4,15.9-0.8C85.7,40.4,70.4,26.7,74,2.8z"/>
					</g>
					<g>
						<path fill="#6D2B49" d="M125.5,2.8c0,0,41.7,12.7,48.6,51.5c0,0-8.8-12.3-23.3-0.2C150.8,54.1,155.5,28.8,125.5,2.8z"/>
						<path fill="#6D2B49" d="M125.2,2.8c0,0,21.3,23.9,22.9,47.8c0,0-6.1-7.1-15.8-3.5C132.2,47.1,136.5,22.2,125.2,2.8z"/>
						<path fill="#6D2B49" d="M124.9,2.8c0,0,6.8,21.1,4.2,38.4c0,0-6.3-6.4-15.9-0.8C113.3,40.4,128.6,26.7,124.9,2.8z"/>
					</g>
				</g>
			</g>
			<g>
				<g>
					<path fill="#FA6C07" d="M0,88c8.3,3.8,12.3,5.8,19.8,10.3c-2.5,8.4-3.5,12.7-5.1,21.1c10.9-5.1,22.2-9.2,33.8-12.3
						c-2.9-11.2-5.9-22.3-8.8-33.5C26.1,77.1,12.8,82,0,88z"/>
					<path fill="#A14604" d="M34.6,100.2c5.8,2.5,8.6,3.9,14,6.8c-1.1-4.1-1.6-6.1-2.7-10.2C41.3,98,39.1,98.7,34.6,100.2z"/>
				</g>
				<path fill="#FA6C07" d="M197.8,88c-8.3,3.8-12.3,5.8-19.8,10.3c2.5,8.4,3.5,12.7,5.1,21.1c-10.9-5.1-22.2-9.2-33.8-12.3
					c2.9-11.2,5.9-22.3,8.8-33.5C171.7,77.1,185,82,197.8,88z"/>
				<path fill="#A14604" d="M163.2,100.2c-5.8,2.5-8.6,3.9-14,6.8c1.1-4.1,1.6-6.1,2.7-10.2C156.4,98,158.7,98.7,163.2,100.2z"/>
				<path fill="#F29023" d="M163.2,100.2c-43.3-12.7-85.3-12.7-128.6,0c-3.6-11-7.1-21.9-10.7-32.9c50.2-15,99.8-15,150,0
					C170.3,78.2,166.7,89.2,163.2,100.2z"/>
			</g>
			<g opacity="0.2">
				<path fill="#381324" d="M39.1,70.4c0.1,0.1,0.1,0.4,0.2,0.6c0,0.2,0,0.4,0.1,0.6c0,0.3,0.1,0.6,0.1,0.9c0.1,0.3,0.2,0.6,0.4,0.9
					c0.1,0.2,0.2,0.4,0.2,0.6c0,0.2,0.1,0.4,0.1,0.7c0.1,0.3,0.1,0.7,0.1,1.1c0.1,0.4,0.1,0.7,0.1,1.1c0,0.2,0.1,0.4,0.1,0.5
					c0,0.2,0.1,0.4,0.1,0.5c0.1,0.5,0.1,0.8,0.2,1.4c0,0.1,0.1,0.2,0.2,0.2c0.1,0,0.2,0.1,0.3,0.1c0.4-0.1,0.8-0.2,1.3-0.3
					c0.4-0.1,0.9-0.2,1.2-0.3c0.1,0,0.1-0.1,0.2-0.2c0-0.1,0.1-0.2,0.1-0.3c0-1.1-0.5-2.8-0.8-4.2c-0.2-1.4-0.5-2.9-0.6-4.2
					c0-0.2,0-0.4,0.1-0.4c0,0,0,0-0.1,0c0.1,0,0.1,0,0.1,0c0,0,0-0.1,0-0.1c0,0,0,0,0,0c0,0,0,0,0.1,0c0.2,0,0.5-0.2,0.7-0.2
					c0.2,0,0.6-0.1,0.7-0.2c0.1-0.1,0.4-0.4,0.6-0.4c0,0,0.1,0,0.2,0c0.1,0,0.1-0.1,0.2-0.1c0.1,0,0.3,0.2,0.3,0.3
					c0,0.1,0,0.2,0,0.3c0,0.1,0,0.2,0.1,0.2c0,0.1,0.1,0.2,0.1,0.3c0,0,0.1,0.1,0.1,0.1c0.1,0,0.1,0,0.1,0c0,0,0.1-0.1,0.1-0.2
					c0-0.1,0-0.1,0-0.2c0-0.2,0.1-0.3,0.1-0.5c0-0.2,0-0.3,0.2-0.4c0,0,0,0,0,0c0.1,0,0.3,0,0.4-0.1c0.1-0.1,0.3,0,0.5,0
					c0,0,0.1,0,0.1,0.1c0,0,0.1,0.1,0.1,0.1c0,0,0.1,0.1,0,0.1c0,0,0,0,0,0.1c0,0,0,0.2,0,0.2c0,0.1,0,0.2,0,0.2c0,0,0,0,0,0.1
					c0.1,1.1,0.2,2.3,0.3,3.5c0.1,1.2,0.3,2.4,0.4,3.5c0,0.2,0,0.4-0.1,0.5c0,0.2,0,0.4,0.1,0.6c0.1,0.3,0.1,0.9,0.2,1.4
					c0.1,0.5,0.2,0.9,0.2,1.4c0.3,1.4,0.4,2.2,0.6,3.6c0,0,0,0,0,0c0.1,0.9,0.3,1.7,0.5,2.6c0.2,0.8,0.2,2.1,0.5,2.6
					c0,0,0.1,0.1,0,0.1c0,0,0,0.1,0,0.1c0,0,0,0.1,0,0.1c0,0.1,0,0.1,0.1,0.1c0,0,0,0.1,0,0.2c0,0.1,0,0.2,0,0.2
					c0,0.1,0,0.1-0.1,0.2c-0.1,0-0.1,0-0.2,0c0,0-0.1,0-0.1,0c0,0,0,0,0,0c0,0-0.1-0.1-0.1-0.1c0,0-0.1-0.1-0.1-0.1
					c-0.1-0.1-0.2-0.1-0.2,0c0,0.1-0.1,0.2-0.2,0.3c-0.1,0.1-0.2,0.1-0.3,0.1c-0.1,0-0.1,0-0.2,0.1c-0.1,0-0.1,0-0.2,0c0,0,0,0,0,0
					c-0.1,0-0.3,0-0.4,0c-0.2,0-0.3,0.1-0.3,0.2c-0.1,0.1-0.3,0.1-0.5,0.2c-0.2,0-0.4,0-0.6-0.2c-0.1,0-0.1-0.1-0.2-0.2
					c-0.1-0.1-0.1-0.2-0.1-0.3c-0.1-0.8-0.5-1.8-0.7-2.7c-0.2-0.9-0.5-1.8-0.7-2.7c-0.1-0.2-0.1-0.5-0.2-0.7
					c-0.1-0.3-0.1-0.6-0.2-0.7c-0.1-0.2-0.3-0.3-0.4-0.3c0,0-0.1,0-0.1,0c0,0,0,0,0,0s-0.1,0-0.1,0c0,0,0,0.1,0,0c0,0,0,0-0.1,0
					c-0.2,0.1-0.6,0.1-0.9,0.2c-0.3,0.1-0.7,0.2-0.9,0.2c-0.2,0-0.4-0.1-0.5-0.3c-0.1-0.1,0-0.3,0.1-0.4c0.1-0.1,0.3-0.2,0.3-0.3
					c0,0,0-0.1,0-0.1c0,0,0-0.1-0.1-0.1c0,0-0.1,0-0.2,0c-0.1,0-0.2,0-0.2,0c0,0-0.1,0.1-0.2,0.1c-0.1,0-0.1,0.1-0.1,0.1
					c0,0,0,0,0,0c0,0,0,0.1-0.1,0.1c0,0-0.1,0.1-0.1,0.2c0,0.4,0.1,1,0.3,1.5c0.1,0.5,0.2,1,0.3,1.5c0.2,0.9,0.4,1.7,0.6,2.6
					c0.2,0.8,0.4,1.7,0.7,2.6c0.1,0.3,0.1,0.6-0.1,0.7c-0.1,0.1-0.2,0.1-0.3,0.2c-0.1,0-0.2,0-0.3-0.1c-0.1-0.1-0.2-0.1-0.2-0.3
					c0-0.1-0.2-0.2-0.2-0.2c0,0-0.1-0.1-0.1-0.1c-0.1,0-0.2,0.1-0.2,0.3c0,0.2,0,0.3-0.1,0.5c0,0.2-0.1,0.3-0.3,0.3
					c-0.2,0-0.4,0.1-0.6,0.1c-0.2,0-0.4,0.1-0.6,0.1c-0.1,0-0.1,0-0.2,0c-0.1-0.1-0.1-0.1-0.2-0.1c-0.2-0.2-0.3-0.5-0.3-0.7
					c-0.1-0.3-0.1-0.5-0.2-0.8c-0.2-0.5-0.3-1.1-0.4-1.7c-0.2-0.6-0.3-1.2-0.5-1.7c-0.2-0.4-0.4-0.8-0.6-1.3
					c-0.2-0.4-0.3-0.9-0.4-1.2c-0.4-1.7-1-3.6-1.5-5.4c-0.5-1.8-0.9-3.6-1.3-5.4c-0.1-0.4-0.2-0.8-0.3-1.3c-0.1-0.4-0.1-0.9,0.1-1.2
					c0.1-0.1,0.4-0.3,0.6-0.2c0,0,0.1,0.1,0.2,0.1c0.1,0,0.1,0.1,0.1,0.2c0,0.2,0.1,0.3,0.1,0.4c0,0.1,0,0.4,0.1,0.4
					c0,0,0.1,0,0.1,0.1c0,0,0.1,0,0.1,0c0,0,0,0,0.1,0c0.1,0,0.2-0.2,0.2-0.4c0-0.2,0-0.5,0-0.7c0-0.3,0.1-0.5,0.3-0.6
					c0.1-0.1,0.3-0.1,0.4,0.1c0.1,0.1,0.3,0.2,0.4,0.1c0.1,0,0.2-0.2,0.3-0.3c0.1-0.1,0.2-0.2,0.3-0.3c0.1-0.1,0.3-0.1,0.5-0.1
					c0.2,0,0.4-0.1,0.5-0.1C38.8,70.3,39,70.3,39.1,70.4z"/>
				<path fill="#381324" d="M60.1,70c0.4,1.1,0.7,2.2,1.1,3.3c0.2,0.5,0.3,0.9,0.4,1.4c0.1,0.5,0.3,0.9,0.4,1.4c0,0,0,0.1,0,0.1
					c0.1,0.3,0.2,0.6,0.3,0.8c0.1,0.3,0.2,0.6,0.2,0.9c0,0,0,0.1,0,0.1c0,0,0,0.1,0,0.1c0.1,1.1,0.7,2.5,1,3.7
					c0.3,1.2,0.7,2.4,0.9,3.7c0,0.1,0.1,0.3,0.1,0.4c0,0.1,0,0.3,0.1,0.4c0,0,0,0.1,0,0.1c0,0,0,0.1,0,0.1c0.1,0,0.1,0.1,0,0.2
					c0,0.1,0,0.1,0,0.2c0,0,0,0.1,0,0.2c0,0.1,0,0.1-0.1,0.1c-0.1,0.1-0.2,0.1-0.3,0c-0.1-0.1-0.2-0.3-0.3-0.3c0-0.1-0.2,0-0.2,0
					c0,0.1-0.1,0.2-0.1,0.3c0,0.1-0.2,0.2-0.2,0.2c0,0,0,0,0,0c0,0-0.1,0-0.1,0c-0.2,0-0.4,0-0.6,0c-0.2,0-0.4,0.1-0.5,0.3
					c0,0,0,0-0.1,0c0,0,0,0-0.1,0c0,0,0,0,0,0.1c0,0,0,0,0,0c0,0,0,0,0,0c0,0,0,0.1-0.1,0c0,0-0.1,0-0.1,0c0,0-0.2,0-0.3,0
					c-0.1,0-0.2,0-0.3-0.1c0-0.1-0.1-0.1-0.1-0.2c-0.1-0.1-0.1-0.1-0.2-0.2c-0.2-0.3-0.3-0.9-0.4-1.3c-0.1-0.4-0.2-0.8-0.4-1.2
					c-0.1-0.1-0.1-0.2-0.2-0.2c-0.1,0-0.2-0.1-0.3-0.1c-0.1,0-0.5,0.1-0.7,0.1c-0.2,0-0.5,0.1-0.6,0.2c0,0.1-0.1,0.2-0.2,0.2
					c-0.1,0-0.1,0.1-0.2,0.1c-0.2,0.1-0.7,0.2-1,0.2c-0.4,0.1-0.9,0.1-1,0.2c0,0-0.1,0.2-0.2,0.2c-0.1,0-0.1,0.1-0.1,0.3
					c0,0.3-0.1,0.7-0.1,1.1c0,0.4-0.1,0.8-0.1,1.1c0,0.1,0,0.2-0.1,0.2c-0.1,0.1-0.1,0.2-0.1,0.2c0,0-0.1,0-0.1-0.1c0,0,0,0,0,0
					c0,0,0,0,0.1,0.1c0,0,0,0-0.1,0c0,0,0,0,0,0c0,0,0,0,0,0c0,0-0.1,0.1-0.2,0.1c-0.1,0-0.2,0-0.2,0c-0.1,0-0.1,0-0.2,0
					c-0.1,0-0.2,0-0.2,0.1c0,0.1-0.1,0.1-0.2,0.1c-0.1,0-0.2,0-0.2,0c-0.1,0-0.2,0-0.3-0.1c-0.1-0.1-0.3-0.1-0.3,0
					c-0.1,0.1-0.2,0.2-0.3,0.3c-0.1,0.1-0.3,0.1-0.5,0c-0.1,0-0.1-0.1-0.2-0.2c-0.1-0.1-0.1-0.1-0.1-0.2c0-0.1,0-0.3,0-0.4
					c0-0.1,0-0.3,0-0.4c0,0,0,0,0,0c0-0.4,0-0.9,0-1.3c0-0.4,0.1-0.9,0-1.3c0,0,0,0,0,0c0,0,0,0,0,0c0.1-1,0.2-2.1,0.2-3.1
					c0-1,0.1-2,0.2-3.1c0.1-1.2,0.3-2.5,0.4-3.7c0.2-1.2,0.4-2.5,0.6-3.7c0.1-0.8,0.3-1.6,0.4-2.4c0.2-0.8,0.3-1.7,0.5-2.4
					c0,0,0-0.1,0.1-0.1c0,0,0.1-0.1,0.1-0.1c0.1,0,0.2,0,0.3-0.1c0,0,0,0,0,0c0.1,0,0.1,0,0.2,0c0.1,0,0.1,0.1,0.2,0.1
					c0.1,0,0.3,0,0.3-0.2c0.1-0.1,0.2-0.3,0.3-0.3c0.1,0,0.3,0,0.4-0.1c0.1,0,0.3,0,0.4-0.1c0,0,0,0,0,0c0,0,0,0,0.1,0
					c0.1,0,0.2,0,0.3,0.1c0.1,0.1,0.2,0.1,0.3-0.1c0.1-0.1,0.1-0.1,0.1-0.2c0.1-0.1,0.2-0.1,0.3-0.1c0.1,0,0.2-0.1,0.3-0.1
					c0.1,0,0.2,0.1,0.4,0.2c0.1,0.1,0.3,0.2,0.3,0.4C59.3,67.8,59.7,68.9,60.1,70z M57.4,76.9c0-0.1-0.1-0.1-0.1-0.1
					c0,0-0.1,0.1-0.1,0.2c-0.1,0.4-0.2,1-0.3,1.6c-0.1,0.5-0.2,1.1-0.3,1.6c0,0.2-0.1,0.3-0.1,0.5c0,0.2-0.1,0.4,0,0.6
					c0,0,0.1,0.1,0.1,0.1c0,0,0.1,0,0.1,0c0.2,0,0.5-0.1,0.9-0.1c0.3,0,0.7-0.1,0.9-0.1c0.1,0,0.2-0.2,0.2-0.3c0-0.1,0-0.3-0.1-0.4
					c-0.1-0.1-0.1-0.3-0.2-0.4c-0.1-0.1-0.1-0.3-0.1-0.4c0-0.1,0-0.1-0.1-0.2c0-0.1,0-0.1-0.1-0.1c0,0,0,0,0,0c0,0,0,0,0,0
					c0,0,0,0,0,0c0,0,0,0,0,0c0-0.1,0-0.1,0-0.1c-0.1-0.1-0.1-0.2-0.1-0.3c0-0.1,0-0.2-0.1-0.3c0,0,0-0.1-0.1-0.1c0,0,0,0,0-0.1
					c0,0,0,0,0,0c0-0.1,0-0.2-0.1-0.3c0-0.1-0.1-0.2-0.1-0.3c0,0,0-0.1,0-0.1c0,0,0-0.1,0-0.2c0,0-0.1-0.1-0.1-0.2
					C57.4,77,57.4,76.9,57.4,76.9z M59.2,81.9c-0.1,0-0.1,0-0.1,0c-0.1,0-0.2,0-0.3,0.1c-0.1,0.1-0.2,0.1-0.3,0.1c0,0,0,0,0,0
					c0,0,0,0.1,0,0.1c0,0,0,0,0,0c0,0,0,0,0,0.1c0,0,0,0,0,0c0,0,0,0,0,0.1c0.1,0.1,0.2,0.1,0.4,0.1c0.1,0,0.3-0.1,0.4-0.1
					c0.1,0,0.1-0.1,0.1-0.3C59.3,82,59.2,81.9,59.2,81.9z"/>
				<path fill="#381324" d="M65.1,65.2C65.1,65.2,65.1,65.1,65.1,65.2c0.1,0.1,0.2,0.1,0.2,0.1c0.1,0,0.1,0.2,0.2,0.3
					c0,0.1,0,0.2,0.1,0.3c0,0,0,0,0-0.1c0,0.1,0,0.2,0,0.3c0,0.1,0.1,0.2,0.1,0.2c0,0,0,0.1,0,0.1c0,0,0.1,0.1,0.1,0.1
					c0.1,0,0.2-0.2,0.2-0.3c0-0.1,0-0.3,0.1-0.4c0-0.2,0.1-0.4,0.1-0.6c0-0.2,0.2-0.3,0.4-0.3c0.1,0,0.3,0,0.4,0c0.1,0,0.2,0,0.4,0
					c0,0,0,0,0,0c0.1,0,0.2,0.1,0.3,0.3c0,0,0,0,0,0c0.1,0.2,0.1,0.3,0.1,0.5c0,0.2,0,0.4,0,0.5c0,0,0.1,0.1,0.1,0.1
					c0,0,0,0.1,0.1,0.2c0,0,0-0.1,0-0.1s0.1,0.4,0.2,0.6c0.1,0.2,0.2,0.4,0.2,0.6c0,0.2,0,0.5,0,0.8c0,0.3,0,0.6,0,0.9
					c0.1,1.9,0.2,3.8,0.4,5.8c0.2,2,0.4,3.9,0.6,5.7c0,0.1,0,0.2,0,0.4c0,0.2,0.1,0.3,0.2,0.4c0,0,0.1,0,0.1,0.1c0,0,0.1,0,0.1,0
					c0,0,0.2,0.1,0.3,0c0.1,0,0.2,0,0.3,0c0,0,0-0.1,0.1,0c0,0,0.1,0,0.1,0c0,0,0.1-0.1,0.2-0.1c0.1,0,0.1,0,0.2,0
					c0.1,0,0.3,0,0.4-0.1c0.1,0,0.4,0,0.4,0c0,0,0.1-0.1,0.1,0c0,0,0.1,0,0.1,0c0.3-0.1,0.8,0,1.2-0.1c0.4-0.1,0.8-0.2,1.2-0.1
					c0.2,0,0.3,0.3,0.3,0.5c0,0.2,0,0.4,0,0.6c0.1,0.2,0,0.4-0.1,0.6c-0.1,0.2-0.1,0.5,0,0.6c0,0,0.1,0,0.1,0.1c0,0,0,0.1,0,0.1
					c0.1,0.1,0.2,0.2,0.3,0.4c0,0.2,0,0.3,0,0.5c0,0.1,0,0.2,0,0.4c0,0.1,0,0.3,0,0.4c0,0.1,0,0.3-0.1,0.4c0,0.1-0.2,0.2-0.3,0.2
					c-0.1,0-0.2,0-0.2,0c-0.1,0-0.2,0-0.2,0c-0.4-0.1-1.1,0.1-1.6,0.1c-0.5,0.1-1.1,0.1-1.5,0.2c-0.1,0-0.3,0-0.5,0
					c-0.2-0.1-0.4-0.2-0.5-0.2c-0.1,0-0.2,0.1-0.3,0.3c-0.1,0.1-0.2,0.1-0.4,0.1c-0.2,0-0.4,0.1-0.7,0.1c-0.3,0-0.5,0.1-0.7,0.1
					c-0.1,0-0.3-0.1-0.4-0.1c-0.1-0.1-0.2-0.2-0.3-0.3c0-0.1-0.1-0.1-0.1-0.2c0-0.1-0.1-0.1-0.1-0.1c-0.1,0-0.1,0-0.1,0.1
					c0,0.1-0.1,0.2-0.1,0.2c0,0.1,0,0.2-0.1,0.2c0,0.1,0,0.2-0.1,0.2c0,0-0.1,0-0.1,0.1c0,0,0,0.1-0.1,0.1c-0.1,0-0.1,0-0.2,0
					c-0.1,0-0.1-0.1-0.2-0.1c-0.1-0.1-0.2-0.5-0.2-0.7c0-0.3-0.1-0.5-0.1-0.7c-0.1-0.9-0.3-1.9-0.5-2.9c-0.1-1-0.2-2.1-0.4-2.9
					c0-0.1-0.1-0.2-0.1-0.3c0-0.1-0.1-0.2-0.1-0.3c0,0,0,0,0-0.1c-0.1-0.3-0.2-0.5-0.3-0.8c-0.1-0.3-0.1-0.6-0.1-0.8
					c-0.1-0.7-0.2-1.3-0.3-2c-0.1-0.6-0.2-1.3-0.3-2c-0.2-1.5-0.3-3.1-0.5-4.5c0-0.1-0.1-0.3-0.1-0.4c0-0.1,0-0.3,0-0.4
					c0-0.3-0.1-0.7-0.1-1c0-0.3-0.1-0.8,0-1c0-0.2,0.3-0.4,0.5-0.5c0.2,0,0.4,0,0.6-0.1c0.2-0.1,0.3-0.2,0.5-0.3
					c0.1-0.1,0.2-0.1,0.3-0.1c0.1,0,0.3-0.1,0.3-0.1c0,0,0.1,0.1,0.2,0C65,65.1,65.1,65.2,65.1,65.2z"/>
				<path fill="#381324" d="M76.2,63.9C76.2,63.9,76.2,63.9,76.2,63.9c0.1,0.1,0.2,0.1,0.2,0.1c0.1,0,0.1,0.2,0.1,0.3
					c0,0.1,0,0.2,0.1,0.3c0,0,0,0,0-0.1c0,0.1,0,0.2,0,0.3c0,0.1,0.1,0.2,0.1,0.2c0,0,0,0.1,0,0.1c0,0,0.1,0.1,0.1,0.1
					c0.1,0,0.2-0.1,0.2-0.3c0-0.1,0.1-0.2,0.1-0.4c0-0.2,0.1-0.4,0.1-0.5c0.1-0.2,0.2-0.3,0.4-0.3c0.1,0,0.3,0,0.4,0
					c0.1,0,0.2,0,0.4,0c0,0,0,0,0,0c0.1,0,0.2,0.1,0.2,0.3c0,0,0,0,0,0c0.1,0.2,0.1,0.3,0.1,0.5c0,0.2,0,0.4,0,0.5
					c0,0,0,0.1,0.1,0.1c0,0,0,0.1,0,0.2c0,0,0-0.1,0-0.1s0.1,0.4,0.2,0.6c0.1,0.2,0.1,0.4,0.1,0.6c0,0.2-0.1,0.5,0,0.8
					c0,0.3,0,0.6,0,0.9c0,1.9,0,3.9,0.1,5.8s0.2,3.9,0.3,5.8c0,0.1,0,0.2,0,0.4c0,0.2,0.1,0.3,0.2,0.4c0,0,0.1,0,0.1,0.1
					c0,0,0.1,0,0.1,0c0,0,0.2,0.1,0.3,0c0.1,0,0.2,0,0.3,0c0,0,0-0.1,0.1,0c0,0,0.1,0,0.1,0c0,0,0.1-0.1,0.2,0c0.1,0,0.1,0,0.2,0
					c0.1,0,0.3,0,0.4,0c0.1,0,0.4,0,0.4,0c0,0,0.1-0.1,0.1,0c0,0,0.1,0,0.1,0c0.3-0.1,0.8,0,1.2-0.1c0.4,0,0.9-0.1,1.2,0
					c0.2,0.1,0.3,0.3,0.3,0.5c0,0.2,0,0.4,0,0.6c0,0.2,0,0.4-0.1,0.6c-0.1,0.2-0.1,0.5-0.1,0.6c0,0,0.1,0,0.1,0.1c0,0,0,0.1,0,0.1
					c0.1,0.1,0.2,0.3,0.2,0.4c0,0.2,0,0.3,0,0.5c0,0.1,0,0.2,0,0.4c0,0.1,0,0.3,0,0.4c0,0.1,0,0.3-0.1,0.4c0,0.1-0.2,0.2-0.3,0.2
					c-0.1,0-0.2,0-0.2,0c-0.1,0-0.2,0-0.2,0c-0.4-0.1-1.1,0-1.6,0c-0.5,0-1.1,0.1-1.5,0.1c-0.1,0-0.3,0-0.5,0
					c-0.2-0.1-0.4-0.2-0.5-0.2c-0.1,0-0.2,0.1-0.3,0.2c-0.1,0.1-0.2,0.1-0.4,0.1c-0.2,0-0.5,0-0.7,0c-0.3,0-0.6,0.1-0.7,0.1
					c-0.1,0-0.3-0.1-0.4-0.1c-0.1-0.1-0.2-0.2-0.3-0.3c0-0.1-0.1-0.1-0.1-0.2c0-0.1-0.1-0.1-0.1-0.1c-0.1,0-0.1,0-0.2,0.1
					c0,0.1-0.1,0.2-0.1,0.2c0,0.1,0,0.2-0.1,0.2c0,0.1,0,0.2-0.1,0.2c0,0-0.1,0-0.1,0.1c0,0,0,0.1-0.1,0.1c-0.1,0-0.1,0-0.2,0
					c-0.1,0-0.1-0.1-0.2-0.1c-0.1-0.1-0.2-0.5-0.2-0.7c0-0.3,0-0.5-0.1-0.7c-0.1-0.9-0.2-1.9-0.3-2.9c-0.1-1-0.1-2.1-0.3-2.9
					c0-0.1-0.1-0.2-0.1-0.3c0-0.1-0.1-0.2-0.1-0.3c0,0,0,0,0-0.1c-0.1-0.3-0.2-0.5-0.2-0.8c0-0.3-0.1-0.6-0.1-0.8
					c-0.1-0.7-0.1-1.3-0.2-2c-0.1-0.6-0.1-1.3-0.2-2C74,70.7,74,69,73.8,67.7c0-0.1-0.1-0.3-0.1-0.4c0-0.1,0-0.3,0-0.4
					c0-0.3-0.1-0.7-0.1-1c0-0.3-0.1-0.8,0-1c0.1-0.2,0.3-0.4,0.5-0.4c0.2,0,0.4,0,0.6-0.1c0.2,0,0.4-0.2,0.5-0.3
					c0.1-0.1,0.2-0.1,0.3-0.1c0.1,0,0.3-0.1,0.3,0c0,0,0.1,0.1,0.1,0C76.1,63.8,76.2,63.9,76.2,63.9z"/>
				<path fill="#381324" d="M92.6,62.8c0.9,0,1.7,0.3,2.5,0.9c0.7,0.5,1.3,1.1,1.9,1.8c0.5,0.7,1,1.6,1.3,2.4
					c0.6,1.4,0.9,2.9,0.9,4.4c0,1.5-0.2,2.9-0.6,4.2c-0.2,0.8-0.4,1.5-0.7,2.2c-0.3,0.7-0.6,1.4-0.9,2c-0.2,0.3-0.4,0.6-0.6,1
					c-0.2,0.3-0.4,0.6-0.7,0.9c-0.1,0.1-0.2,0.2-0.3,0.3c-0.1,0.1-0.2,0.2-0.3,0.3c0,0,0,0,0,0c0,0,0,0.1,0,0c0,0,0,0,0,0
					c-0.1,0.2-0.3,0.3-0.4,0.4c-0.1,0.1-0.3,0.2-0.4,0.4c0,0,0,0,0,0c0,0,0,0,0,0.1c0,0,0,0,0,0.1c0,0,0,0,0,0c0,0,0,0,0,0
					c0,0,0,0,0,0c0,0,0,0,0,0c-0.4,0.3-0.9,0.5-1.3,0.6c-0.5,0.1-1,0.2-1.5,0.2c-0.5,0-1.1-0.1-1.6-0.3c-0.5-0.2-1.1-0.5-1.6-0.9
					c-0.5-0.4-1-0.9-1.4-1.6c-0.4-0.6-0.7-1.3-1-2c-0.5-1.3-0.9-2.6-1-4.1c-0.1-1.4-0.1-2.8,0.1-4c0.1-0.5,0.2-0.9,0.3-1.3
					c0.1-0.4,0.3-0.9,0.4-1.3c0-0.2,0-0.4,0-0.7c0-0.2,0-0.4,0.1-0.6c0.4-0.7,0.8-1.5,1.4-2.2c0.6-0.6,1.2-1.2,1.9-1.5
					c0.1-0.1,0.3,0,0.4,0.1c0.1,0.1,0.3,0.3,0.3,0.3c0,0,0.1,0,0.1,0c0,0,0.1,0,0.1,0c0.1-0.1,0.1-0.2,0.1-0.4
					c-0.1-0.1-0.1-0.2-0.1-0.4c0-0.1,0-0.3,0-0.4c0.1-0.2,0.2-0.3,0.4-0.4c0.2-0.1,0.3-0.1,0.5-0.2C91.3,62.9,92,62.8,92.6,62.8
					C92.6,62.9,92.6,62.9,92.6,62.8z M93.4,69.4c-0.3-0.3-0.6-0.6-0.9-0.8c-0.1-0.1-0.3-0.1-0.4-0.2c-0.1-0.1-0.3-0.1-0.4,0
					c0,0,0,0.2,0,0.3c0,0.1,0.1,0.2,0.1,0.3c0,0,0,0,0,0c0,0,0,0,0,0c0,0.1,0,0.1,0,0.2c0,0.1,0,0.2-0.1,0.3
					c-0.1,0.1-0.1,0.2-0.2,0.2c-0.4,0.2-0.7,0.3-1,0.6c-0.3,0.3-0.5,0.7-0.8,0.9c-0.1,0.1-0.1,0.1-0.2,0.2c0,0.1-0.1,0.2-0.1,0.2
					c-0.1,0.2-0.2,0.4-0.3,0.6c-0.1,0.2-0.1,0.5-0.2,0.6c0,0-0.1,0.1-0.1,0.2c0,0.1-0.1,0.2,0,0.2c0,0,0,0,0,0c0,0,0,0,0,0
					c0,0,0,0,0,0c0,0,0,0.1-0.1,0.2c0,0.1,0,0.1,0,0.2c0,0.2-0.1,0.6-0.1,0.9c0,0.3,0,0.6,0,1c0,0.1,0,0.2,0,0.3c0,0.1,0,0.2,0,0.2
					c0,0.1,0,0.2,0,0.3c0,0.1,0,0.2,0,0.2c0,0,0,0,0,0c0,0.2,0,0.4,0.1,0.6c0.1,0.2,0.1,0.5,0.2,0.6c0,0,0,0,0,0
					c0.1,0.3,0.2,0.6,0.4,0.9c0.2,0.3,0.4,0.5,0.6,0.7c0.3,0.2,0.6,0.4,1.1,0.5c0.4,0,0.8-0.1,1-0.3c0.4-0.2,0.8-0.6,1.1-1.1
					c0.2-0.5,0.5-1.1,0.6-1.6c0.3-1,0.4-2,0.5-3.1c0.1-1,0-2.1-0.3-3.2C93.9,70.1,93.7,69.7,93.4,69.4z M90.8,65.3
					c-0.1,0-0.2,0.1-0.2,0.1c-0.1,0-0.2,0.1-0.2,0.2c0,0.1,0,0.2,0.1,0.3c0.1,0,0.1,0,0.2,0c0,0,0.1,0,0.1-0.1
					c0.1-0.1,0.1-0.1,0.2-0.1c0.1,0,0.1-0.1,0.1-0.3C91.1,65.4,90.9,65.3,90.8,65.3z"/>
				<path fill="#381324" d="M103.8,62.9c0.1,0,0.2,0.1,0.3,0.1c0,0,0.1,0,0.2,0.1c0.1,0.1,0.2,0.2,0.2,0.4c0,0.1,0.1,0.3,0.1,0.4
					c0,0.3,0,0.6,0,0.8c0,0.3,0,0.6,0,0.8c0,0.1,0,0.1,0,0.2c0,0.1,0,0.1,0,0.2c0.2,1.1,0.2,2.6,0.3,3.9c0.1,1.3,0.1,2.9,0.4,3.9
					c0,0.1,0.1,0.1,0.2,0.1c0,0,0,0,0.1-0.1c0-0.1,0.1-0.3,0.1-0.4c0-0.1,0.1-0.3,0.1-0.4c0-0.1,0-0.2,0-0.3c0-0.1,0-0.2,0.1-0.3
					c0.2-1.4,0.7-3,1.1-4.5c0.4-1.5,0.7-3,1.2-4.4c0-0.1,0.1-0.2,0.2-0.3c0.1-0.1,0.1-0.1,0.2-0.1c0.2,0,0.5,0,0.8,0
					c0.3,0,0.6,0,0.7,0.1c0.1,0,0.2,0.2,0.3,0.4c0,0,0.1,0.1,0.1,0.1c0,0.1,0.1,0.1,0.2,0.1c0.1,0,0.1-0.1,0.2-0.1
					c0-0.1,0.1-0.1,0.1-0.2c0,0,0.1-0.1,0.1,0c0.1,0,0.1,0,0.2,0c0,0-0.1,0-0.1,0c0.1,0,0.1,0,0.2,0c0,0,0.1,0,0.1,0.1
					c0.1,0,0.6,0.1,0.8,0.2c0,0,0.1,0,0.1,0.1c0,0.1,0.1,0,0.1,0c0,0,0,0.2,0.1,0.3c0,0.1,0,0.2,0.1,0.3c0,0,0,0.1,0,0.1
					c0,0,0,0,0,0.1c0.1,0.3,0.1,0.8,0.1,1.2c0,0.4,0.1,0.7,0.2,1.1c0.1,0.8,0.2,1.6,0.3,2.3c0.1,0.8,0.2,1.6,0.3,2.3c0,0,0,0,0.1,0
					c0,0.2,0,0.5,0.1,0.7c0,0.3,0.1,0.5,0.1,0.7c0,0.1,0.1,0.2,0.1,0.3c0,0.1,0.1,0.2,0.1,0.2c0,0,0,0.1,0,0.1
					c0.1,0.1,0.2,0.2,0.3,0.1c0.1,0,0.1-0.1,0.1-0.2c0-0.1,0.1-0.2,0.1-0.3c0.2-0.9,0.4-1.8,0.6-2.7c0.2-0.9,0.5-1.8,0.7-2.7
					c0.1-0.4,0.2-0.8,0.3-1.2c0.1-0.4,0.3-0.8,0.3-1.1c0,0,0-0.2,0-0.2c0,0,0-0.1,0-0.1c0,0,0-0.1,0-0.1c0-0.1,0-0.2,0.1-0.4
					c0-0.1,0.1-0.3,0.1-0.4c0-0.2,0.2-0.3,0.3-0.4c0.1-0.1,0.3-0.2,0.4-0.2c0,0,0,0,0,0c0,0,0,0,0,0c0,0,0.1,0.1,0.1,0
					c0,0,0.1,0,0.1,0c0.1,0,0.3,0,0.4,0.1c0.2,0.2,0.2,0.4,0.1,0.5c-0.1,0.2-0.2,0.4-0.1,0.5c0,0.1,0.2,0.2,0.2,0.1
					c0.1,0,0.3-0.2,0.3-0.4c0-0.2,0.2-0.4,0.3-0.5c0-0.1,0.1-0.1,0.1-0.1c0.1,0,0.1,0,0.2-0.1c0.1-0.1,0.2-0.1,0.3,0
					c0.1,0,0.2,0,0.3,0c0.1,0,0.2,0,0.3,0c0.1,0,0.2,0,0.3,0c0.2,0,0.4,0.1,0.6,0.1c0.2,0,0.5,0.1,0.7,0.2c0.1,0.1,0.2,0.4,0.1,0.6
					c0,0.1-0.1,0.2-0.1,0.2c0,0.1,0,0.1-0.1,0.2c-0.6,1.1-1,2.4-1.5,3.7c-0.5,1.2-0.9,2.5-1.3,3.8c-0.3,0.9-0.6,1.8-0.8,2.6
					c-0.3,0.9-0.5,1.7-0.8,2.6c-0.2,0.7-0.4,1.3-0.5,1.9c-0.2,0.6-0.3,1.4-0.5,1.9c0,0.1-0.1,0.2-0.1,0.2c0,0.1-0.1,0.1-0.1,0.2
					c-0.1,0.2-0.2,0.4-0.3,0.6c-0.1,0.2-0.2,0.4-0.2,0.6c0,0,0,0,0-0.1c0,0,0,0.1,0,0.1c0,0,0,0,0,0.1c0,0.1-0.1,0.3-0.1,0.4
					c0,0.1-0.1,0.3-0.1,0.4c0,0.2-0.1,0.3-0.1,0.5c0,0.2-0.1,0.3-0.2,0.4c-0.1,0.1-0.2,0.1-0.3,0.1c-0.1,0-0.3,0-0.3,0c0,0,0,0,0,0
					c0,0,0,0,0,0c0,0,0,0,0,0c0,0,0,0-0.1,0c0,0,0,0,0,0c-0.1-0.1-0.2,0-0.4,0.1c-0.2,0.1-0.3,0.1-0.4,0.1c-0.1,0-0.4,0-0.5,0
					c-0.1,0-0.2,0-0.3,0c-0.1,0-0.2,0-0.3-0.1c-0.1,0-0.1-0.1-0.2-0.2c-0.1-0.1-0.1-0.2-0.1-0.2c0-0.1-0.2-0.3-0.2-0.5
					c0-0.1-0.1-0.3-0.1-0.5c-0.3-1.4-0.7-2.8-1.1-4.3c-0.4-1.5-0.9-3-1.1-4.3c0-0.1,0-0.1-0.1-0.2c-0.1,0-0.2,0-0.2,0.2
					c0,0.1-0.1,0.2-0.1,0.3c-0.6,1.3-1.1,2.9-1.5,4.4c-0.5,1.5-1.2,3.2-1.4,4.5c0,0,0,0,0,0.1c0,0,0,0.1,0,0.1c0,0,0,0.1,0,0.1
					c0,0-0.1,0-0.1,0.1c0,0.1-0.1,0.1-0.1,0.1c-0.1,0.1-0.3,0-0.5,0c-0.2,0-0.4,0-0.5,0c-0.1,0-0.3-0.2-0.3-0.3
					c-0.1-0.2-0.1-0.5-0.1-0.8c0-0.3-0.2-0.8-0.2-0.8c0,0-0.1,0-0.1,0c0,0,0,0,0,0c0,0,0,0.1,0,0.2c0,0.1,0,0.1,0,0.2
					c0,0.3,0,0.5,0.1,0.7c0,0.2,0,0.4-0.1,0.7c0,0,0,0,0,0c0,0-0.1,0-0.1,0.1c0,0-0.1,0-0.1,0c-0.1,0-0.2,0-0.3,0
					c-0.1,0-0.2-0.1-0.3-0.2c0,0,0,0,0,0c0,0-0.1-0.1-0.1-0.2c0-0.1-0.1-0.2-0.1-0.3c-0.1-0.3-0.2-0.8-0.3-1.3
					c-0.1-0.4-0.2-0.9-0.3-1.3c0-0.1-0.1-0.3-0.1-0.5c0-0.2-0.1-0.3-0.1-0.5c-0.1-0.6-0.3-1.2-0.4-1.8s-0.3-1.2-0.5-1.8
					c-0.1-0.3-0.1-0.6-0.1-0.8c0-0.3-0.2-0.7-0.2-0.8c0,0,0-0.1,0-0.1c0,0,0-0.1,0-0.2c0-0.1,0-0.2-0.1-0.2c0,0,0,0,0,0
					c0,0-0.1-0.1,0-0.1c0,0,0-0.1,0-0.1c0,0,0,0,0,0c0,0,0,0,0,0c0,0,0,0-0.1-0.1c0-0.2-0.1-0.5-0.1-0.7c-0.1-0.3-0.1-0.5-0.1-0.7
					c0-0.2-0.1-0.4-0.1-0.6c0-0.2-0.1-0.4-0.1-0.6c-0.1-0.2-0.1-0.4-0.1-0.6c0-0.2-0.1-0.4-0.1-0.6c0-0.2-0.1-0.4-0.1-0.5
					c0-0.2-0.1-0.4-0.1-0.6c0,0,0,0,0,0c-0.1-0.4-0.2-0.9-0.3-1.4c-0.1-0.5-0.2-1-0.3-1.4c-0.1-0.5-0.2-0.9-0.2-1.4
					c-0.1-0.5-0.3-1.1-0.2-1.3c0,0,0-0.1,0-0.1c0,0,0-0.1,0-0.1c0-0.1,0-0.2,0-0.3c0-0.1,0-0.2,0-0.2c0,0,0.1-0.1,0.1-0.2
					c0-0.1,0.2-0.1,0.2-0.1c0,0-0.2,0.3-0.2,0.3c0,0,0.1-0.2,0.3-0.3c0.1-0.1,0.2-0.1,0.4-0.1c0.1,0,0.3,0,0.4,0c0.1,0,0.3,0,0.4,0
					c0,0,0,0,0,0c0,0,0,0,0.1,0c0,0,0.1,0,0.1,0c0,0,0.1,0,0.1,0c0,0,0.1-0.1,0.3-0.1c0.3,0,0.6,0,0.9,0c0.3,0,0.9,0.1,1,0
					c0,0,0-0.1,0,0c0,0,0,0,0.1,0C103.5,62.9,103.6,62.9,103.8,62.9z"/>
				<path fill="#381324" d="M133.7,65.5C133.7,65.5,133.7,65.5,133.7,65.5c0.2,0,0.3,0.1,0.4,0.2c0.1,0.1,0.2,0.2,0.2,0.4
					c0,0.1,0,0.1,0,0.1c0,0,0,0.1,0,0.1c0,0,0,0,0,0c0,0,0,0,0,0.1c0,0.2,0,0.4-0.1,0.6c0,0.2,0,0.4-0.1,0.6c0,0,0,0,0,0
					c0,0.1,0,0.3-0.1,0.4c-0.1,0.1-0.1,0.2-0.2,0.3c-0.2,0.3-0.7,0.5-0.8,0.5c0,0,0,0.1-0.1,0.1c0,0,0,0,0,0.1c0,0.1,0,0.2,0.1,0.2
					c0.1,0,0.2,0.2,0.3,0.3c0,0,0,0,0.1,0.1c0,0.1,0.1,0.1,0.1,0.2c0.1,0.2,0,0.4,0,0.6c0,0.2-0.1,0.5-0.2,0.6c0,0-0.1,0-0.1,0.1
					c0,0-0.1,0-0.1,0c-0.1,0-0.2,0-0.3,0c-0.1,0-0.2-0.1-0.3-0.1c-0.5-0.2-1.3-0.2-1.8-0.3c-0.6-0.1-1.3-0.3-1.8-0.3
					c-0.1,0-0.3,0-0.4,0c-0.2,0-0.3,0-0.4,0.2c0,0.1,0,0.1-0.1,0.2c0,0,0,0.1,0,0.2c0,0,0,0,0,0c-0.1,0.1-0.1,0.1-0.1,0.2
					c0,0.1,0,0.2,0,0.3c0,0-0.1,0.1,0,0.1c0,0,0,0.1,0.1,0.1c0,0,0.1,0.1,0.2,0.1c0.1,0,0.1-0.1,0.2-0.2c0-0.1,0.1-0.2,0.1-0.3
					c0.1-0.1,0.1-0.2,0.2-0.2c0.1,0,0.2,0,0.3,0c0,0,0,0,0.1,0.1c0,0,0,0,0-0.1c0.2,0.1,0.3,0.3,0.3,0.5c0,0.1,0,0.2-0.1,0.3
					c0,0.1-0.1,0.2-0.1,0.3c0,0.1,0,0.2-0.1,0.3c0,0.1-0.1,0.2-0.1,0.3c0,0.1-0.1,0.3-0.1,0.5c0,0.2-0.1,0.4-0.1,0.6
					c0,0.1,0,0.2,0,0.3c0,0.2,0.1,0.5,0.1,0.5c0.1,0,0.3,0,0.4,0.1c0.1,0,0.3,0,0.4,0c0.1,0,0.2,0.1,0.3,0.1c0.1,0,0.2,0,0.3,0
					c0.1,0,0.4,0.1,0.5,0.1c0.2,0,0.4,0.1,0.5,0.1c0.1,0,0.1,0,0.1,0.1c0,0,0.1,0.1,0.1,0.1c0,0,0,0.1,0.1,0.2c0,0.1,0,0.2,0,0.2
					c0,0,0,0.1,0,0.1c0,0,0,0.1,0,0.1c0,0.1,0,0.1,0,0.1c0,0-0.1,0.1-0.1,0.1c0,0.1-0.2,0.2-0.2,0.4c0,0.1,0,0.1,0.1,0.1
					c0,0,0,0,0,0c0,0,0,0,0,0.1c0,0,0,0,0.1,0c0,0.2,0,0.5,0,0.8c-0.1,0.4-0.2,0.8-0.4,1c-0.1,0.1-0.2,0.1-0.4,0.1
					c-0.2,0-0.3,0-0.4,0.1c-0.1,0-0.3,0.1-0.5,0.2c-0.1,0.1-0.3,0.2-0.5,0.1c-0.2-0.1-0.5-0.1-0.7-0.1c-0.2,0-0.5,0-0.7-0.1
					c-0.1,0-0.2,0-0.3,0c-0.1,0-0.2,0.1-0.2,0.2c-0.1,0.2-0.2,0.7-0.3,1c-0.1,0.3-0.1,0.7-0.2,1c0,0.2-0.1,0.3-0.1,0.4
					c0,0.1,0,0.3,0,0.5c0,0,0.1,0.1,0.2,0.1c0.1,0,0.2,0,0.2,0.1c0,0,0.1,0,0.1,0c0,0,0.1,0,0.1,0c0,0,0,0,0,0
					c0.2,0.1,0.4,0.1,0.7,0.1c0.2,0,0.5,0.1,0.7,0.1c0.1,0,0.1,0,0.2,0c0.1,0,0.2,0,0.2,0c0.2,0,0.6,0.1,0.8,0.1
					c0.3,0,0.5,0.1,0.8,0.2c0,0,0,0,0,0.1c0,0,0,0,0,0c0,0,0,0,0,0c0,0,0,0,0,0c0,0,0.1,0.1,0.1,0.2c0,0.1,0.1,0.2,0.1,0.2
					c0,0.2-0.1,0.6-0.2,0.8c-0.1,0.3-0.1,0.6-0.2,0.8c0,0.1-0.1,0.2-0.2,0.3c-0.1,0.1-0.1,0.2-0.1,0.4c0,0.1,0.1,0.2,0.1,0.3
					c0,0.1,0,0.2,0,0.4c0,0,0,0,0,0c-0.1,0.2-0.1,0.4-0.1,0.5c0,0.2-0.1,0.4-0.2,0.5c0,0-0.1,0.1-0.1,0.2c0,0.1-0.1,0.1-0.2,0.1
					c-0.1,0-0.2,0-0.2,0c-0.1,0-0.2,0-0.3,0c-0.2,0-0.5-0.1-0.8-0.2c-0.2-0.1-0.6-0.1-0.8-0.1c-0.1,0-0.3-0.1-0.5-0.1
					c-0.2,0-0.3,0-0.5,0c-0.2,0-0.3-0.1-0.5-0.1c-0.1-0.1-0.3-0.3-0.4-0.4c-0.1-0.1-0.2-0.1-0.2,0c-0.1,0.1-0.2,0.2-0.3,0.2
					c-0.1,0-0.3,0-0.4,0c0,0,0,0,0,0c-0.4,0-0.7,0-1.1-0.1c-0.4-0.1-0.8-0.1-1.1-0.1c-0.2,0-0.4-0.2-0.5-0.4c0,0,0,0,0,0
					c0,0,0-0.1,0-0.3c0-0.2,0-0.4,0-0.6c0-0.2,0-0.4,0-0.6c0-0.3,0.1-0.7,0.1-1.2c0-0.4,0.1-0.9,0.1-1.2c0.1-0.4,0.1-0.7,0.1-1.1
					c0-0.4,0.1-0.7,0.1-1.1c0-0.3,0.1-0.7,0.1-1c0-0.3,0.1-0.7,0.1-1c0-0.1,0-0.2,0-0.3c0-0.1,0-0.3,0-0.4c0.1-0.6,0.2-1.4,0.3-2.2
					s0.2-1.5,0.4-2.1c0-0.2,0.1-0.3,0.3-0.4c0.1-0.1,0.3-0.2,0.3-0.3c0.1-0.2,0.1-0.4,0.2-0.6c0-0.2,0.1-0.4,0.1-0.6
					c0-0.1,0-0.2,0.1-0.3c0-0.1,0-0.2-0.1-0.3c-0.1-0.1-0.3-0.1-0.5-0.1c-0.2,0-0.4,0-0.5-0.1c0,0,0,0,0,0c0,0,0,0,0,0
					c0,0.1,0,0.1-0.1,0c0,0-0.1,0-0.1,0c0,0,0-0.1-0.1-0.1c0,0,0,0,0,0c0,0,0,0,0-0.1c0,0,0-0.1,0-0.1c0,0,0,0,0,0
					c0-0.1,0-0.2,0-0.3c0-0.1,0-0.2,0-0.3c0-0.1,0-0.2,0-0.2c0-0.1,0-0.2,0-0.3c0,0,0,0,0,0c0,0,0.1-0.1,0.1-0.1c0,0,0,0,0,0
					c0,0,0,0,0,0c0-0.1,0.1-0.2,0.2-0.2c0.1,0,0.2-0.1,0.2-0.2c0,0,0-0.1,0-0.1c0,0,0-0.1,0-0.1c-0.1-0.1-0.2-0.2-0.3-0.3
					c-0.1-0.1-0.2-0.2-0.2-0.4c0-0.3,0-0.6,0.1-1c0.1-0.3,0.1-0.7,0.2-0.9c0.1-0.1,0.3-0.2,0.4-0.3c0.2,0,0.3-0.1,0.5-0.1
					c0.2,0,0.3,0,0.5,0.1c0.2,0,0.4,0,0.5,0c0.2,0,0.4-0.1,0.6-0.2c0.2-0.1,0.4-0.1,0.6-0.1c0.1,0,0.1,0,0.2,0c0,0,0.1,0,0.2,0
					c0,0,0,0,0,0c0,0,0,0,0,0c0,0,0,0,0,0c0,0,0,0.1,0,0c0,0,0,0,0,0c0,0,0.1,0,0.1,0c0,0,0.1,0,0.1,0c0.2,0,0.5,0.1,0.7,0.1
					c0.2,0,0.5,0,0.8,0.1c0.7,0.1,1.4,0.2,2.2,0.3C132.1,65.3,132.9,65.4,133.7,65.5z"/>
				<path fill="#381324" d="M146.6,67.9C146.6,67.8,146.6,67.8,146.6,67.9c0.2,0,0.3,0.1,0.4,0.2c0.1,0.1,0.2,0.2,0.2,0.4
					c0,0.1,0,0.1,0,0.1c0,0,0,0.1,0,0.1c0,0,0,0,0,0c0,0,0,0,0,0.1c0,0.2-0.1,0.4-0.1,0.6c0,0.2-0.1,0.4-0.1,0.6c0,0,0,0,0,0
					c0,0.1-0.1,0.3-0.1,0.4c-0.1,0.1-0.1,0.2-0.2,0.3c-0.2,0.3-0.8,0.4-0.8,0.5c0,0,0,0.1-0.1,0.1c0,0,0,0,0,0.1
					c0,0.1,0,0.2,0.1,0.2c0.1,0,0.2,0.2,0.3,0.3c0,0,0,0,0.1,0.1c0,0.1,0.1,0.1,0.1,0.2c0.1,0.2,0,0.4-0.1,0.6
					c-0.1,0.2-0.1,0.5-0.2,0.6c0,0-0.1,0-0.1,0.1c0,0-0.1,0-0.1,0c-0.1,0-0.2,0-0.3,0c-0.1,0-0.2-0.1-0.3-0.1
					c-0.5-0.2-1.3-0.3-1.8-0.4c-0.6-0.1-1.3-0.4-1.8-0.4c-0.1,0-0.3,0-0.4-0.1c-0.2-0.1-0.3,0-0.4,0.1c0,0.1-0.1,0.1-0.1,0.2
					c0,0,0,0.1,0,0.2c0,0,0,0,0,0c-0.1,0.1-0.1,0.1-0.1,0.2c0,0.1,0,0.2,0,0.3c0,0-0.1,0.1,0,0.1c0,0,0,0.1,0.1,0.1
					c0,0,0.1,0.1,0.2,0.1c0.1,0,0.1-0.1,0.2-0.2c0.1-0.1,0.1-0.2,0.2-0.3c0.1-0.1,0.1-0.1,0.2-0.2c0.1,0,0.2,0,0.3,0c0,0,0,0,0,0.1
					c0,0,0,0,0-0.1c0.1,0.1,0.3,0.3,0.3,0.5c0,0.1,0,0.2-0.1,0.3c0,0.1-0.1,0.2-0.1,0.3c0,0.1-0.1,0.2-0.1,0.3
					c-0.1,0.1-0.1,0.2-0.1,0.3c0,0.1-0.1,0.3-0.2,0.5c-0.1,0.2-0.1,0.4-0.2,0.6c0,0.1,0,0.2,0,0.3c0,0.2,0,0.5,0.1,0.5
					c0.1,0.1,0.3,0.1,0.4,0.1c0.1,0,0.3,0,0.4,0.1c0.1,0,0.2,0.1,0.3,0.1c0.1,0,0.2,0,0.3,0c0.1,0,0.3,0.1,0.5,0.1
					c0.2,0,0.4,0.1,0.5,0.1c0.1,0,0.1,0,0.1,0.1c0,0,0.1,0.1,0.1,0.1c0,0,0,0.1,0,0.2c0,0.1,0,0.2,0,0.2c0,0,0,0.1,0,0.1
					c0,0,0,0.1,0,0.1c0,0.1,0,0.1,0,0.1c0,0-0.1,0.1-0.1,0.1c0,0.1-0.2,0.2-0.2,0.4c0,0.1,0,0.1,0.1,0.1c0,0,0,0,0,0c0,0,0,0,0,0.1
					c0,0,0,0,0,0c0,0.2,0,0.5,0,0.8c-0.1,0.4-0.2,0.8-0.4,0.9c-0.1,0.1-0.2,0.1-0.4,0c-0.2,0-0.3,0-0.4,0c-0.1,0-0.3,0.1-0.5,0.2
					c-0.1,0.1-0.3,0.1-0.5,0.1c-0.2-0.1-0.5-0.1-0.7-0.2c-0.2,0-0.5-0.1-0.7-0.1c-0.1,0-0.2,0-0.3,0c-0.1,0-0.2,0.1-0.2,0.2
					c-0.2,0.2-0.2,0.7-0.3,1c-0.1,0.3-0.2,0.7-0.3,1c0,0.2-0.1,0.3-0.1,0.4c-0.1,0.1-0.1,0.3,0,0.5c0,0,0.1,0.1,0.2,0.1
					c0.1,0,0.2,0.1,0.2,0.1c0,0,0.1,0,0.1,0c0,0,0.1,0,0.1,0c0,0,0,0,0,0c0.2,0.1,0.4,0.1,0.7,0.1c0.2,0,0.5,0.1,0.7,0.2
					c0.1,0,0.1,0,0.2,0c0.1,0,0.2,0,0.2,0c0.2,0,0.6,0.1,0.8,0.2c0.3,0,0.5,0.1,0.8,0.2c0,0,0,0,0,0.1c0,0,0,0,0,0c0,0,0,0,0,0
					c0,0,0,0,0,0c0,0.1,0.1,0.1,0.1,0.2c0,0.1,0.1,0.2,0.1,0.2c0,0.2-0.1,0.6-0.2,0.8c-0.1,0.3-0.1,0.6-0.2,0.8
					c0,0.1-0.1,0.2-0.2,0.3c-0.1,0.1-0.1,0.2-0.1,0.4c0,0.1,0,0.2,0.1,0.4c0,0.1,0,0.2,0,0.4c0,0,0,0,0,0c-0.1,0.2-0.1,0.3-0.2,0.5
					c0,0.2-0.1,0.4-0.3,0.5c0,0-0.1,0.1-0.1,0.2c0,0.1-0.1,0.1-0.2,0c-0.1,0-0.2,0-0.2,0c-0.1,0-0.2,0-0.3,0c-0.2,0-0.5-0.2-0.8-0.2
					c-0.2-0.1-0.6-0.1-0.8-0.2c-0.1,0-0.3-0.1-0.4-0.1c-0.2,0-0.3,0-0.5-0.1c-0.2,0-0.3-0.1-0.5-0.2c-0.1-0.1-0.3-0.3-0.4-0.4
					c-0.1-0.1-0.2-0.1-0.2,0c-0.1,0.1-0.2,0.2-0.4,0.2c-0.1,0-0.3,0-0.4,0c0,0,0,0,0,0c-0.4,0-0.7-0.1-1.1-0.2
					c-0.4-0.1-0.8-0.1-1.1-0.2c-0.2,0-0.4-0.2-0.5-0.5c0,0,0,0,0,0c0,0,0-0.1,0-0.3c0-0.2,0-0.4,0.1-0.6c0.1-0.2,0-0.4,0.1-0.6
					c0-0.3,0.2-0.7,0.2-1.2c0-0.4,0.1-0.9,0.2-1.2c0.1-0.4,0.1-0.7,0.2-1.1c0.1-0.4,0.1-0.7,0.2-1.1c0.1-0.3,0.1-0.7,0.2-1
					c0.1-0.3,0.1-0.7,0.2-1c0-0.1,0.1-0.2,0.1-0.3c0-0.1,0-0.3,0.1-0.4c0.2-0.6,0.3-1.4,0.4-2.2c0.2-0.7,0.3-1.5,0.5-2.1
					c0-0.2,0.1-0.3,0.3-0.4c0.1,0,0.3-0.2,0.4-0.3c0.1-0.2,0.2-0.4,0.2-0.6c0-0.2,0.1-0.4,0.1-0.6c0-0.1,0-0.2,0.1-0.3
					c0-0.1,0-0.2-0.1-0.3c-0.1-0.1-0.3-0.2-0.5-0.2c-0.2,0-0.4-0.1-0.5-0.1c0,0,0,0,0,0c0,0,0,0,0,0c0,0.1,0,0.1-0.1,0
					c0,0-0.1,0-0.1,0c0,0,0-0.1,0-0.1c0,0,0,0,0,0c0,0,0,0,0-0.1c0,0,0,0,0-0.1c0,0,0,0,0,0c0-0.1,0-0.2,0-0.3c0-0.1,0-0.2,0-0.3
					c0-0.1,0-0.2,0.1-0.2c0-0.1,0-0.2,0.1-0.3c0,0,0,0,0,0c0,0,0.1-0.1,0.1-0.1c0,0,0,0,0,0c0,0,0,0,0,0c0-0.1,0.1-0.1,0.2-0.2
					c0.1,0,0.2-0.1,0.2-0.2c0,0,0-0.1,0-0.1c0,0,0-0.1,0-0.1c0-0.1-0.2-0.2-0.3-0.3c-0.1-0.1-0.2-0.2-0.1-0.4c0-0.3,0.1-0.6,0.1-1
					c0.1-0.3,0.1-0.7,0.2-0.9c0.1-0.1,0.3-0.2,0.4-0.2c0.2,0,0.3,0,0.5,0c0.2,0,0.3,0,0.5,0.1c0.2,0,0.4,0,0.5,0
					c0.2,0,0.4,0,0.6-0.2c0.2-0.1,0.4-0.1,0.6,0c0.1,0,0.1,0,0.2,0c0,0,0.1,0,0.2,0c0,0,0,0,0,0c0,0,0,0,0,0c0,0,0,0,0,0
					c0,0,0,0.1,0,0c0,0,0,0,0,0c0,0,0.1,0,0.1,0c0,0,0.1,0,0.1,0c0.2,0,0.5,0.1,0.7,0.1c0.2,0,0.5,0.1,0.7,0.1
					c0.7,0.1,1.4,0.3,2.1,0.4C145.1,67.5,145.9,67.7,146.6,67.9z"/>
				<path fill="#381324" d="M162.4,72c0,0.1,0,0.2,0,0.3c0,0.1,0,0.2,0.1,0.2c0.1,0,0.2,0,0.2-0.1c0.1-0.1,0.1-0.2,0.2-0.2
					c0.1-0.1,0.2-0.1,0.2-0.1c0.1,0,0.2,0,0.3,0.1c0.1,0.1,0.1,0.2,0,0.3c-0.1,0.1-0.1,0.2-0.1,0.3c-0.1,0.2-0.3,0.4-0.3,0.7
					c-0.1,0.3-0.2,0.5-0.3,0.8c-0.3,0.7-0.6,1.5-0.8,2.2c-0.3,0.7-0.6,1.5-0.8,2.2c-0.5,1.3-0.7,2-1.2,3.4c-0.5,1.5-1,2.9-1.4,4.4
					c-0.4,1.5-1.4,4.1-1.3,4.4c0,0,0,0,0.1,0c0,0,0,0,0,0c-0.1,0.1-0.1,0.4-0.1,0.4c0,0-0.1,0-0.1,0.1c0,0,0,0.1,0,0.1c0,0,0,0,0,0
					c0,0,0,0.1,0,0.1c0,0,0,0,0,0c0,0.1-0.1,0.3-0.1,0.4c0,0.2-0.1,0.4-0.2,0.5c0,0-0.1,0.1-0.1,0.1c0,0,0,0.1-0.1,0.1
					c-0.1,0.1-0.2,0.1-0.4,0.1c-0.2-0.1-0.3-0.1-0.4-0.2c-0.1-0.1-0.1-0.1-0.1-0.2c0,0,0,0,0,0.1c0-0.1-0.1-0.1-0.1-0.2
					c0-0.1,0-0.1-0.1-0.2c-0.1-0.1-0.2-0.1-0.2,0c-0.1,0.1-0.1,0.1-0.2,0.2c-0.1,0-0.3,0.1-0.4,0c-0.1-0.1-0.3-0.1-0.4-0.1
					c-0.1,0-0.2-0.2-0.2-0.2c0,0,0,0,0,0c0-0.1,0-0.2-0.1-0.4c0-0.1-0.1-0.3-0.1-0.4c-0.1-0.6-0.3-1.4-0.5-2.1
					c-0.2-0.7-0.2-1.6-0.5-2.1c-0.1-0.2-0.3-0.5-0.4-0.8c-0.1-0.3-0.1-0.6-0.2-0.9c0,0,0,0,0,0c-0.1-0.6-0.3-1.2-0.5-1.8
					c-0.2-0.6-0.3-1.3-0.5-1.9c-0.1-0.1-0.1-0.3-0.1-0.4c0-0.1-0.1-0.3-0.2-0.4c-0.1-0.1-0.2-0.1-0.3,0c-0.1,0.1-0.2,0.3-0.3,0.6
					c-0.4,1.4-0.8,2.8-1.2,4.2c-0.4,1.4-0.8,2.8-1.1,4.2c0,0,0,0,0,0.1c-0.1,0.2-0.2,0.4-0.4,0.5c0,0,0,0,0,0
					c-0.1,0.1-0.2,0.1-0.3,0c-0.1,0-0.2-0.1-0.3-0.1c-0.1,0-0.2-0.1-0.2-0.3c0,0,0,0,0,0c0,0,0-0.1,0-0.1c0-0.1,0-0.1-0.1-0.2
					c0-0.3,0.1-0.4,0.1-0.7c0,0,0-0.1,0-0.1c0,0,0-0.1-0.1-0.1c-0.1,0-0.2,0.1-0.2,0.1c0,0.1,0,0.1,0,0.2c-0.1,0,0,0.1,0,0.2
					c0,0-0.1,0.2-0.1,0.3c0,0.1-0.1,0.2-0.1,0.2c0,0.1-0.1,0.2-0.2,0.3c-0.1,0.1-0.2,0.1-0.3,0c-0.1,0-0.3,0-0.4-0.1
					c-0.1-0.1-0.3-0.1-0.4-0.1c-0.2,0-0.3-0.2-0.4-0.4c-0.1-0.2-0.1-0.5,0-0.8c0.1-0.3,0.1-0.5,0.1-0.8c0.1-0.5,0.2-1,0.3-1.5
					c0.1-0.5,0.2-1,0.3-1.4c0.1-0.2,0.1-0.5,0.2-0.8c0,0,0,0,0-0.1c0.1-0.3,0.1-0.6,0.2-1c0.1-0.3,0.2-0.7,0.2-1c0-0.1,0-0.2,0-0.2
					c0-0.1,0-0.2,0.1-0.3c0.2-1.4,0.7-3,1.1-4.6c0.4-1.5,0.7-3.1,1.2-4.5c0-0.1,0-0.1,0.1-0.2c0-0.1,0-0.2,0-0.2
					c0,0,0.1-0.1,0.2-0.2c0.1-0.2,0.3-0.4,0.4-0.7c0.1-0.3,0.2-0.6,0.3-0.9c0.1-0.2,0.1-0.4,0.2-0.6c0.1-0.2,0.1-0.4,0.2-0.6
					c0-0.1,0.1-0.3,0.2-0.3c0.1-0.1,0.2-0.1,0.3-0.2c0.2,0,0.5,0.1,0.7,0.1c0.3,0.1,0.6,0.1,0.8,0.2c0.2,0.1,0.3,0.6,0.3,0.9
					c0,0.1,0,0.2,0.1,0.2c0.1,0,0.2,0.1,0.3-0.1c0-0.1,0.1-0.2,0.2-0.3c0-0.1,0.1-0.3,0.3-0.3c0.2-0.1,0.4,0,0.5,0.2
					c0.1,0.2,0.3,0.4,0.3,0.6c0.2,0.7,0.4,1.4,0.6,2.1c0.2,0.7,0.6,1.6,0.6,2.1c0,0,0,0.1,0,0.1c0,0,0.1,0.1,0.1,0.1
					c0.2,0.9,0.4,1.8,0.6,2.7c0.2,0.9,0.3,2,0.6,2.7c0,0,0.1,0.1,0.1,0.2c0,0.1,0.1,0.1,0.1,0.1c0.2,0,0.2-0.1,0.2-0.3
					c0-0.2,0-0.3,0.1-0.4c0.4-1.1,0.7-2.6,1-4c0.4-1.4,0.7-2.7,1.2-4c0-0.1,0.1-0.2,0.1-0.2c0-0.1,0.1-0.1,0.1-0.2
					c0.1-0.1,0.3-0.3,0.5-0.2c0.2,0.1,0.4,0.1,0.6,0.1c0.1,0,0.1,0,0.2,0.1c0,0,0.1,0.1,0.1,0.1c0.1,0.1,0.1,0.2,0.1,0.3
					c0,0.1,0,0.2-0.1,0.3c-0.1,0.1-0.1,0.3-0.2,0.4c0,0.2-0.1,0.4-0.1,0.5c-0.1,0.1,0,0.3,0.1,0.3c0,0.1,0.1,0.1,0.2,0
					c0.2-0.2,0.3-0.4,0.4-0.7c0.1-0.3,0.2-0.5,0.3-0.7c0,0,0,0,0,0c0,0,0-0.1,0-0.1c0,0.1,0,0.1,0.1,0c0-0.1,0-0.1,0.1-0.1
					c0.1,0,0.2-0.1,0.3-0.1c0.1,0,0.2,0,0.3,0.1c0.1,0,0.3,0.1,0.5,0.1C162.2,71.7,162.3,71.8,162.4,72z"/>
			</g>
			<g>
				<path fill="#FFEACC" d="M40.1,69.5c0.1,0.1,0.1,0.4,0.2,0.6c0,0.2,0,0.4,0.1,0.6c0,0.3,0.1,0.6,0.1,0.9c0.1,0.3,0.2,0.6,0.4,0.9
					C41,72.7,41,73,41,73.2c0,0.2,0.1,0.4,0.1,0.7c0.1,0.3,0.1,0.7,0.1,1.1c0.1,0.4,0.1,0.7,0.1,1.1c0,0.2,0.1,0.4,0.1,0.5
					c0,0.2,0.1,0.4,0.1,0.5c0.1,0.5,0.1,0.8,0.2,1.4c0,0.1,0.1,0.2,0.2,0.2c0.1,0,0.2,0.1,0.3,0.1c0.4-0.1,0.8-0.2,1.3-0.3
					c0.4-0.1,0.9-0.2,1.2-0.3c0.1,0,0.1-0.1,0.2-0.2c0-0.1,0.1-0.2,0.1-0.3c0-1.1-0.5-2.8-0.8-4.2c-0.2-1.4-0.5-2.9-0.6-4.2
					c0-0.2,0-0.4,0.1-0.4c0,0,0,0-0.1,0c0.1,0,0.1,0,0.1,0c0,0,0-0.1,0-0.1c0,0,0,0,0,0c0,0,0,0,0.1,0c0.2,0,0.5-0.2,0.7-0.2
					c0.2,0,0.6-0.1,0.7-0.2c0.1-0.1,0.4-0.4,0.6-0.4c0,0,0.1,0,0.2,0c0.1,0,0.1-0.1,0.2-0.1c0.1,0,0.3,0.2,0.3,0.3
					c0,0.1,0,0.2,0,0.3c0,0.1,0,0.2,0.1,0.2c0,0.1,0.1,0.2,0.1,0.3c0,0,0.1,0.1,0.1,0.1c0.1,0,0.1,0,0.1,0c0,0,0.1-0.1,0.1-0.2
					c0-0.1,0-0.1,0-0.2c0-0.2,0.1-0.3,0.1-0.5c0-0.2,0-0.3,0.2-0.4c0,0,0,0,0,0c0.1,0,0.3,0,0.4-0.1c0.1-0.1,0.3,0,0.5,0
					c0,0,0.1,0,0.1,0.1c0,0,0.1,0.1,0.1,0.1c0,0,0.1,0.1,0,0.1c0,0,0,0,0,0.1c0,0,0,0.2,0,0.2c0,0.1,0,0.2,0,0.2c0,0,0,0,0,0.1
					c0.1,1.1,0.2,2.3,0.3,3.5c0.1,1.2,0.3,2.4,0.4,3.5c0,0.2,0,0.4-0.1,0.5c0,0.2,0,0.4,0.1,0.6c0.1,0.3,0.1,0.9,0.2,1.4
					c0.1,0.5,0.2,1,0.2,1.4c0.3,1.4,0.4,2.2,0.6,3.6c0,0,0,0,0,0c0.1,0.9,0.3,1.7,0.5,2.6c0.2,0.8,0.2,2.1,0.5,2.6
					c0,0,0.1,0.1,0,0.1c0,0,0,0.1,0,0.1c0,0,0,0.1,0,0.1c0,0.1,0,0.1,0.1,0.1c0,0,0,0.1,0,0.2c0,0.1,0,0.2,0,0.2
					c0,0.1,0,0.1-0.1,0.2c-0.1,0-0.1,0-0.2,0c0,0-0.1,0-0.1,0c0,0,0,0,0,0c0,0-0.1-0.1-0.1-0.1c0,0-0.1-0.1-0.1-0.1
					c-0.1-0.1-0.2-0.1-0.2,0c0,0.1-0.1,0.2-0.2,0.3c-0.1,0.1-0.2,0.1-0.3,0.1c-0.1,0-0.1,0-0.2,0.1c-0.1,0-0.1,0-0.2,0c0,0,0,0,0,0
					c-0.1,0-0.3,0-0.4,0c-0.2,0-0.3,0.1-0.3,0.2c-0.1,0.1-0.3,0.1-0.5,0.2c-0.2,0-0.4,0-0.6-0.2c-0.1,0-0.1-0.1-0.2-0.2
					c-0.1-0.1-0.1-0.2-0.1-0.3c-0.1-0.8-0.5-1.8-0.7-2.7c-0.2-0.9-0.5-1.8-0.7-2.7c-0.1-0.2-0.1-0.5-0.2-0.7
					c-0.1-0.3-0.1-0.6-0.2-0.7C46,82.1,45.8,82,45.7,82c0,0-0.1,0-0.1,0c0,0,0,0,0,0s-0.1,0-0.1,0c0,0,0,0.1,0,0c0,0,0,0-0.1,0
					c-0.2,0.1-0.6,0.1-0.9,0.2c-0.3,0.1-0.7,0.2-0.9,0.2c-0.2,0-0.4-0.1-0.5-0.3c-0.1-0.1,0-0.3,0.1-0.4c0.1-0.1,0.3-0.2,0.3-0.3
					c0,0,0-0.1,0-0.1c0,0,0-0.1-0.1-0.1c0,0-0.1,0-0.2,0c-0.1,0-0.2,0-0.2,0c0,0-0.1,0.1-0.2,0.1c-0.1,0-0.1,0.1-0.1,0.1
					c0,0,0,0,0,0c0,0,0,0.1-0.1,0.1c0,0-0.1,0.1-0.1,0.2c0,0.4,0.1,1,0.3,1.5c0.1,0.5,0.2,1,0.3,1.5c0.2,0.9,0.4,1.7,0.6,2.6
					c0.2,0.8,0.4,1.7,0.7,2.6c0.1,0.3,0.1,0.6-0.1,0.7c-0.1,0.1-0.2,0.1-0.3,0.2c-0.1,0-0.2,0-0.3-0.1c-0.1-0.1-0.2-0.1-0.2-0.3
					c0-0.1-0.2-0.2-0.2-0.2c0,0-0.1-0.1-0.1-0.1c-0.1,0-0.2,0.1-0.2,0.3c0,0.2,0,0.3-0.1,0.5c0,0.2-0.1,0.3-0.3,0.3
					c-0.2,0-0.4,0.1-0.6,0.1c-0.2,0-0.4,0.1-0.6,0.1c-0.1,0-0.1,0-0.2,0c-0.1-0.1-0.1-0.1-0.2-0.1c-0.2-0.2-0.3-0.5-0.3-0.7
					c-0.1-0.3-0.1-0.5-0.2-0.8c-0.2-0.5-0.3-1.1-0.4-1.7c-0.2-0.6-0.3-1.2-0.5-1.7c-0.2-0.4-0.4-0.8-0.6-1.2
					c-0.2-0.4-0.3-0.9-0.4-1.2c-0.4-1.7-1-3.6-1.5-5.4c-0.5-1.8-0.9-3.6-1.3-5.4c-0.1-0.4-0.2-0.8-0.3-1.3c-0.1-0.4-0.1-0.9,0.1-1.2
					c0.1-0.1,0.4-0.3,0.6-0.2c0,0,0.1,0.1,0.2,0.1c0.1,0,0.1,0.1,0.1,0.2c0,0.2,0.1,0.3,0.1,0.4c0,0.1,0,0.4,0.1,0.4
					c0,0,0.1,0,0.1,0.1c0,0,0.1,0,0.1,0c0,0,0,0,0.1,0c0.1,0,0.2-0.2,0.2-0.4c0-0.2,0-0.5,0-0.7c0-0.3,0.1-0.5,0.3-0.6
					c0.1-0.1,0.3-0.1,0.4,0.1c0.1,0.1,0.3,0.2,0.4,0.1c0.1,0,0.2-0.2,0.3-0.3c0.1-0.1,0.2-0.2,0.3-0.3c0.1-0.1,0.3-0.1,0.5-0.1
					c0.2,0,0.4-0.1,0.5-0.1C39.7,69.3,40,69.4,40.1,69.5z"/>
				<path fill="#FFEACC" d="M61,69c0.4,1.1,0.7,2.2,1.1,3.3c0.2,0.5,0.3,0.9,0.4,1.4c0.1,0.5,0.3,0.9,0.4,1.4c0,0,0,0.1,0,0.1
					c0.1,0.3,0.2,0.6,0.3,0.8c0.1,0.3,0.2,0.6,0.2,0.9c0,0,0,0.1,0,0.1c0,0,0,0.1,0,0.1c0.1,1.1,0.7,2.5,1,3.7
					c0.3,1.2,0.7,2.4,0.9,3.7c0,0.1,0.1,0.3,0.1,0.4c0,0.1,0,0.3,0.1,0.4c0,0,0,0.1,0,0.1c0,0,0,0.1,0,0.1c0.1,0,0.1,0.1,0,0.2
					c0,0.1,0,0.1,0,0.2c0,0,0,0.1,0,0.2c0,0.1,0,0.1-0.1,0.1c-0.1,0.1-0.2,0.1-0.3,0c-0.1-0.1-0.2-0.3-0.3-0.3c0-0.1-0.2,0-0.2,0
					c0,0.1-0.1,0.2-0.1,0.3c0,0.1-0.2,0.2-0.2,0.2c0,0,0,0,0,0c0,0-0.1,0-0.1,0c-0.2,0-0.4,0-0.6,0c-0.2,0-0.4,0.1-0.5,0.3
					c0,0,0,0-0.1,0c0,0,0,0-0.1,0c0,0,0,0,0,0.1c0,0,0,0,0,0c0,0,0,0,0,0c0,0,0,0.1-0.1,0c0,0-0.1,0-0.1,0c0,0-0.2,0-0.3,0
					c-0.1,0-0.2,0-0.3-0.1c0-0.1-0.1-0.1-0.1-0.2c-0.1-0.1-0.1-0.1-0.2-0.2c-0.2-0.3-0.3-0.9-0.4-1.3c-0.1-0.4-0.2-0.8-0.4-1.2
					c-0.1-0.1-0.1-0.2-0.2-0.2c-0.1,0-0.2-0.1-0.3-0.1c-0.1,0-0.5,0.1-0.7,0.1c-0.2,0-0.5,0.1-0.6,0.2c0,0.1-0.1,0.2-0.2,0.2
					c-0.1,0-0.1,0.1-0.2,0.1c-0.2,0.1-0.7,0.2-1,0.2c-0.4,0.1-0.9,0.1-1,0.2c0,0-0.1,0.2-0.2,0.2c-0.1,0-0.1,0.1-0.1,0.3
					c0,0.3-0.1,0.7-0.1,1.1c0,0.4-0.1,0.8-0.1,1.1c0,0.1,0,0.2-0.1,0.2c-0.1,0.1-0.1,0.2-0.1,0.2c0,0-0.1,0-0.1-0.1c0,0,0,0,0,0
					c0,0,0,0,0.1,0.1c0,0,0,0-0.1,0c0,0,0,0,0,0c0,0,0,0,0,0c0,0-0.1,0.1-0.2,0.1c-0.1,0-0.2,0-0.2,0c-0.1,0-0.1,0-0.2,0
					c-0.1,0-0.2,0-0.2,0.1c0,0.1-0.1,0.1-0.2,0.1c-0.1,0-0.2,0-0.2,0c-0.1,0-0.2,0-0.3-0.1c-0.1-0.1-0.3-0.1-0.3,0
					c-0.1,0.1-0.2,0.2-0.3,0.3c-0.1,0.1-0.3,0.1-0.5,0c-0.1,0-0.1-0.1-0.2-0.2c-0.1-0.1-0.1-0.1-0.1-0.2c0-0.1,0-0.3,0-0.4
					c0-0.1,0-0.3,0-0.4c0,0,0,0,0,0c0-0.4,0-0.9,0-1.3c0-0.4,0.1-0.9,0-1.3c0,0,0,0,0,0c0,0,0,0,0,0c0.1-1,0.2-2.1,0.2-3.1
					c0-1,0.1-2,0.2-3.1c0.1-1.2,0.3-2.5,0.4-3.7c0.2-1.2,0.4-2.5,0.6-3.7c0.1-0.8,0.3-1.6,0.4-2.4c0.2-0.8,0.3-1.7,0.5-2.4
					c0,0,0-0.1,0.1-0.1c0,0,0.1-0.1,0.1-0.1c0.1,0,0.2,0,0.3-0.1c0,0,0,0,0,0c0.1,0,0.1,0,0.2,0c0.1,0,0.1,0.1,0.2,0.1
					c0.1,0,0.3,0,0.3-0.2c0.1-0.1,0.2-0.3,0.3-0.3c0.1,0,0.3,0,0.4-0.1c0.1,0,0.3,0,0.4-0.1c0,0,0,0,0,0c0,0,0,0,0.1,0
					c0.1,0,0.2,0,0.3,0.1c0.1,0.1,0.2,0.1,0.3-0.1c0.1-0.1,0.1-0.1,0.1-0.2c0.1-0.1,0.2-0.1,0.3-0.1c0.1,0,0.2-0.1,0.3-0.1
					c0.1,0,0.2,0.1,0.4,0.2c0.1,0.1,0.3,0.2,0.3,0.4C60.3,66.8,60.6,68,61,69z M58.3,75.9c0-0.1-0.1-0.1-0.1-0.1
					c0,0-0.1,0.1-0.1,0.2c-0.1,0.4-0.2,1-0.3,1.6c-0.1,0.5-0.2,1-0.3,1.6c0,0.2-0.1,0.3-0.1,0.5c0,0.2-0.1,0.4,0,0.6
					c0,0,0.1,0.1,0.1,0.1c0,0,0.1,0,0.1,0c0.2,0,0.5-0.1,0.9-0.1c0.3,0,0.7-0.1,0.9-0.1c0.1,0,0.2-0.2,0.2-0.3c0-0.1,0-0.3-0.1-0.4
					c-0.1-0.1-0.1-0.3-0.2-0.4c-0.1-0.1-0.1-0.3-0.1-0.4c0-0.1,0-0.1-0.1-0.2c0-0.1,0-0.1-0.1-0.1c0,0,0,0,0,0c0,0,0,0,0,0
					c0,0,0,0,0,0c0,0,0,0,0,0c0-0.1,0-0.1,0-0.1C59,77.8,59,77.7,59,77.6c0-0.1,0-0.2-0.1-0.3c0,0,0-0.1-0.1-0.1c0,0,0,0,0-0.1
					c0,0,0,0,0,0c0-0.1,0-0.2-0.1-0.3c0-0.1-0.1-0.2-0.1-0.3c0,0,0-0.1,0-0.1c0,0,0-0.1,0-0.2c0,0-0.1-0.1-0.1-0.2
					C58.4,76.1,58.4,76,58.3,75.9z M60.1,80.9c-0.1,0-0.1,0-0.1,0c-0.1,0-0.2,0-0.3,0.1c-0.1,0.1-0.2,0.1-0.3,0.1c0,0,0,0,0,0
					c0,0,0,0.1,0,0.1c0,0,0,0,0,0c0,0,0,0,0,0.1c0,0,0,0,0,0c0,0,0,0,0,0.1c0.1,0.1,0.2,0.1,0.4,0.1c0.1,0,0.3-0.1,0.4-0.1
					c0.1,0,0.1-0.1,0.1-0.3C60.2,81,60.2,81,60.1,80.9z"/>
				<path fill="#FFEACC" d="M66,64.2C66,64.2,66.1,64.2,66,64.2c0.1,0.1,0.2,0.1,0.2,0.1c0.1,0,0.1,0.2,0.2,0.3c0,0.1,0,0.2,0.1,0.3
					c0,0,0,0,0-0.1c0,0.1,0,0.2,0,0.3c0,0.1,0.1,0.2,0.1,0.2c0,0,0,0.1,0,0.1c0,0,0.1,0.1,0.1,0.1c0.1,0,0.2-0.2,0.2-0.3
					c0-0.1,0-0.3,0.1-0.4c0-0.2,0.1-0.4,0.1-0.6c0-0.2,0.2-0.3,0.4-0.3c0.1,0,0.3,0,0.4,0c0.1,0,0.2,0,0.4,0c0,0,0,0,0,0
					c0.1,0,0.2,0.1,0.3,0.3c0,0,0,0,0,0c0.1,0.2,0.1,0.3,0.1,0.5c0,0.2,0,0.4,0,0.5c0,0,0.1,0.1,0.1,0.1c0,0,0,0.1,0.1,0.2
					c0,0,0-0.1,0-0.1s0.1,0.4,0.2,0.6c0.1,0.2,0.2,0.4,0.2,0.6c0,0.2,0,0.5,0,0.8c0,0.3,0,0.6,0,0.9c0.1,1.9,0.2,3.8,0.4,5.8
					c0.2,2,0.4,3.9,0.6,5.7c0,0.1,0,0.2,0,0.4c0,0.2,0.1,0.3,0.2,0.4c0,0,0.1,0,0.1,0.1c0,0,0.1,0,0.1,0c0,0,0.2,0.1,0.3,0
					c0.1,0,0.2,0,0.3,0c0,0,0-0.1,0.1,0c0,0,0.1,0,0.1,0c0,0,0.1-0.1,0.2-0.1c0.1,0,0.1,0,0.2,0c0.1,0,0.3,0,0.4-0.1
					c0.1,0,0.4,0,0.4,0c0,0,0.1-0.1,0.1,0c0,0,0.1,0,0.1,0c0.3-0.1,0.8,0,1.2-0.1c0.4-0.1,0.8-0.2,1.2-0.1c0.2,0,0.3,0.3,0.3,0.5
					c0,0.2,0,0.4,0,0.6c0.1,0.2,0,0.4-0.1,0.6c-0.1,0.2-0.1,0.5,0,0.6c0,0,0.1,0,0.1,0.1c0,0,0,0.1,0,0.1c0.1,0.1,0.2,0.2,0.3,0.4
					c0,0.2,0,0.3,0,0.5c0,0.1,0,0.2,0,0.4c0,0.1,0,0.3,0,0.4c0,0.1,0,0.3-0.1,0.4c0,0.1-0.2,0.2-0.3,0.2c-0.1,0-0.2,0-0.2,0
					c-0.1,0-0.2,0-0.2,0c-0.4-0.1-1.1,0.1-1.6,0.1c-0.5,0.1-1.1,0.1-1.5,0.2c-0.1,0-0.3,0-0.5,0c-0.2-0.1-0.4-0.2-0.5-0.2
					c-0.1,0-0.2,0.1-0.3,0.3c-0.1,0.1-0.2,0.1-0.4,0.1c-0.2,0-0.4,0.1-0.7,0.1c-0.3,0-0.5,0.1-0.7,0.1c-0.1,0-0.3-0.1-0.4-0.1
					c-0.1-0.1-0.2-0.2-0.3-0.3c0-0.1-0.1-0.1-0.1-0.2c0-0.1-0.1-0.1-0.1-0.1c-0.1,0-0.1,0-0.1,0.1c0,0.1-0.1,0.2-0.1,0.2
					c0,0.1,0,0.2-0.1,0.2c0,0.1,0,0.2-0.1,0.2c0,0-0.1,0-0.1,0.1c0,0,0,0.1-0.1,0.1c-0.1,0-0.1,0-0.2,0c-0.1,0-0.1-0.1-0.2-0.1
					c-0.1-0.1-0.2-0.5-0.2-0.7c0-0.3-0.1-0.5-0.1-0.7c-0.1-0.9-0.3-1.9-0.5-2.9c-0.1-1-0.2-2.1-0.4-2.9c0-0.1-0.1-0.2-0.1-0.3
					c0-0.1-0.1-0.2-0.1-0.3c0,0,0,0,0-0.1c-0.1-0.3-0.2-0.5-0.3-0.8c-0.1-0.3-0.1-0.6-0.1-0.8c-0.1-0.7-0.2-1.3-0.3-2
					c-0.1-0.6-0.2-1.3-0.3-2c-0.2-1.5-0.3-3.1-0.5-4.5c0-0.1-0.1-0.3-0.1-0.4c0-0.1,0-0.3,0-0.4c0-0.3-0.1-0.7-0.1-1
					c0-0.3-0.1-0.8,0-1c0-0.2,0.3-0.4,0.5-0.5c0.2,0,0.4,0,0.6-0.1c0.2-0.1,0.3-0.2,0.5-0.3c0.1-0.1,0.2-0.1,0.3-0.1
					c0.1,0,0.3-0.1,0.3-0.1c0,0,0.1,0.1,0.2,0C66,64.2,66,64.2,66,64.2z"/>
				<path fill="#FFEACC" d="M77.1,62.9C77.1,62.9,77.2,62.9,77.1,62.9c0.1,0.1,0.2,0.1,0.2,0.1c0.1,0,0.1,0.2,0.1,0.3
					c0,0.1,0,0.2,0.1,0.3c0,0,0,0,0-0.1c0,0.1,0,0.2,0,0.3c0,0.1,0.1,0.2,0.1,0.2c0,0,0,0.1,0,0.1c0,0,0.1,0.1,0.1,0.1
					c0.1,0,0.2-0.1,0.2-0.3c0-0.1,0.1-0.2,0.1-0.4c0-0.2,0.1-0.4,0.1-0.5c0.1-0.2,0.2-0.3,0.4-0.3c0.1,0,0.3,0,0.4,0
					c0.1,0,0.2,0,0.4,0c0,0,0,0,0,0c0.1,0,0.2,0.1,0.2,0.3c0,0,0,0,0,0c0.1,0.2,0.1,0.3,0.1,0.5c0,0.2,0,0.4,0,0.5
					c0,0,0,0.1,0.1,0.1c0,0,0,0.1,0,0.2c0,0,0-0.1,0-0.1s0.1,0.4,0.2,0.6c0.1,0.2,0.1,0.4,0.1,0.6c0,0.2-0.1,0.5,0,0.8
					c0,0.3,0,0.6,0,0.9c0,1.9,0,3.9,0.1,5.8c0.1,2,0.2,3.9,0.3,5.8c0,0.1,0,0.2,0,0.4c0,0.2,0.1,0.3,0.2,0.4c0,0,0.1,0,0.1,0.1
					c0,0,0.1,0,0.1,0c0,0,0.2,0.1,0.3,0c0.1,0,0.2,0,0.3,0c0,0,0-0.1,0.1,0c0,0,0.1,0,0.1,0c0,0,0.1-0.1,0.2,0c0.1,0,0.1,0,0.2,0
					c0.1,0,0.3,0,0.4,0c0.1,0,0.4,0,0.4,0c0,0,0.1-0.1,0.1,0c0,0,0.1,0,0.1,0c0.3-0.1,0.8,0,1.2-0.1c0.4,0,0.9-0.1,1.2,0
					c0.2,0.1,0.3,0.3,0.3,0.5c0,0.2,0,0.4,0,0.6c0,0.2,0,0.4-0.1,0.6c-0.1,0.2-0.1,0.5-0.1,0.6c0,0,0.1,0,0.1,0.1c0,0,0,0.1,0,0.1
					c0.1,0.1,0.2,0.3,0.2,0.4c0,0.2,0,0.3,0,0.5c0,0.1,0,0.2,0,0.4c0,0.1,0,0.3,0,0.4c0,0.1,0,0.3-0.1,0.4c0,0.1-0.2,0.2-0.3,0.2
					c-0.1,0-0.2,0-0.2,0c-0.1,0-0.2,0-0.2,0c-0.4-0.1-1.1,0-1.6,0c-0.5,0-1.1,0.1-1.5,0.1c-0.1,0-0.3,0-0.5,0
					c-0.2-0.1-0.4-0.2-0.5-0.2c-0.1,0-0.2,0.1-0.3,0.2c-0.1,0.1-0.2,0.1-0.4,0.1c-0.2,0-0.5,0-0.7,0c-0.3,0-0.6,0.1-0.7,0.1
					c-0.1,0-0.3-0.1-0.4-0.1c-0.1-0.1-0.2-0.2-0.3-0.3c0-0.1-0.1-0.1-0.1-0.2c0-0.1-0.1-0.1-0.1-0.1c-0.1,0-0.1,0-0.2,0.1
					c0,0.1-0.1,0.2-0.1,0.2c0,0.1,0,0.2-0.1,0.2c0,0.1,0,0.2-0.1,0.2c0,0-0.1,0-0.1,0.1c0,0,0,0.1-0.1,0.1c-0.1,0-0.1,0-0.2,0
					c-0.1,0-0.1-0.1-0.2-0.1c-0.1-0.1-0.2-0.5-0.2-0.7c0-0.3,0-0.5-0.1-0.7c-0.1-0.9-0.2-1.9-0.3-2.9c-0.1-1-0.1-2.1-0.3-2.9
					c0-0.1-0.1-0.2-0.1-0.3c0-0.1-0.1-0.2-0.1-0.3c0,0,0,0,0-0.1c-0.1-0.3-0.2-0.5-0.2-0.8c0-0.3-0.1-0.6-0.1-0.8
					c-0.1-0.7-0.1-1.3-0.2-2c-0.1-0.6-0.1-1.3-0.2-2c-0.1-1.5-0.1-3.2-0.3-4.5c0-0.1-0.1-0.3-0.1-0.4c0-0.1,0-0.3,0-0.4
					c0-0.3-0.1-0.7-0.1-1c0-0.3-0.1-0.8,0-1c0.1-0.2,0.3-0.4,0.5-0.4c0.2,0,0.4,0,0.6-0.1c0.2,0,0.4-0.2,0.5-0.3
					c0.1-0.1,0.2-0.1,0.3-0.1c0.1,0,0.3-0.1,0.3,0c0,0,0.1,0.1,0.1,0C77,62.9,77.1,62.9,77.1,62.9z"/>
				<path fill="#FFEACC" d="M93.5,61.9c0.9,0,1.7,0.3,2.5,0.9c0.7,0.5,1.3,1.1,1.9,1.8c0.5,0.7,1,1.6,1.3,2.4
					c0.6,1.4,0.9,2.9,0.9,4.4c0,1.5-0.2,2.9-0.6,4.2c-0.2,0.8-0.4,1.5-0.7,2.2c-0.3,0.7-0.6,1.4-0.9,2c-0.2,0.3-0.4,0.6-0.6,1
					c-0.2,0.3-0.4,0.6-0.7,0.9c-0.1,0.1-0.2,0.2-0.3,0.3c-0.1,0.1-0.2,0.2-0.3,0.3c0,0,0,0,0,0c0,0,0,0.1,0,0c0,0,0,0,0,0
					c-0.1,0.2-0.3,0.3-0.4,0.4c-0.1,0.1-0.3,0.2-0.4,0.4c0,0,0,0,0,0c0,0,0,0,0,0.1c0,0,0,0,0,0.1c0,0,0,0,0,0c0,0,0,0,0,0
					c0,0,0,0,0,0c0,0,0,0,0,0c-0.4,0.3-0.9,0.5-1.3,0.6c-0.5,0.1-1,0.2-1.5,0.2c-0.5,0-1.1-0.1-1.6-0.3c-0.5-0.2-1.1-0.5-1.6-0.9
					c-0.5-0.4-1-0.9-1.4-1.6c-0.4-0.6-0.7-1.3-1-2c-0.5-1.3-0.9-2.6-1-4.1c-0.1-1.4-0.1-2.8,0.1-4c0.1-0.5,0.2-0.9,0.3-1.3
					c0.1-0.4,0.3-0.9,0.4-1.3c0-0.2,0-0.4,0-0.7c0-0.2,0-0.4,0.1-0.6c0.4-0.7,0.8-1.5,1.4-2.2c0.6-0.6,1.2-1.2,1.9-1.5
					c0.1-0.1,0.3,0,0.4,0.1c0.1,0.1,0.3,0.3,0.3,0.3c0,0,0.1,0,0.1,0c0,0,0.1,0,0.1,0c0.1-0.1,0.1-0.2,0.1-0.4
					c-0.1-0.1-0.1-0.2-0.1-0.4c0-0.1,0-0.3,0-0.4c0.1-0.2,0.2-0.3,0.4-0.4c0.2-0.1,0.3-0.1,0.5-0.2C92.2,62,92.9,61.9,93.5,61.9
					C93.5,61.9,93.5,61.9,93.5,61.9z M94.4,68.4c-0.3-0.3-0.6-0.6-0.9-0.8c-0.1-0.1-0.3-0.1-0.4-0.2c-0.1-0.1-0.3-0.1-0.4,0
					c0,0,0,0.2,0,0.3c0,0.1,0.1,0.2,0.1,0.3c0,0,0,0,0,0c0,0,0,0,0,0c0,0.1,0,0.1,0,0.2c0,0.1,0,0.2-0.1,0.3
					c-0.1,0.1-0.1,0.2-0.2,0.2c-0.4,0.2-0.7,0.3-1,0.6c-0.3,0.3-0.5,0.7-0.8,0.9c-0.1,0.1-0.1,0.1-0.2,0.2c0,0.1-0.1,0.2-0.1,0.2
					c-0.1,0.2-0.2,0.4-0.3,0.6c-0.1,0.2-0.1,0.5-0.2,0.6c0,0-0.1,0.1-0.1,0.2c0,0.1-0.1,0.2,0,0.2c0,0,0,0,0,0c0,0,0,0,0,0
					c0,0,0,0,0,0c0,0,0,0.1-0.1,0.2c0,0.1,0,0.1,0,0.2c0,0.2-0.1,0.6-0.1,0.9c0,0.3,0,0.6,0,1c0,0.1,0,0.2,0,0.3c0,0.1,0,0.2,0,0.2
					c0,0.1,0,0.2,0,0.3c0,0.1,0,0.2,0,0.2c0,0,0,0,0,0c0,0.2,0,0.4,0.1,0.6c0.1,0.2,0.1,0.5,0.2,0.6c0,0,0,0,0,0
					c0.1,0.3,0.2,0.6,0.4,0.9c0.2,0.3,0.4,0.5,0.6,0.7c0.3,0.2,0.6,0.4,1.1,0.5c0.4,0,0.8-0.1,1-0.3c0.4-0.2,0.8-0.6,1.1-1.1
					c0.2-0.5,0.5-1.1,0.6-1.6c0.3-1,0.4-2,0.5-3.1c0.1-1,0-2.1-0.3-3.2C94.8,69.1,94.6,68.8,94.4,68.4z M91.8,64.4
					c-0.1,0-0.2,0.1-0.2,0.1c-0.1,0-0.2,0.1-0.2,0.2c0,0.1,0,0.2,0.1,0.3c0.1,0,0.1,0,0.2,0c0,0,0.1,0,0.1-0.1
					c0.1-0.1,0.1-0.1,0.2-0.1c0.1,0,0.1-0.1,0.1-0.3C92,64.5,91.9,64.4,91.8,64.4z"/>
				<path fill="#FFEACC" d="M104.7,62c0.1,0,0.2,0.1,0.3,0.1c0,0,0.1,0,0.2,0.1c0.1,0.1,0.2,0.2,0.2,0.4c0,0.1,0.1,0.3,0.1,0.4
					c0,0.3,0,0.6,0,0.8c0,0.3,0,0.6,0,0.8c0,0.1,0,0.1,0,0.2c0,0.1,0,0.1,0,0.2c0.2,1.1,0.2,2.6,0.3,3.9c0.1,1.3,0.1,2.9,0.4,3.9
					c0,0.1,0.1,0.1,0.2,0.1c0,0,0,0,0.1-0.1c0-0.1,0.1-0.3,0.1-0.4c0-0.1,0.1-0.3,0.1-0.4c0-0.1,0-0.2,0-0.3c0-0.1,0-0.2,0.1-0.3
					c0.2-1.4,0.7-3,1.1-4.5c0.4-1.5,0.7-3,1.2-4.4c0-0.1,0.1-0.2,0.2-0.3c0.1-0.1,0.1-0.1,0.2-0.1c0.2,0,0.5,0,0.8,0
					c0.3,0,0.6,0,0.7,0.1c0.1,0,0.2,0.2,0.3,0.4c0,0,0.1,0.1,0.1,0.1c0,0.1,0.1,0.1,0.2,0.1c0.1,0,0.1-0.1,0.2-0.1
					c0-0.1,0.1-0.1,0.1-0.2c0,0,0.1-0.1,0.1,0c0.1,0,0.1,0,0.2,0c0,0-0.1,0-0.1,0c0.1,0,0.1,0,0.2,0c0,0,0.1,0,0.1,0.1
					c0.1,0,0.6,0.1,0.8,0.2c0,0,0.1,0,0.1,0.1c0,0.1,0.1,0,0.1,0c0,0,0,0.2,0.1,0.3c0,0.1,0,0.2,0.1,0.3c0,0,0,0.1,0,0.1
					c0,0,0,0,0,0.1c0.1,0.3,0.1,0.8,0.1,1.2c0,0.4,0.1,0.7,0.2,1.1c0.1,0.8,0.2,1.6,0.3,2.3c0.1,0.8,0.2,1.6,0.3,2.3c0,0,0,0,0.1,0
					c0,0.2,0,0.5,0.1,0.7c0,0.3,0.1,0.5,0.1,0.7c0,0.1,0.1,0.2,0.1,0.3c0,0.1,0.1,0.2,0.1,0.2c0,0,0,0.1,0,0.1
					c0.1,0.1,0.2,0.2,0.3,0.1c0.1,0,0.1-0.1,0.1-0.2c0-0.1,0.1-0.2,0.1-0.3c0.2-0.9,0.4-1.8,0.6-2.7c0.2-0.9,0.5-1.8,0.7-2.7
					c0.1-0.4,0.2-0.8,0.3-1.2c0.1-0.4,0.3-0.8,0.3-1.1c0,0,0-0.2,0-0.2c0,0,0-0.1,0-0.1c0,0,0-0.1,0-0.1c0-0.1,0-0.2,0.1-0.4
					c0-0.1,0.1-0.3,0.1-0.4c0-0.2,0.2-0.3,0.3-0.4c0.1-0.1,0.3-0.2,0.4-0.2c0,0,0,0,0,0c0,0,0,0,0,0c0,0,0.1,0.1,0.1,0
					c0,0,0.1,0,0.1,0c0.1,0,0.3,0,0.4,0.1c0.2,0.2,0.2,0.4,0.1,0.5c-0.1,0.2-0.2,0.4-0.1,0.5c0,0.1,0.2,0.2,0.2,0.1
					c0.1,0,0.3-0.2,0.3-0.4c0-0.2,0.2-0.4,0.3-0.5c0-0.1,0.1-0.1,0.1-0.1c0.1,0,0.1,0,0.2-0.1c0.1-0.1,0.2-0.1,0.3,0
					c0.1,0,0.2,0,0.3,0c0.1,0,0.2,0,0.3,0c0.1,0,0.2,0,0.3,0c0.2,0,0.4,0.1,0.6,0.1c0.2,0,0.5,0.1,0.7,0.2c0.1,0.1,0.2,0.4,0.1,0.6
					c0,0.1-0.1,0.2-0.1,0.2c0,0.1,0,0.1-0.1,0.2c-0.6,1.1-1,2.4-1.5,3.7c-0.5,1.2-0.9,2.5-1.3,3.8c-0.3,0.9-0.6,1.8-0.8,2.6
					c-0.3,0.9-0.5,1.7-0.8,2.6c-0.2,0.7-0.4,1.3-0.5,1.9c-0.2,0.6-0.3,1.4-0.5,1.9c0,0.1-0.1,0.2-0.1,0.2c0,0.1-0.1,0.1-0.1,0.2
					c-0.1,0.2-0.2,0.4-0.3,0.6c-0.1,0.2-0.2,0.4-0.2,0.6c0,0,0,0,0-0.1c0,0,0,0.1,0,0.1c0,0,0,0,0,0.1c0,0.1-0.1,0.3-0.1,0.4
					c0,0.1-0.1,0.3-0.1,0.4c0,0.2-0.1,0.3-0.1,0.5c0,0.2-0.1,0.3-0.2,0.4c-0.1,0.1-0.2,0.1-0.3,0.1c-0.1,0-0.3,0-0.3,0c0,0,0,0,0,0
					c0,0,0,0,0,0c0,0,0,0,0,0c0,0,0,0-0.1,0c0,0,0,0,0,0c-0.1-0.1-0.2,0-0.4,0.1c-0.2,0.1-0.3,0.1-0.4,0.1c-0.1,0-0.4,0-0.5,0
					c-0.1,0-0.2,0-0.3,0c-0.1,0-0.2,0-0.3-0.1c-0.1,0-0.1-0.1-0.2-0.2c-0.1-0.1-0.1-0.2-0.1-0.2c0-0.1-0.2-0.3-0.2-0.5
					c0-0.1-0.1-0.3-0.1-0.5c-0.3-1.4-0.7-2.8-1.1-4.3c-0.4-1.5-0.9-3-1.1-4.3c0-0.1,0-0.1-0.1-0.2c-0.1,0-0.2,0-0.2,0.2
					c0,0.1-0.1,0.2-0.1,0.3c-0.6,1.3-1.1,2.9-1.5,4.4c-0.5,1.5-1.2,3.2-1.4,4.5c0,0,0,0,0,0.1c0,0,0,0.1,0,0.1c0,0,0,0.1,0,0.1
					c0,0-0.1,0-0.1,0.1c0,0.1-0.1,0.1-0.1,0.1c-0.1,0.1-0.3,0-0.5,0c-0.2,0-0.4,0-0.5,0c-0.1,0-0.3-0.2-0.3-0.3
					c-0.1-0.2-0.1-0.5-0.1-0.8c0-0.3-0.2-0.8-0.2-0.8c0,0-0.1,0-0.1,0c0,0,0,0,0,0c0,0,0,0.1,0,0.2c0,0.1,0,0.1,0,0.2
					c0,0.3,0,0.5,0.1,0.7c0,0.2,0,0.4-0.1,0.7c0,0,0,0,0,0c0,0-0.1,0-0.1,0.1c0,0-0.1,0-0.1,0c-0.1,0-0.2,0-0.3,0
					c-0.1,0-0.2-0.1-0.3-0.2c0,0,0,0,0,0c0,0-0.1-0.1-0.1-0.2c0-0.1-0.1-0.2-0.1-0.3c-0.1-0.3-0.2-0.8-0.3-1.3
					c-0.1-0.4-0.2-0.9-0.3-1.3c0-0.1-0.1-0.3-0.1-0.5c0-0.2-0.1-0.3-0.1-0.5c-0.1-0.6-0.3-1.2-0.4-1.8c-0.1-0.6-0.3-1.2-0.5-1.8
					c-0.1-0.3-0.1-0.6-0.1-0.8c0-0.3-0.2-0.7-0.2-0.8c0,0,0-0.1,0-0.1c0,0,0-0.1,0-0.2c0-0.1,0-0.2-0.1-0.2c0,0,0,0,0,0
					c0,0-0.1-0.1,0-0.1c0,0,0-0.1,0-0.1c0,0,0,0,0,0c0,0,0,0,0,0c0,0,0,0-0.1-0.1c0-0.2-0.1-0.5-0.1-0.7c-0.1-0.3-0.1-0.5-0.1-0.7
					c0-0.2-0.1-0.4-0.1-0.6c0-0.2-0.1-0.4-0.1-0.6c-0.1-0.2-0.1-0.4-0.1-0.6c0-0.2-0.1-0.4-0.1-0.6c0-0.2-0.1-0.4-0.1-0.5
					c0-0.2-0.1-0.4-0.1-0.6c0,0,0,0,0,0c-0.1-0.4-0.2-0.9-0.3-1.4c-0.1-0.5-0.2-1-0.3-1.4c-0.1-0.5-0.2-0.9-0.2-1.4
					c-0.1-0.5-0.3-1.1-0.2-1.3c0,0,0-0.1,0-0.1c0,0,0-0.1,0-0.1c0-0.1,0-0.2,0-0.3c0-0.1,0-0.2,0-0.2c0,0,0.1-0.1,0.1-0.2
					c0-0.1,0.2-0.1,0.2-0.1c0,0-0.2,0.3-0.2,0.3c0,0,0.1-0.2,0.3-0.3c0.1-0.1,0.2-0.1,0.4-0.1c0.1,0,0.3,0,0.4,0c0.1,0,0.3,0,0.4,0
					c0,0,0,0,0,0c0,0,0,0,0.1,0c0,0,0.1,0,0.1,0c0,0,0.1,0,0.1,0c0,0,0.1-0.1,0.3-0.1c0.3,0,0.6,0,0.9,0c0.3,0,0.9,0.1,1,0
					c0,0,0-0.1,0,0c0,0,0,0,0.1,0C104.4,61.9,104.5,61.9,104.7,62z"/>
				<path fill="#FFEACC" d="M134.6,64.6C134.6,64.6,134.6,64.5,134.6,64.6c0.2,0,0.3,0.1,0.4,0.2c0.1,0.1,0.2,0.2,0.2,0.4
					c0,0.1,0,0.1,0,0.1c0,0,0,0.1,0,0.1c0,0,0,0,0,0c0,0,0,0,0,0.1c0,0.2,0,0.4-0.1,0.6c0,0.2,0,0.4-0.1,0.6c0,0,0,0,0,0
					c0,0.1,0,0.3-0.1,0.4c-0.1,0.1-0.1,0.2-0.2,0.3c-0.2,0.3-0.7,0.5-0.8,0.5c0,0,0,0.1-0.1,0.1c0,0,0,0,0,0.1c0,0.1,0,0.2,0.1,0.2
					c0.1,0,0.2,0.2,0.3,0.3c0,0,0,0,0.1,0.1c0,0.1,0.1,0.1,0.1,0.2c0.1,0.2,0,0.4,0,0.6c0,0.2-0.1,0.5-0.2,0.6c0,0-0.1,0-0.1,0.1
					c0,0-0.1,0-0.1,0c-0.1,0-0.2,0-0.3,0c-0.1,0-0.2-0.1-0.3-0.1c-0.5-0.2-1.3-0.2-1.8-0.3c-0.6-0.1-1.3-0.3-1.8-0.3
					c-0.1,0-0.3,0-0.4,0c-0.2,0-0.3,0-0.4,0.2c0,0.1,0,0.1-0.1,0.2c0,0,0,0.1,0,0.2c0,0,0,0,0,0c-0.1,0.1-0.1,0.1-0.1,0.2
					c0,0.1,0,0.2,0,0.3c0,0-0.1,0.1,0,0.1c0,0,0,0.1,0.1,0.1c0,0,0.1,0.1,0.2,0.1c0.1,0,0.1-0.1,0.2-0.2c0-0.1,0.1-0.2,0.1-0.3
					c0.1-0.1,0.1-0.2,0.2-0.2c0.1,0,0.2,0,0.3,0c0,0,0,0,0.1,0.1c0,0,0,0,0-0.1c0.2,0.1,0.3,0.3,0.3,0.5c0,0.1,0,0.2-0.1,0.3
					c0,0.1-0.1,0.2-0.1,0.3c0,0.1,0,0.2-0.1,0.3c0,0.1-0.1,0.2-0.1,0.3c0,0.1-0.1,0.3-0.1,0.5c0,0.2-0.1,0.4-0.1,0.6
					c0,0.1,0,0.2,0,0.3c0,0.2,0.1,0.5,0.1,0.5c0.1,0,0.3,0,0.4,0.1c0.1,0,0.3,0,0.4,0c0.1,0,0.2,0.1,0.3,0.1c0.1,0,0.2,0,0.3,0
					c0.1,0,0.4,0.1,0.5,0.1c0.2,0,0.4,0.1,0.5,0.1c0.1,0,0.1,0,0.1,0.1c0,0,0.1,0.1,0.1,0.1c0,0,0,0.1,0.1,0.2c0,0.1,0,0.2,0,0.2
					c0,0,0,0.1,0,0.1c0,0,0,0.1,0,0.1c0,0.1,0,0.1,0,0.1c0,0-0.1,0.1-0.1,0.1c0,0.1-0.2,0.2-0.2,0.4c0,0.1,0,0.1,0.1,0.1
					c0,0,0,0,0,0c0,0,0,0,0,0.1c0,0,0,0,0.1,0c0,0.2,0,0.5,0,0.8c-0.1,0.4-0.2,0.8-0.4,1c-0.1,0.1-0.2,0.1-0.4,0.1
					c-0.2,0-0.3,0-0.4,0.1c-0.1,0-0.3,0.1-0.5,0.2c-0.1,0.1-0.3,0.2-0.5,0.1c-0.2-0.1-0.5-0.1-0.7-0.1c-0.2,0-0.5,0-0.7-0.1
					c-0.1,0-0.2,0-0.3,0c-0.1,0-0.2,0.1-0.2,0.2c-0.1,0.2-0.2,0.7-0.3,1c-0.1,0.3-0.1,0.7-0.2,1c0,0.2-0.1,0.3-0.1,0.4
					c0,0.1,0,0.3,0,0.5c0,0,0.1,0.1,0.2,0.1c0.1,0,0.2,0,0.2,0.1c0,0,0.1,0,0.1,0c0,0,0.1,0,0.1,0c0,0,0,0,0,0
					c0.2,0.1,0.4,0.1,0.7,0.1c0.2,0,0.5,0.1,0.7,0.1c0.1,0,0.1,0,0.2,0c0.1,0,0.2,0,0.2,0c0.2,0,0.6,0.1,0.8,0.1
					c0.3,0,0.5,0.1,0.8,0.2c0,0,0,0,0,0.1c0,0,0,0,0,0c0,0,0,0,0,0c0,0,0,0,0,0c0,0,0.1,0.1,0.1,0.2c0,0.1,0.1,0.2,0.1,0.2
					c0,0.2-0.1,0.6-0.2,0.8c-0.1,0.3-0.1,0.6-0.2,0.8c0,0.1-0.1,0.2-0.2,0.3c-0.1,0.1-0.1,0.2-0.1,0.4c0,0.1,0.1,0.2,0.1,0.3
					c0,0.1,0,0.2,0,0.4c0,0,0,0,0,0c-0.1,0.2-0.1,0.4-0.1,0.5c0,0.2-0.1,0.4-0.2,0.5c0,0-0.1,0.1-0.1,0.2c0,0.1-0.1,0.1-0.2,0.1
					c-0.1,0-0.2,0-0.2,0c-0.1,0-0.2,0-0.3,0c-0.2,0-0.5-0.1-0.8-0.2c-0.2-0.1-0.6-0.1-0.8-0.1c-0.1,0-0.3-0.1-0.5-0.1
					c-0.2,0-0.3,0-0.5,0c-0.2,0-0.3-0.1-0.5-0.1c-0.1-0.1-0.3-0.3-0.4-0.4c-0.1-0.1-0.2-0.1-0.2,0c-0.1,0.1-0.2,0.2-0.3,0.2
					c-0.1,0-0.3,0-0.4,0c0,0,0,0,0,0c-0.4,0-0.7,0-1.1-0.1c-0.4-0.1-0.8-0.1-1.1-0.1c-0.2,0-0.4-0.2-0.5-0.4c0,0,0,0,0,0
					c0,0,0-0.1,0-0.3c0-0.2,0-0.4,0-0.6c0-0.2,0-0.4,0-0.6c0-0.3,0.1-0.7,0.1-1.2c0-0.4,0.1-0.9,0.1-1.2c0.1-0.4,0.1-0.7,0.1-1.1
					c0-0.4,0.1-0.7,0.1-1.1c0-0.3,0.1-0.7,0.1-1c0-0.3,0.1-0.7,0.1-1c0-0.1,0-0.2,0-0.3c0-0.1,0-0.3,0-0.4c0.1-0.6,0.2-1.4,0.3-2.2
					c0.1-0.7,0.2-1.5,0.4-2.1c0-0.2,0.1-0.3,0.3-0.4c0.1-0.1,0.3-0.2,0.3-0.3c0.1-0.2,0.1-0.4,0.2-0.6c0-0.2,0.1-0.4,0.1-0.6
					c0-0.1,0-0.2,0.1-0.3c0-0.1,0-0.2-0.1-0.3c-0.1-0.1-0.3-0.1-0.5-0.1c-0.2,0-0.4,0-0.5-0.1c0,0,0,0,0,0c0,0,0,0,0,0
					c0,0.1,0,0.1-0.1,0c0,0-0.1,0-0.1,0c0,0,0-0.1-0.1-0.1c0,0,0,0,0,0c0,0,0,0,0-0.1c0,0,0-0.1,0-0.1c0,0,0,0,0,0
					c0-0.1,0-0.2,0-0.3c0-0.1,0-0.2,0-0.3c0-0.1,0-0.2,0-0.2c0-0.1,0-0.2,0-0.3c0,0,0,0,0,0c0,0,0.1-0.1,0.1-0.1c0,0,0,0,0,0
					c0,0,0,0,0,0c0-0.1,0.1-0.2,0.2-0.2c0.1,0,0.2-0.1,0.2-0.2c0,0,0-0.1,0-0.1c0,0,0-0.1,0-0.1c-0.1-0.1-0.2-0.2-0.3-0.3
					c-0.1-0.1-0.2-0.2-0.2-0.4c0-0.3,0-0.6,0.1-1c0.1-0.3,0.1-0.7,0.2-0.9c0.1-0.1,0.3-0.2,0.4-0.3c0.2,0,0.3-0.1,0.5-0.1
					c0.2,0,0.3,0,0.5,0.1c0.2,0,0.4,0,0.5,0c0.2,0,0.4-0.1,0.6-0.2c0.2-0.1,0.4-0.1,0.6-0.1c0.1,0,0.1,0,0.2,0c0,0,0.1,0,0.2,0
					c0,0,0,0,0,0c0,0,0,0,0,0c0,0,0,0,0,0c0,0,0,0.1,0,0c0,0,0,0,0,0c0,0,0.1,0,0.1,0c0,0,0.1,0,0.1,0c0.2,0,0.5,0.1,0.7,0.1
					c0.2,0,0.5,0,0.8,0.1c0.7,0.1,1.4,0.2,2.2,0.3C133.1,64.3,133.8,64.4,134.6,64.6z"/>
				<path fill="#FFEACC" d="M147.5,66.9C147.6,66.9,147.6,66.9,147.5,66.9c0.2,0,0.3,0.1,0.4,0.2c0.1,0.1,0.2,0.2,0.2,0.4
					c0,0.1,0,0.1,0,0.1c0,0,0,0.1,0,0.1c0,0,0,0,0,0c0,0,0,0,0,0.1c0,0.2-0.1,0.4-0.1,0.6c0,0.2-0.1,0.4-0.1,0.6c0,0,0,0,0,0
					c0,0.1-0.1,0.3-0.1,0.4c-0.1,0.1-0.1,0.2-0.2,0.3c-0.2,0.3-0.8,0.4-0.8,0.5c0,0,0,0.1-0.1,0.1c0,0,0,0,0,0.1
					c0,0.1,0,0.2,0.1,0.2c0.1,0,0.2,0.2,0.3,0.3c0,0,0,0,0.1,0.1c0,0.1,0.1,0.1,0.1,0.2c0.1,0.2,0,0.4-0.1,0.6
					c-0.1,0.2-0.1,0.5-0.2,0.6c0,0-0.1,0-0.1,0.1c0,0-0.1,0-0.1,0c-0.1,0-0.2,0-0.3,0c-0.1,0-0.2-0.1-0.3-0.1
					c-0.5-0.2-1.3-0.3-1.8-0.4c-0.6-0.1-1.3-0.4-1.8-0.4c-0.1,0-0.3,0-0.4-0.1c-0.2-0.1-0.3,0-0.4,0.1c0,0.1-0.1,0.1-0.1,0.2
					c0,0,0,0.1,0,0.2c0,0,0,0,0,0c-0.1,0.1-0.1,0.1-0.1,0.2c0,0.1,0,0.2,0,0.3c0,0-0.1,0.1,0,0.1c0,0,0,0.1,0.1,0.1
					c0,0,0.1,0.1,0.2,0.1c0.1,0,0.1-0.1,0.2-0.2c0.1-0.1,0.1-0.2,0.2-0.3c0.1-0.1,0.1-0.1,0.2-0.2c0.1,0,0.2,0,0.3,0c0,0,0,0,0,0.1
					c0,0,0,0,0-0.1c0.1,0.1,0.3,0.3,0.3,0.5c0,0.1,0,0.2-0.1,0.3c0,0.1-0.1,0.2-0.1,0.3c0,0.1-0.1,0.2-0.1,0.3
					c-0.1,0.1-0.1,0.2-0.1,0.3c0,0.1-0.1,0.3-0.2,0.5c-0.1,0.2-0.1,0.4-0.2,0.6c0,0.1,0,0.2,0,0.3c0,0.2,0,0.5,0.1,0.5
					c0.1,0.1,0.3,0.1,0.4,0.1c0.1,0,0.3,0,0.4,0.1c0.1,0,0.2,0.1,0.3,0.1c0.1,0,0.2,0,0.3,0c0.1,0,0.3,0.1,0.5,0.1
					c0.2,0,0.4,0.1,0.5,0.1c0.1,0,0.1,0,0.1,0.1c0,0,0.1,0.1,0.1,0.1c0,0,0,0.1,0,0.2c0,0.1,0,0.2,0,0.2c0,0,0,0.1,0,0.1
					c0,0-0.1,0.1,0,0.1c0,0.1,0,0.1,0,0.1c0,0-0.1,0.1-0.1,0.1c0,0.1-0.2,0.2-0.2,0.4c0,0.1,0,0.1,0.1,0.1c0,0,0,0,0,0
					c0,0,0,0,0,0.1c0,0,0,0,0,0c0,0.2,0,0.5,0,0.8c-0.1,0.4-0.2,0.8-0.4,0.9c-0.1,0.1-0.2,0.1-0.4,0c-0.2,0-0.3,0-0.4,0
					c-0.1,0-0.3,0.1-0.5,0.2c-0.1,0.1-0.3,0.1-0.5,0.1c-0.2-0.1-0.5-0.1-0.7-0.2c-0.2,0-0.5-0.1-0.7-0.1c-0.1,0-0.2,0-0.3,0
					c-0.1,0-0.2,0.1-0.2,0.2c-0.2,0.2-0.2,0.7-0.3,1c-0.1,0.3-0.2,0.7-0.3,1c0,0.2-0.1,0.3-0.1,0.4c-0.1,0.1-0.1,0.3,0,0.5
					c0,0,0.1,0.1,0.2,0.1c0.1,0,0.2,0.1,0.2,0.1c0,0,0.1,0,0.1,0c0,0,0.1,0,0.1,0c0,0,0,0,0,0c0.2,0.1,0.4,0.1,0.7,0.1
					c0.2,0,0.5,0.1,0.7,0.2c0.1,0,0.1,0,0.2,0c0.1,0,0.2,0,0.2,0c0.2,0,0.6,0.1,0.8,0.2c0.3,0,0.5,0.1,0.8,0.2c0,0,0,0,0,0.1
					c0,0,0,0,0,0c0,0,0,0,0,0c0,0,0,0,0,0c0,0.1,0.1,0.1,0.1,0.2c0,0.1,0.1,0.2,0.1,0.2c0,0.2-0.1,0.6-0.2,0.8
					c-0.1,0.3-0.1,0.6-0.2,0.8c0,0.1-0.1,0.2-0.2,0.3c-0.1,0.1-0.1,0.2-0.1,0.4c0,0.1,0,0.2,0.1,0.4c0,0.1,0,0.2,0,0.4c0,0,0,0,0,0
					c-0.1,0.2-0.1,0.3-0.2,0.5c0,0.2-0.1,0.4-0.3,0.5c0,0-0.1,0.1-0.1,0.2c0,0.1-0.1,0.1-0.2,0c-0.1,0-0.2,0-0.2,0
					c-0.1,0-0.2,0-0.3,0c-0.2,0-0.5-0.2-0.8-0.2c-0.2-0.1-0.6-0.1-0.8-0.2c-0.1,0-0.3-0.1-0.4-0.1c-0.2,0-0.3,0-0.5-0.1
					c-0.2,0-0.3-0.1-0.5-0.2c-0.1-0.1-0.3-0.3-0.4-0.4c-0.1-0.1-0.2-0.1-0.2,0c-0.1,0.1-0.2,0.2-0.4,0.2c-0.1,0-0.3,0-0.4,0
					c0,0,0,0,0,0c-0.4,0-0.7-0.1-1.1-0.2c-0.4-0.1-0.8-0.1-1.1-0.2c-0.2,0-0.4-0.2-0.5-0.5c0,0,0,0,0,0c0,0,0-0.1,0-0.3
					c0-0.2,0-0.4,0.1-0.6c0.1-0.2,0-0.4,0.1-0.6c0-0.3,0.2-0.7,0.2-1.2c0-0.4,0.1-0.9,0.2-1.2c0.1-0.4,0.1-0.7,0.2-1.1
					c0.1-0.4,0.1-0.7,0.2-1.1c0.1-0.3,0.1-0.7,0.2-1c0.1-0.3,0.1-0.7,0.2-1c0-0.1,0.1-0.2,0.1-0.3c0-0.1,0-0.3,0.1-0.4
					c0.2-0.6,0.3-1.4,0.4-2.2c0.2-0.7,0.3-1.5,0.5-2.1c0-0.2,0.1-0.3,0.3-0.4c0.1,0,0.3-0.2,0.4-0.3c0.1-0.2,0.2-0.4,0.2-0.6
					c0-0.2,0.1-0.4,0.1-0.6c0-0.1,0-0.2,0.1-0.3c0-0.1,0-0.2-0.1-0.3c-0.1-0.1-0.3-0.2-0.5-0.2c-0.2,0-0.4-0.1-0.5-0.1c0,0,0,0,0,0
					c0,0,0,0,0,0c0,0.1,0,0.1-0.1,0c0,0-0.1,0-0.1,0c0,0,0-0.1,0-0.1c0,0,0,0,0,0c0,0,0,0,0-0.1c0,0,0,0,0-0.1c0,0,0,0,0,0
					c0-0.1,0-0.2,0-0.3c0-0.1,0-0.2,0-0.3c0-0.1,0-0.2,0.1-0.2c0-0.1,0-0.2,0.1-0.3c0,0,0,0,0,0c0,0,0.1-0.1,0.1-0.1c0,0,0,0,0,0
					c0,0,0,0,0,0c0-0.1,0.1-0.1,0.2-0.2c0.1,0,0.2-0.1,0.2-0.2c0,0,0-0.1,0-0.1c0,0,0-0.1,0-0.1c0-0.1-0.2-0.2-0.3-0.3
					c-0.1-0.1-0.2-0.2-0.1-0.4c0-0.3,0.1-0.6,0.1-1c0.1-0.3,0.1-0.7,0.2-0.9c0.1-0.1,0.3-0.2,0.4-0.2c0.2,0,0.3,0,0.5,0
					c0.2,0,0.3,0,0.5,0.1c0.2,0,0.4,0,0.5,0c0.2,0,0.4,0,0.6-0.2c0.2-0.1,0.4-0.1,0.6,0c0.1,0,0.1,0,0.2,0c0,0,0.1,0,0.2,0
					c0,0,0,0,0,0c0,0,0,0,0,0c0,0,0,0,0,0c0,0,0,0.1,0,0c0,0,0,0,0,0c0,0,0.1,0,0.1,0c0,0,0.1,0,0.1,0c0.2,0,0.5,0.1,0.7,0.1
					c0.2,0,0.5,0.1,0.7,0.1c0.7,0.1,1.4,0.3,2.1,0.4C146,66.6,146.8,66.7,147.5,66.9z"/>
				<path fill="#FFEACC" d="M163.3,71.1c0,0.1,0,0.2,0,0.3c0,0.1,0,0.2,0.1,0.2c0.1,0,0.2,0,0.2-0.1c0.1-0.1,0.1-0.2,0.2-0.2
					c0.1-0.1,0.2-0.1,0.2-0.1c0.1,0,0.2,0,0.3,0.1c0.1,0.1,0.1,0.2,0,0.3c-0.1,0.1-0.1,0.2-0.1,0.3c-0.1,0.2-0.3,0.4-0.3,0.7
					c-0.1,0.3-0.2,0.5-0.3,0.8c-0.3,0.7-0.6,1.5-0.8,2.2c-0.3,0.7-0.6,1.5-0.8,2.2c-0.5,1.3-0.7,2-1.2,3.4c-0.5,1.5-1,2.9-1.4,4.4
					c-0.4,1.5-1.4,4.1-1.3,4.4c0,0,0,0,0.1,0c0,0,0,0,0,0c-0.1,0.1-0.1,0.4-0.1,0.4c0,0-0.1,0-0.1,0.1c0,0,0,0.1,0,0.1c0,0,0,0,0,0
					c0,0,0,0.1,0,0.1c0,0,0,0,0,0c0,0.1-0.1,0.3-0.1,0.4c0,0.2-0.1,0.4-0.2,0.5c0,0-0.1,0.1-0.1,0.1c0,0,0,0.1-0.1,0.1
					c-0.1,0.1-0.2,0.1-0.4,0.1c-0.2-0.1-0.3-0.1-0.4-0.2c-0.1-0.1-0.1-0.1-0.1-0.2c0,0,0,0,0,0.1c0-0.1-0.1-0.1-0.1-0.2
					c0-0.1,0-0.1-0.1-0.2c-0.1-0.1-0.2-0.1-0.2,0c-0.1,0.1-0.1,0.1-0.2,0.2c-0.1,0-0.3,0.1-0.4,0c-0.1-0.1-0.3-0.1-0.4-0.1
					c-0.1,0-0.2-0.2-0.2-0.2c0,0,0,0,0,0c0-0.1,0-0.2-0.1-0.4c0-0.1-0.1-0.3-0.1-0.4c-0.1-0.6-0.3-1.4-0.5-2.1
					c-0.2-0.7-0.2-1.6-0.5-2.1c-0.1-0.2-0.3-0.5-0.4-0.8c-0.1-0.3-0.1-0.6-0.2-0.9c0,0,0,0,0,0c-0.1-0.6-0.3-1.2-0.5-1.8
					c-0.2-0.6-0.3-1.3-0.5-1.9c-0.1-0.1-0.1-0.3-0.1-0.4c0-0.1-0.1-0.3-0.2-0.4c-0.1-0.1-0.2-0.1-0.3,0c-0.1,0.1-0.2,0.3-0.3,0.6
					c-0.4,1.4-0.8,2.8-1.2,4.2c-0.4,1.4-0.8,2.8-1.1,4.2c0,0,0,0,0,0.1c-0.1,0.2-0.2,0.4-0.4,0.5c0,0,0,0,0,0
					c-0.1,0.1-0.2,0.1-0.3,0c-0.1,0-0.2-0.1-0.3-0.1c-0.1,0-0.2-0.1-0.2-0.3c0,0,0,0,0,0c0,0,0-0.1,0-0.1c0-0.1,0-0.1-0.1-0.2
					c0-0.3,0.1-0.4,0.1-0.7c0,0,0-0.1,0-0.1c0,0,0-0.1-0.1-0.1c-0.1,0-0.2,0.1-0.2,0.1c0,0.1,0,0.1,0,0.2c-0.1,0,0,0.1,0,0.2
					c0,0-0.1,0.2-0.1,0.3c0,0.1-0.1,0.2-0.1,0.2c0,0.1-0.1,0.2-0.2,0.3c-0.1,0.1-0.2,0.1-0.3,0c-0.1,0-0.3,0-0.4-0.1
					c-0.1-0.1-0.3-0.1-0.4-0.1c-0.2,0-0.3-0.2-0.4-0.4c-0.1-0.2-0.1-0.5,0-0.8c0.1-0.3,0.1-0.5,0.1-0.8c0.1-0.5,0.2-1,0.3-1.5
					c0.1-0.5,0.2-1,0.3-1.4c0.1-0.2,0.1-0.5,0.2-0.8c0,0,0,0,0-0.1c0.1-0.3,0.1-0.6,0.2-1c0.1-0.3,0.2-0.7,0.2-1c0-0.1,0-0.2,0-0.2
					c0-0.1,0-0.2,0.1-0.3c0.2-1.4,0.7-3,1.1-4.6c0.4-1.5,0.7-3.1,1.2-4.5c0-0.1,0-0.1,0.1-0.2c0-0.1,0-0.2,0-0.2
					c0,0,0.1-0.1,0.2-0.2c0.1-0.2,0.3-0.4,0.4-0.7c0.1-0.3,0.2-0.6,0.3-0.9c0.1-0.2,0.1-0.4,0.2-0.6c0.1-0.2,0.1-0.4,0.2-0.6
					c0-0.1,0.1-0.3,0.2-0.3c0.1-0.1,0.2-0.1,0.3-0.2c0.2,0,0.5,0.1,0.7,0.1c0.3,0.1,0.6,0.1,0.8,0.2c0.2,0.1,0.3,0.6,0.3,0.9
					c0,0.1,0,0.2,0.1,0.2c0.1,0,0.2,0.1,0.3-0.1c0-0.1,0.1-0.2,0.2-0.3c0-0.1,0.1-0.3,0.3-0.3c0.2-0.1,0.4,0,0.5,0.2
					c0.1,0.2,0.3,0.4,0.3,0.6c0.2,0.7,0.4,1.4,0.6,2.1c0.2,0.7,0.6,1.6,0.6,2.1c0,0,0,0.1,0,0.1c0,0,0.1,0.1,0.1,0.1
					c0.2,0.9,0.4,1.8,0.6,2.7c0.2,0.9,0.3,2,0.6,2.7c0,0,0.1,0.1,0.1,0.2c0,0.1,0.1,0.1,0.1,0.1c0.2,0,0.2-0.1,0.2-0.3
					c0-0.2,0-0.3,0.1-0.4c0.4-1.1,0.7-2.6,1-4c0.4-1.4,0.7-2.7,1.2-4c0-0.1,0.1-0.2,0.1-0.2c0-0.1,0.1-0.1,0.1-0.2
					c0.1-0.1,0.3-0.3,0.5-0.2c0.2,0.1,0.4,0.1,0.6,0.1c0.1,0,0.1,0,0.2,0.1c0,0,0.1,0.1,0.1,0.1c0.1,0.1,0.1,0.2,0.1,0.3
					c0,0.1,0,0.2-0.1,0.3c-0.1,0.1-0.1,0.3-0.2,0.4c0,0.2-0.1,0.4-0.1,0.5c-0.1,0.1,0,0.3,0.1,0.3c0,0.1,0.1,0.1,0.2,0
					c0.2-0.2,0.3-0.4,0.4-0.7c0.1-0.3,0.2-0.5,0.3-0.7c0,0,0,0,0,0c0,0,0-0.1,0-0.1c0,0.1,0,0.1,0.1,0c0-0.1,0-0.1,0.1-0.1
					c0.1,0,0.2-0.1,0.3-0.1c0.1,0,0.2,0,0.3,0.1c0.1,0,0.3,0.1,0.5,0.1C163.2,70.7,163.3,70.9,163.3,71.1z"/>
			</g>
			<g>
				<g opacity="0.6">
					
						<text transform="matrix(1 -0.1443 0 1 48.4301 134.3395)" fill="#F29023" font-family="'GrandHotel-Regular'" font-size="42.9673">Party</text>
					
						<text transform="matrix(1 -0.1443 0 1 49.6856 132.9005)" fill="#FFEACC" font-family="'GrandHotel-Regular'" font-size="42.9673">Party</text>
				</g>
				
					<text transform="matrix(1 -0.1443 0 1 50.946 131.2118)" fill="#381324" font-family="'GrandHotel-Regular'" font-size="42.9673">Party</text>
			</g>
		</g>
	</g>
</g>
</svg>
